# https://github.com/mikedh/trimesh

o base_link.obj
v 0.00802700 0.01666800 0.05725000
v 0.00411700 0.01803600 0.05725000
v -0.01850000 0.00000000 0.05725000
v 0.01803600 0.00411700 0.05725000
v -0.01446400 -0.01153500 0.05725000
v 0.01850000 -0.00000000 0.05725000
v 0.01803600 -0.00411700 0.05725000
v -0.01803600 -0.00411700 0.05725000
v -0.01666800 -0.00802700 0.05725000
v 0.01446400 0.01153500 0.05725000
v 0.01666800 0.00802700 0.05725000
v 0.01153500 0.01446400 0.05725000
v -0.01153500 -0.01446400 0.05725000
v -0.00802700 -0.01666800 0.05725000
v -0.00411700 -0.01803600 0.05725000
v -0.00000000 -0.01850000 0.05725000
v 0.00411700 -0.01803600 0.05725000
v 0.00802700 -0.01666800 0.05725000
v 0.01153500 -0.01446400 0.05725000
v 0.01446400 -0.01153500 0.05725000
v 0.01666800 -0.00802700 0.05725000
v -0.01666800 0.00802700 0.05725000
v -0.00411700 0.01803600 0.05725000
v -0.01446400 0.01153500 0.05725000
v -0.00802700 0.01666800 0.05725000
v -0.01153500 0.01446400 0.05725000
v 0.00000000 0.01850000 0.05725000
v -0.01803600 0.00411700 0.05725000
v 0.01850000 0.00000000 0.06025000
v 0.01803600 0.00411700 0.06025000
v 0.01666800 0.00802700 0.06025000
v 0.01446400 0.01153500 0.06025000
v 0.01153500 0.01446400 0.06025000
v 0.00802700 0.01666800 0.06025000
v 0.00411700 0.01803600 0.06025000
v 0.00000000 0.01850000 0.06025000
v -0.00411700 0.01803600 0.06025000
v -0.00802700 0.01666800 0.06025000
v -0.01153500 0.01446400 0.06025000
v -0.01446400 0.01153500 0.06025000
v -0.01666800 0.00802700 0.06025000
v -0.01803600 0.00411700 0.06025000
v -0.01850000 0.00000000 0.06025000
v 0.03521800 0.01100000 0.00400000
v 0.03721800 0.01100000 0.00600000
v 0.03521800 -0.01100000 0.00400000
v 0.03721800 -0.01100000 0.00600000
v 0.03521800 0.01250000 0.00440200
v 0.03721800 0.01150000 0.00613400
v 0.03521800 0.01359800 0.00550000
v 0.03721800 0.01186600 0.00650000
v 0.03521800 0.01400000 0.00700000
v 0.03721800 0.01200000 0.00700000
v 0.03721800 -0.01200000 0.00700000
v 0.03521800 -0.01400000 0.00700000
v 0.03521800 -0.01359800 0.00550000
v 0.03721800 -0.01186600 0.00650000
v 0.03521800 -0.01250000 0.00440200
v 0.03721800 -0.01150000 0.00613400
v 0.03721800 0.01200000 0.04312500
v 0.03521800 0.01400000 0.04312500
v 0.03521800 -0.01400000 0.04312500
v 0.03721800 -0.01200000 0.04312500
v 0.03521800 0.01359800 0.04462500
v 0.03721800 0.01186600 0.04362500
v 0.03521800 0.01250000 0.04572300
v 0.03721800 0.01150000 0.04399100
v 0.03521800 0.01100000 0.04612500
v 0.03721800 0.01100000 0.04412500
v 0.03721800 -0.01100000 0.04412500
v 0.03521800 -0.01100000 0.04612500
v 0.03521800 -0.01250000 0.04572300
v 0.03721800 -0.01150000 0.04399100
v 0.03521800 -0.01359800 0.04462500
v 0.03721800 -0.01186600 0.04362500
v 0.03121800 0.01100000 0.04612500
v 0.03121800 -0.01100000 0.04612500
v 0.03121800 0.01400000 0.04312500
v 0.03121800 0.01359800 0.04462500
v 0.03121800 0.01250000 0.04572300
v 0.03121800 0.01400000 0.00700000
v 0.03250000 0.01100000 0.00400000
v 0.03121800 0.01100000 0.00400000
v 0.03121800 0.01250000 0.00440200
v 0.03121800 0.01359800 0.00550000
v 0.03250000 -0.01100000 0.00400000
v 0.03121800 -0.01400000 0.00700000
v 0.03121800 -0.01359800 0.00550000
v 0.03121800 -0.01250000 0.00440200
v 0.03121800 -0.01100000 0.00400000
v 0.03121800 -0.01400000 0.04312500
v 0.03121800 -0.01250000 0.04572300
v 0.03121800 -0.01359800 0.04462500
v -0.02750000 -0.03010000 0.00000000
v -0.02620000 -0.02975200 0.00000000
v 0.02490000 -0.02750000 0.00000000
v -0.02524800 -0.02880000 0.00000000
v 0.02524800 -0.02620000 0.00000000
v -0.02490000 -0.02750000 0.00000000
v -0.03250000 -0.02750000 0.00000000
v -0.03250000 0.02750000 0.00000000
v -0.02880000 -0.02524800 0.00000000
v 0.02880000 -0.02975200 0.00000000
v 0.02975200 -0.02880000 0.00000000
v 0.03211900 -0.02941300 0.00000000
v 0.03250000 -0.02750000 0.00000000
v -0.02524800 -0.02620000 0.00000000
v 0.02750000 0.02490000 0.00000000
v 0.03250000 0.02750000 0.00000000
v 0.02880000 0.02524800 0.00000000
v -0.02975200 -0.02880000 0.00000000
v -0.03211900 -0.02941300 0.00000000
v -0.03010000 -0.02750000 0.00000000
v -0.02975200 -0.02620000 0.00000000
v 0.02750000 -0.03250000 0.00000000
v -0.02750000 -0.03250000 0.00000000
v 0.02524800 -0.02880000 0.00000000
v -0.02975200 0.02880000 0.00000000
v -0.03010000 0.02750000 0.00000000
v -0.02975200 0.02620000 0.00000000
v -0.02880000 0.02524800 0.00000000
v -0.02750000 -0.02490000 0.00000000
v -0.02750000 0.02490000 0.00000000
v -0.02620000 -0.02524800 0.00000000
v -0.02620000 0.02524800 0.00000000
v 0.02490000 0.02750000 0.00000000
v -0.02524800 0.02620000 0.00000000
v 0.02524800 0.02880000 0.00000000
v -0.02490000 0.02750000 0.00000000
v 0.02620000 0.02975200 0.00000000
v 0.02750000 0.03010000 0.00000000
v 0.02975200 0.02620000 0.00000000
v 0.03010000 0.02750000 0.00000000
v 0.03211900 0.02941300 0.00000000
v 0.02975200 0.02880000 0.00000000
v 0.03103600 0.03103600 0.00000000
v 0.02880000 0.02975200 0.00000000
v -0.02750000 0.03250000 0.00000000
v 0.02750000 0.03250000 0.00000000
v -0.02524800 0.02880000 0.00000000
v -0.02880000 -0.02975200 0.00000000
v -0.02941300 -0.03211900 0.00000000
v -0.03103600 -0.03103600 0.00000000
v 0.03103600 -0.03103600 0.00000000
v 0.02941300 -0.03211900 0.00000000
v 0.02750000 -0.03010000 0.00000000
v 0.02620000 -0.02975200 0.00000000
v 0.03010000 -0.02750000 0.00000000
v 0.02975200 -0.02620000 0.00000000
v 0.02880000 -0.02524800 0.00000000
v 0.02750000 -0.02490000 0.00000000
v 0.02620000 -0.02524800 0.00000000
v 0.02941300 0.03211900 0.00000000
v -0.03211900 0.02941300 0.00000000
v -0.03103600 0.03103600 0.00000000
v -0.02880000 0.02975200 0.00000000
v -0.02941300 0.03211900 0.00000000
v -0.02750000 0.03010000 0.00000000
v -0.02620000 0.02975200 0.00000000
v 0.02524800 0.02620000 0.00000000
v 0.02620000 0.02524800 0.00000000
v 0.03010000 -0.02750000 0.00400000
v 0.02975200 -0.02620000 0.00400000
v 0.02880000 -0.02524800 0.00400000
v 0.02750000 -0.02490000 0.00400000
v 0.02620000 -0.02524800 0.00400000
v 0.02524800 -0.02620000 0.00400000
v 0.02490000 -0.02750000 0.00400000
v -0.02975200 -0.02880000 0.00400000
v -0.03010000 -0.02750000 0.00400000
v -0.03250000 -0.02750000 0.00400000
v 0.02971800 0.01659800 0.00400000
v 0.03081600 0.01550000 0.00400000
v 0.03250000 0.02750000 0.00400000
v 0.03121800 0.01400000 0.00400000
v 0.02620000 0.02524800 0.00400000
v 0.00502800 0.02805300 0.00400000
v 0.00989700 0.02672600 0.00400000
v 0.02750000 -0.03250000 0.00400000
v 0.02941300 -0.03211900 0.00400000
v 0.02880000 -0.02975200 0.00400000
v 0.03103600 -0.03103600 0.00400000
v 0.02975200 -0.02880000 0.00400000
v 0.03211900 -0.02941300 0.00400000
v 0.03250000 -0.02750000 0.00400000
v 0.02421800 -0.01700000 0.00400000
v 0.02303800 -0.01726600 0.00400000
v 0.02208700 -0.01801200 0.00400000
v -0.03081600 0.01550000 0.00400000
v -0.02971800 0.01659800 0.00400000
v -0.03250000 0.02750000 0.00400000
v 0.02524800 0.02620000 0.00400000
v 0.02490000 0.02750000 0.00400000
v -0.02750000 0.03250000 0.00400000
v 0.02524800 0.02880000 0.00400000
v 0.02750000 0.03250000 0.00400000
v 0.03121800 -0.01400000 0.00400000
v 0.03081600 -0.01550000 0.00400000
v 0.02971800 -0.01659800 0.00400000
v 0.02821800 -0.01700000 0.00400000
v -0.02821800 -0.01700000 0.00400000
v -0.02971800 -0.01659800 0.00400000
v -0.02750000 -0.02490000 0.00400000
v -0.02524800 -0.02880000 0.00400000
v -0.02620000 -0.02975200 0.00400000
v -0.02750000 -0.03250000 0.00400000
v -0.02750000 -0.03010000 0.00400000
v -0.02941300 -0.03211900 0.00400000
v -0.02880000 -0.02975200 0.00400000
v -0.03103600 -0.03103600 0.00400000
v -0.03211900 -0.02941300 0.00400000
v -0.02975200 -0.02620000 0.00400000
v -0.02880000 -0.02524800 0.00400000
v -0.03121800 -0.01400000 0.00400000
v 0.01445700 0.02456100 0.00400000
v 0.01856300 0.02162600 0.00400000
v 0.02750000 0.02490000 0.00400000
v 0.02208700 0.01801200 0.00400000
v 0.02303800 0.01726600 0.00400000
v 0.02880000 0.02975200 0.00400000
v 0.02941300 0.03211900 0.00400000
v 0.02750000 0.03010000 0.00400000
v 0.02620000 0.02975200 0.00400000
v -0.00000000 -0.02850000 0.00400000
v 0.02524800 -0.02880000 0.00400000
v 0.00502800 -0.02805300 0.00400000
v 0.00989700 -0.02672600 0.00400000
v 0.02750000 -0.03010000 0.00400000
v 0.02620000 -0.02975200 0.00400000
v -0.02490000 -0.02750000 0.00400000
v -0.00502800 -0.02805300 0.00400000
v 0.02421800 0.01700000 0.00400000
v 0.02821800 0.01700000 0.00400000
v 0.02880000 0.02524800 0.00400000
v 0.02975200 0.02620000 0.00400000
v 0.03010000 0.02750000 0.00400000
v -0.03081600 -0.01550000 0.00400000
v -0.02421800 -0.01700000 0.00400000
v -0.02620000 -0.02524800 0.00400000
v -0.02303800 -0.01726600 0.00400000
v 0.02975200 0.02880000 0.00400000
v 0.03211900 0.02941300 0.00400000
v 0.03103600 0.03103600 0.00400000
v 0.01856300 -0.02162600 0.00400000
v 0.01445700 -0.02456100 0.00400000
v -0.02620000 0.02524800 0.00400000
v -0.02208700 0.01801200 0.00400000
v -0.02524800 0.02620000 0.00400000
v -0.01856300 0.02162600 0.00400000
v -0.02490000 0.02750000 0.00400000
v -0.01445700 0.02456100 0.00400000
v -0.02303800 0.01726600 0.00400000
v -0.02421800 0.01700000 0.00400000
v -0.02821800 0.01700000 0.00400000
v -0.02750000 0.02490000 0.00400000
v -0.02880000 0.02524800 0.00400000
v -0.02975200 0.02620000 0.00400000
v -0.03010000 0.02750000 0.00400000
v -0.03211900 0.02941300 0.00400000
v -0.02975200 0.02880000 0.00400000
v -0.03103600 0.03103600 0.00400000
v -0.02620000 0.02975200 0.00400000
v -0.02524800 0.02880000 0.00400000
v -0.03121800 0.01400000 0.00400000
v -0.00989700 -0.02672600 0.00400000
v -0.01445700 -0.02456100 0.00400000
v -0.02524800 -0.02620000 0.00400000
v -0.01856300 -0.02162600 0.00400000
v -0.02208700 -0.01801200 0.00400000
v -0.02941300 0.03211900 0.00400000
v -0.02880000 0.02975200 0.00400000
v -0.02750000 0.03010000 0.00400000
v 0.00000000 0.02850000 0.00400000
v -0.00502800 0.02805300 0.00400000
v -0.00989700 0.02672600 0.00400000
v -0.01666800 -0.00802700 0.06025000
v -0.01803600 -0.00411700 0.06025000
v -0.02303800 -0.01726600 0.06025000
v 0.02421800 0.01700000 0.06025000
v 0.02303800 0.01726600 0.06025000
v -0.02421800 -0.01700000 0.06025000
v -0.02821800 -0.01700000 0.06025000
v 0.02303800 -0.01726600 0.06025000
v 0.02421800 -0.01700000 0.06025000
v 0.02821800 -0.01700000 0.06025000
v 0.02971800 -0.01659800 0.06025000
v 0.03121800 0.01400000 0.06025000
v 0.03081600 0.01550000 0.06025000
v 0.02971800 0.01659800 0.06025000
v -0.02303800 0.01726600 0.06025000
v -0.02421800 0.01700000 0.06025000
v -0.02821800 0.01700000 0.06025000
v -0.02971800 0.01659800 0.06025000
v 0.03081600 -0.01550000 0.06025000
v 0.03121800 -0.01400000 0.06025000
v 0.02821800 0.01700000 0.06025000
v -0.03081600 -0.01550000 0.06025000
v -0.02971800 -0.01659800 0.06025000
v -0.03121800 -0.01400000 0.06025000
v -0.03121800 0.01400000 0.06025000
v -0.03081600 0.01550000 0.06025000
v -0.01446400 -0.01153500 0.06025000
v -0.02208700 -0.01801200 0.06025000
v -0.01153500 -0.01446400 0.06025000
v -0.01856300 -0.02162600 0.06025000
v -0.00802700 -0.01666800 0.06025000
v -0.02208700 0.01801200 0.06025000
v -0.01856300 0.02162600 0.06025000
v -0.01445700 0.02456100 0.06025000
v -0.00989700 0.02672600 0.06025000
v 0.02208700 0.01801200 0.06025000
v 0.01856300 0.02162600 0.06025000
v 0.00411700 -0.01803600 0.06025000
v 0.00989700 -0.02672600 0.06025000
v 0.00802700 -0.01666800 0.06025000
v 0.01445700 -0.02456100 0.06025000
v 0.01153500 -0.01446400 0.06025000
v 0.01856300 -0.02162600 0.06025000
v 0.01446400 -0.01153500 0.06025000
v 0.02208700 -0.01801200 0.06025000
v 0.01666800 -0.00802700 0.06025000
v 0.01803600 -0.00411700 0.06025000
v -0.01445700 -0.02456100 0.06025000
v -0.00989700 -0.02672600 0.06025000
v -0.00411700 -0.01803600 0.06025000
v -0.00502800 -0.02805300 0.06025000
v -0.00000000 -0.01850000 0.06025000
v -0.00000000 -0.02850000 0.06025000
v 0.00502800 -0.02805300 0.06025000
v 0.01445700 0.02456100 0.06025000
v 0.00989700 0.02672600 0.06025000
v 0.00502800 0.02805300 0.06025000
v 0.00000000 0.02850000 0.06025000
v -0.00502800 0.02805300 0.06025000
vn -0.31698894 -0.65830487 0.68275377
vn -0.16258034 -0.71232450 0.68276016
vn 0.73065512 0.00000000 0.68274673
vn -0.71232450 -0.16258034 0.68276016
vn 0.57125841 0.45554213 0.68274827
vn -0.73065512 0.00000000 0.68274673
vn -0.71232450 0.16258034 0.68276016
vn 0.71232450 0.16258034 0.68276016
vn 0.65830487 0.31698894 0.68275377
vn -0.57125841 -0.45554213 0.68274827
vn -0.65830487 -0.31698894 0.68275377
vn -0.45554213 -0.57125841 0.68274827
vn 0.45554213 0.57125841 0.68274827
vn 0.31698894 0.65830487 0.68275377
vn 0.16258034 0.71232450 0.68276016
vn 0.00000000 0.73065512 0.68274673
vn -0.16258034 0.71232450 0.68276016
vn -0.31698894 0.65830487 0.68275377
vn -0.45554213 0.57125841 0.68274827
vn -0.57125841 0.45554213 0.68274827
vn -0.65830487 0.31698894 0.68275377
vn 0.65830487 -0.31698894 0.68275377
vn 0.16258034 -0.71232450 0.68276016
vn 0.57125841 -0.45554213 0.68274827
vn 0.31698894 -0.65830487 0.68275377
vn 0.45554213 -0.57125841 0.68274827
vn 0.00000000 -0.73065512 0.68274673
vn 0.71232450 -0.16258034 0.68276016
vn -0.68000747 -0.00000000 0.73320518
vn -0.66297509 -0.15131687 0.73318977
vn -0.61268577 -0.29502229 0.73319711
vn -0.53166238 -0.42396682 0.73320341
vn -0.42396682 -0.53166238 0.73320341
vn -0.29502229 -0.61268577 0.73319711
vn -0.15131687 -0.66297509 0.73318977
vn 0.00000000 -0.68000747 0.73320518
vn 0.15131687 -0.66297509 0.73318977
vn 0.29502229 -0.61268577 0.73319711
vn 0.42396682 -0.53166238 0.73320341
vn 0.53166238 -0.42396682 0.73320341
vn 0.61268577 -0.29502229 0.73319711
vn 0.66297509 -0.15131687 0.73318977
vn 0.68000747 0.00000000 0.73320518
vn 0.37019084 0.11865670 -0.92134648
vn 0.91137315 0.05716009 -0.40759256
vn 0.37019084 -0.11865670 -0.92134648
vn 0.91137315 -0.05716009 -0.40759256
vn 0.36202445 0.46610309 -0.80727084
vn 0.90073553 0.21719346 -0.37616818
vn 0.36202445 0.80727084 -0.46610309
vn 0.90073553 0.37616818 -0.21719346
vn 0.37019084 0.92134648 -0.11865670
vn 0.91137315 0.40759256 -0.05716009
vn 0.91137315 -0.40759256 -0.05716009
vn 0.37019084 -0.92134648 -0.11865670
vn 0.36202445 -0.80727084 -0.46610309
vn 0.90073553 -0.37616818 -0.21719346
vn 0.36202445 -0.46610309 -0.80727084
vn 0.90073553 -0.21719346 -0.37616818
vn 0.91137315 0.40759256 0.05716009
vn 0.37019084 0.92134648 0.11865670
vn 0.37019084 -0.92134648 0.11865670
vn 0.91137315 -0.40759256 0.05716009
vn 0.36202445 0.80727084 0.46610309
vn 0.90073553 0.37616818 0.21719346
vn 0.36202445 0.46610309 0.80727084
vn 0.90073553 0.21719346 0.37616818
vn 0.37019084 0.11865670 0.92134648
vn 0.91137315 0.05716009 0.40759256
vn 0.91137315 -0.05716009 0.40759256
vn 0.37019084 -0.11865670 0.92134648
vn 0.36202445 -0.46610309 0.80727084
vn 0.90073553 -0.21719346 0.37616818
vn 0.36202445 -0.80727084 0.46610309
vn 0.90073553 -0.37616818 0.21719346
vn 0.73770597 0.08813699 0.66934429
vn 0.73770597 -0.08813699 0.66934429
vn 0.64336504 0.76143482 0.07936273
vn 0.77025576 0.55228724 0.31888064
vn 0.77025576 0.31888064 0.55228724
vn 0.64336504 0.76143482 -0.07936273
vn 0.70710678 0.18304508 -0.68300403
vn 0.53812184 0.83565361 0.11003603
vn 0.77025576 0.31888064 -0.55228724
vn 0.77025576 0.55228724 -0.31888064
vn 0.70710678 -0.18304508 -0.68300403
vn 0.64336504 -0.76143482 -0.07936273
vn 0.77025576 -0.55228724 -0.31888064
vn 0.77025576 -0.31888064 -0.55228724
vn 0.53812184 -0.83565361 0.11003603
vn 0.64336504 -0.76143482 0.07936273
vn 0.77025576 -0.31888064 0.55228724
vn 0.77025576 -0.55228724 0.31888064
vn -0.00000000 0.63780158 -0.77020072
vn -0.31877927 0.55229473 -0.77029235
vn 0.63780158 0.00000000 -0.77020072
vn -0.55229473 0.31877927 -0.77029235
vn 0.55229473 -0.31877927 -0.77029235
vn -0.63780158 -0.00000000 -0.77020072
vn -0.72439790 -0.07143535 -0.68567097
vn -0.72439790 0.07143535 -0.68567097
vn 0.31877927 -0.55229473 -0.77029235
vn -0.31877927 0.55229473 -0.77029235
vn -0.55229473 0.31877927 -0.77029235
vn 0.68938569 -0.28540031 -0.66580330
vn 0.72439790 -0.07143535 -0.68567097
vn -0.55229473 -0.31877927 -0.77029235
vn 0.00000000 0.63780158 -0.77020072
vn 0.72439790 0.07143535 -0.68567097
vn -0.31877927 0.55229473 -0.77029235
vn 0.55229473 0.31877927 -0.77029235
vn -0.68938569 -0.28540031 -0.66580330
vn 0.63780158 0.00000000 -0.77020072
vn 0.55229473 -0.31877927 -0.77029235
vn 0.07143535 -0.72439790 -0.68567097
vn -0.07143535 -0.72439790 -0.68567097
vn 0.55229473 0.31877927 -0.77029235
vn 0.55229473 -0.31877927 -0.77029235
vn 0.63780158 0.00000000 -0.77020072
vn 0.55229473 0.31877927 -0.77029235
vn 0.31877927 0.55229473 -0.77029235
vn 0.00000000 -0.63780158 -0.77020072
vn 0.00000000 0.63780158 -0.77020072
vn -0.31877927 -0.55229473 -0.77029235
vn -0.31877927 0.55229473 -0.77029235
vn 0.63780158 0.00000000 -0.77020072
vn -0.55229473 0.31877927 -0.77029235
vn 0.55229473 -0.31877927 -0.77029235
vn -0.63780158 -0.00000000 -0.77020072
vn 0.31877927 -0.55229473 -0.77029235
vn 0.00000000 -0.63780158 -0.77020072
vn -0.55229473 0.31877927 -0.77029235
vn -0.63780158 -0.00000000 -0.77020072
vn 0.68938569 0.28540031 -0.66580330
vn -0.55229473 -0.31877927 -0.77029235
vn 0.52772150 0.52772150 -0.66559751
vn -0.31877927 -0.55229473 -0.77029235
vn -0.07143535 0.72439790 -0.68567097
vn 0.07143535 0.72439790 -0.68567097
vn -0.55229473 -0.31877927 -0.77029235
vn 0.31877927 0.55229473 -0.77029235
vn -0.28540031 -0.68938569 -0.66580330
vn -0.52772150 -0.52772150 -0.66559751
vn 0.52772150 -0.52772150 -0.66559751
vn 0.28540031 -0.68938569 -0.66580330
vn -0.00000000 0.63780158 -0.77020072
vn 0.31877927 0.55229473 -0.77029235
vn -0.63780158 -0.00000000 -0.77020072
vn -0.55229473 -0.31877927 -0.77029235
vn -0.31877927 -0.55229473 -0.77029235
vn 0.00000000 -0.63780158 -0.77020072
vn 0.31877927 -0.55229473 -0.77029235
vn 0.28540031 0.68938569 -0.66580330
vn -0.68938569 0.28540031 -0.66580330
vn -0.52772150 0.52772150 -0.66559751
vn 0.31877927 -0.55229473 -0.77029235
vn -0.28540031 0.68938569 -0.66580330
vn 0.00000000 -0.63780158 -0.77020072
vn -0.31877927 -0.55229473 -0.77029235
vn 0.55229473 0.31877927 -0.77029235
vn 0.31877927 0.55229473 -0.77029235
vn -0.63780158 0.00000000 0.77020072
vn -0.55229473 -0.31877927 0.77029235
vn -0.31877927 -0.55229473 0.77029235
vn -0.00000000 -0.63780158 0.77020072
vn 0.31877927 -0.55229473 0.77029235
vn 0.55229473 -0.31877927 0.77029235
vn 0.63780158 -0.00000000 0.77020072
vn 0.55229473 0.31877927 0.77029235
vn 0.63780158 -0.00000000 0.77020072
vn -0.72439790 -0.07143535 0.68567097
vn 0.31888064 0.55228724 0.77025576
vn 0.55228724 0.31888064 0.77025576
vn 0.72439790 0.07143535 0.68567097
vn 0.66934429 0.08813699 0.73770597
vn 0.31877927 0.55229473 0.77029235
vn 0.12104144 0.67523782 0.72760075
vn 0.23824697 0.64332969 0.72757493
vn 0.07143535 -0.72439790 0.68567097
vn 0.28540031 -0.68938569 0.66580330
vn -0.31877927 0.55229473 0.77029235
vn 0.52772150 -0.52772150 0.66559751
vn -0.55229473 0.31877927 0.77029235
vn 0.68938569 -0.28540031 0.66580330
vn 0.72439790 -0.07143535 0.68567097
vn 0.08080416 -0.72590385 0.68303316
vn 0.32203570 -0.67796962 0.66079513
vn 0.48196635 -0.53683650 0.69247023
vn -0.55228724 0.31888064 0.77025576
vn -0.31888064 0.55228724 0.77025576
vn -0.72439790 0.07143535 0.68567097
vn 0.55229473 0.31877927 0.77029235
vn 0.63780158 -0.00000000 0.77020072
vn -0.07143535 0.72439790 0.68567097
vn 0.55229473 -0.31877927 0.77029235
vn 0.07143535 0.72439790 0.68567097
vn 0.66934429 -0.08813699 0.73770597
vn 0.55228724 -0.31888064 0.77025576
vn 0.31888064 -0.55228724 0.77025576
vn 0.08813699 -0.66934429 0.73770597
vn -0.08813699 -0.66934429 0.73770597
vn -0.31888064 -0.55228724 0.77025576
vn -0.00000000 -0.63780158 0.77020072
vn -0.55229473 0.31877927 0.77029235
vn -0.31877927 0.55229473 0.77029235
vn -0.07143535 -0.72439790 0.68567097
vn 0.00000000 0.63780158 0.77020072
vn -0.28540031 -0.68938569 0.66580330
vn 0.31877927 0.55229473 0.77029235
vn -0.52772150 -0.52772150 0.66559751
vn -0.68938569 -0.28540031 0.66580330
vn 0.55229473 -0.31877927 0.77029235
vn 0.31877927 -0.55229473 0.77029235
vn -0.66934429 -0.08813699 0.73770597
vn 0.34794461 0.59122424 0.72759085
vn 0.44679435 0.52054935 0.72760097
vn 0.00000000 0.63780158 0.77020072
vn 0.48196635 0.53683650 0.69247023
vn 0.32203570 0.67796962 0.66079513
vn -0.31877927 -0.55229473 0.77029235
vn 0.28540031 0.68938569 0.66580330
vn -0.00000000 -0.63780158 0.77020072
vn 0.31877927 -0.55229473 0.77029235
vn 0.00000000 -0.68600977 0.72759233
vn 0.55229473 0.31877927 0.77029235
vn 0.12104144 -0.67523782 0.72760075
vn 0.23824697 -0.64332969 0.72757493
vn 0.00000000 0.63780158 0.77020072
vn 0.31877927 0.55229473 0.77029235
vn -0.63780158 0.00000000 0.77020072
vn -0.12104144 -0.67523782 0.72760075
vn 0.08080416 0.72590385 0.68303316
vn 0.08813699 0.66934429 0.73770597
vn -0.31877927 0.55229473 0.77029235
vn -0.55229473 0.31877927 0.77029235
vn -0.63780158 0.00000000 0.77020072
vn -0.55228724 -0.31888064 0.77025576
vn -0.08080416 -0.72590385 0.68303316
vn -0.31877927 -0.55229473 0.77029235
vn -0.32203570 -0.67796962 0.66079513
vn -0.55229473 -0.31877927 0.77029235
vn 0.68938569 0.28540031 0.66580330
vn 0.52772150 0.52772150 0.66559751
vn 0.44679435 -0.52054935 0.72760097
vn 0.34794461 -0.59122424 0.72759085
vn -0.31877927 0.55229473 0.77029235
vn -0.48196635 0.53683650 0.69247023
vn -0.55229473 0.31877927 0.77029235
vn -0.44679435 0.52054935 0.72760097
vn -0.63780158 0.00000000 0.77020072
vn -0.34794461 0.59122424 0.72759085
vn -0.32203570 0.67796962 0.66079513
vn -0.08080416 0.72590385 0.68303316
vn -0.08813699 0.66934429 0.73770597
vn 0.00000000 0.63780158 0.77020072
vn 0.31877927 0.55229473 0.77029235
vn 0.55229473 0.31877927 0.77029235
vn 0.63780158 -0.00000000 0.77020072
vn -0.68938569 0.28540031 0.66580330
vn 0.55229473 -0.31877927 0.77029235
vn -0.52772150 0.52772150 0.66559751
vn -0.31877927 -0.55229473 0.77029235
vn -0.55229473 -0.31877927 0.77029235
vn -0.66934429 0.08813699 0.73770597
vn -0.23824697 -0.64332969 0.72757493
vn -0.34794461 -0.59122424 0.72759085
vn -0.55229473 -0.31877927 0.77029235
vn -0.44679435 -0.52054935 0.72760097
vn -0.48196635 -0.53683650 0.69247023
vn -0.28540031 0.68938569 0.66580330
vn 0.31877927 -0.55229473 0.77029235
vn -0.00000000 -0.63780158 0.77020072
vn -0.00000000 0.68600977 0.72759233
vn -0.12104144 0.67523782 0.72760075
vn -0.23824697 0.64332969 0.72757493
vn 0.61268577 0.29502229 0.73319711
vn 0.66297509 0.15131687 0.73318977
vn -0.27879512 -0.58693685 0.76011737
vn 0.07526970 0.67618502 0.73287672
vn 0.27879512 0.58693685 0.76011737
vn -0.07526970 -0.67618502 0.73287672
vn -0.09585728 -0.72797497 0.67886952
vn 0.27879512 -0.58693685 0.76011737
vn 0.07526970 -0.67618502 0.73287672
vn 0.09585728 -0.72797497 0.67886952
vn 0.37859481 -0.65570955 0.65323117
vn 0.72797497 0.09585728 0.67886952
vn 0.65570955 0.37859481 0.65323117
vn 0.37859481 0.65570955 0.65323117
vn -0.27879512 0.58693685 0.76011737
vn -0.07526970 0.67618502 0.73287672
vn -0.09585728 0.72797497 0.67886952
vn -0.37859481 0.65570955 0.65323117
vn 0.65570955 -0.37859481 0.65323117
vn 0.72797497 -0.09585728 0.67886952
vn 0.09585728 0.72797497 0.67886952
vn -0.65570955 -0.37859481 0.65323117
vn -0.37859481 -0.65570955 0.65323117
vn -0.72797497 -0.09585728 0.67886952
vn -0.72797497 0.09585728 0.67886952
vn -0.65570955 0.37859481 0.65323117
vn 0.53166238 0.42396682 0.73320341
vn -0.46197626 -0.51457061 0.72235381
vn 0.42396682 0.53166238 0.73320341
vn -0.47284260 -0.55089754 0.68770036
vn 0.29502229 0.61268577 0.73319711
vn -0.46197626 0.51457061 0.72235381
vn -0.47284260 0.55089754 0.68770036
vn -0.36821976 0.62567559 0.68770944
vn -0.25211901 0.68078786 0.68772371
vn 0.46197626 0.51457061 0.72235381
vn 0.47284260 0.55089754 0.68770036
vn -0.15131687 0.66297509 0.73318977
vn 0.25211901 -0.68078786 0.68772371
vn -0.29502229 0.61268577 0.73319711
vn 0.36821976 -0.62567559 0.68770944
vn -0.42396682 0.53166238 0.73320341
vn 0.47284260 -0.55089754 0.68770036
vn -0.53166238 0.42396682 0.73320341
vn 0.46197626 -0.51457061 0.72235381
vn -0.61268577 0.29502229 0.73319711
vn -0.66297509 0.15131687 0.73318977
vn -0.36821976 -0.62567559 0.68770944
vn -0.25211901 -0.68078786 0.68772371
vn 0.15131687 0.66297509 0.73318977
vn -0.12809812 -0.71460396 0.68770056
vn -0.00000000 0.68000747 0.73320518
vn 0.00000000 -0.72598730 0.68770811
vn 0.12809812 -0.71460396 0.68770056
vn 0.36821976 0.62567559 0.68770944
vn 0.25211901 0.68078786 0.68772371
vn 0.12809812 0.71460396 0.68770056
vn 0.00000000 0.72598730 0.68770811
vn -0.12809812 0.71460396 0.68770056
f 1//1 2//2 3//3
f 4//4 5//5 6//6
f 6//6 5//5 7//7
f 8//8 9//9 10//10
f 10//10 9//9 5//5
f 10//10 5//5 11//11
f 11//11 5//5 4//4
f 8//8 10//10 3//3
f 3//3 10//10 12//12
f 3//3 12//12 1//1
f 5//5 13//13 7//7
f 7//7 13//13 14//14
f 7//7 14//14 15//15
f 15//15 16//16 7//7
f 7//7 16//16 17//17
f 7//7 17//17 18//18
f 18//18 19//19 7//7
f 7//7 19//19 20//20
f 7//7 20//20 21//21
f 22//22 23//23 24//24
f 24//24 23//23 25//25
f 24//24 25//25 26//26
f 2//2 27//27 3//3
f 3//3 27//27 23//23
f 3//3 23//23 28//28
f 28//28 23//23 22//22
f 6//6 29//29 4//4
f 4//4 29//29 30//30
f 4//4 30//30 11//11
f 11//11 30//30 31//31
f 11//11 31//31 10//10
f 10//10 31//31 32//32
f 10//10 32//32 12//12
f 12//12 32//32 33//33
f 12//12 33//33 1//1
f 1//1 33//33 34//34
f 1//1 34//34 2//2
f 2//2 34//34 35//35
f 2//2 35//35 27//27
f 27//27 35//35 36//36
f 27//27 36//36 23//23
f 23//23 36//36 37//37
f 23//23 37//37 25//25
f 25//25 37//37 38//38
f 25//25 38//38 26//26
f 26//26 38//38 39//39
f 26//26 39//39 24//24
f 24//24 39//39 40//40
f 24//24 40//40 22//22
f 22//22 40//40 41//41
f 22//22 41//41 28//28
f 28//28 41//41 42//42
f 28//28 42//42 3//3
f 3//3 42//42 43//43
f 44//44 45//45 46//46
f 46//46 45//45 47//47
f 45//45 44//44 48//48
f 45//45 48//48 49//49
f 49//49 48//48 50//50
f 49//49 50//50 51//51
f 51//51 50//50 52//52
f 51//51 52//52 53//53
f 54//54 55//55 56//56
f 54//54 56//56 57//57
f 57//57 56//56 58//58
f 57//57 58//58 59//59
f 59//59 58//58 46//46
f 59//59 46//46 47//47
f 53//53 52//52 60//60
f 60//60 52//52 61//61
f 55//55 54//54 62//62
f 62//62 54//54 63//63
f 60//60 61//61 64//64
f 60//60 64//64 65//65
f 65//65 64//64 66//66
f 65//65 66//66 67//67
f 67//67 66//66 68//68
f 67//67 68//68 69//69
f 70//70 71//71 72//72
f 70//70 72//72 73//73
f 73//73 72//72 74//74
f 73//73 74//74 75//75
f 75//75 74//74 62//62
f 75//75 62//62 63//63
f 71//71 70//70 68//68
f 68//68 70//70 69//69
f 60//60 65//65 67//67
f 73//73 75//75 70//70
f 70//70 75//75 63//63
f 70//70 63//63 69//69
f 54//54 57//57 59//59
f 49//49 51//51 45//45
f 45//45 51//51 53//53
f 45//45 53//53 60//60
f 67//67 69//69 60//60
f 60//60 69//69 63//63
f 60//60 63//63 45//45
f 45//45 63//63 54//54
f 45//45 54//54 47//47
f 47//47 54//54 59//59
f 68//68 76//76 71//71
f 71//71 76//76 77//77
f 61//61 78//78 79//79
f 61//61 79//79 64//64
f 64//64 79//79 80//80
f 64//64 80//80 66//66
f 66//66 80//80 76//76
f 66//66 76//76 68//68
f 52//52 81//81 61//61
f 61//61 81//81 78//78
f 82//82 83//83 84//84
f 82//82 84//84 44//44
f 44//44 84//84 48//48
f 48//48 84//84 85//85
f 48//48 85//85 50//50
f 50//50 85//85 81//81
f 50//50 81//81 52//52
f 46//46 86//86 44//44
f 44//44 86//86 82//82
f 55//55 87//87 88//88
f 89//89 90//90 86//86
f 55//55 88//88 56//56
f 56//56 88//88 89//89
f 56//56 89//89 58//58
f 58//58 89//89 86//86
f 58//58 86//86 46//46
f 62//62 91//91 55//55
f 55//55 91//91 87//87
f 71//71 77//77 92//92
f 71//71 92//92 72//72
f 72//72 92//92 93//93
f 72//72 93//93 74//74
f 74//74 93//93 91//91
f 74//74 91//91 62//62
f 94//94 95//95 96//96
f 96//96 95//95 97//97
f 96//96 97//97 98//98
f 98//98 97//97 99//99
f 100//100 101//101 102//102
f 103//103 104//104 105//105
f 105//105 104//104 106//106
f 99//99 107//107 108//108
f 109//109 106//106 110//110
f 111//111 112//112 113//113
f 113//113 112//112 100//100
f 113//113 100//100 114//114
f 114//114 100//100 102//102
f 115//115 116//116 117//117
f 118//118 119//119 101//101
f 101//101 119//119 120//120
f 101//101 120//120 102//102
f 102//102 120//120 121//121
f 102//102 121//121 122//122
f 122//122 121//121 123//123
f 122//122 123//123 124//124
f 123//123 125//125 126//126
f 126//126 125//125 127//127
f 126//126 127//127 128//128
f 128//128 127//127 129//129
f 128//128 129//129 130//130
f 130//130 129//129 131//131
f 110//110 132//132 109//109
f 109//109 132//132 133//133
f 109//109 133//133 134//134
f 134//134 133//133 135//135
f 134//134 135//135 136//136
f 136//136 135//135 137//137
f 138//138 139//139 140//140
f 96//96 117//117 94//94
f 94//94 117//117 116//116
f 94//94 116//116 141//141
f 141//141 116//116 142//142
f 141//141 142//142 111//111
f 111//111 142//142 143//143
f 111//111 143//143 112//112
f 105//105 144//144 103//103
f 103//103 144//144 145//145
f 103//103 145//145 146//146
f 146//146 145//145 115//115
f 146//146 115//115 147//147
f 147//147 115//115 117//117
f 104//104 148//148 106//106
f 106//106 148//148 149//149
f 106//106 149//149 110//110
f 110//110 149//149 150//150
f 110//110 150//150 108//108
f 108//108 150//150 151//151
f 108//108 151//151 99//99
f 99//99 151//151 152//152
f 99//99 152//152 98//98
f 129//129 140//140 131//131
f 131//131 140//140 139//139
f 131//131 139//139 137//137
f 137//137 139//139 153//153
f 137//137 153//153 136//136
f 101//101 154//154 118//118
f 118//118 154//154 155//155
f 118//118 155//155 156//156
f 156//156 155//155 157//157
f 156//156 157//157 158//158
f 158//158 157//157 138//138
f 158//158 138//138 159//159
f 159//159 138//138 140//140
f 123//123 126//126 124//124
f 124//124 126//126 160//160
f 124//124 160//160 107//107
f 107//107 160//160 161//161
f 107//107 161//161 108//108
f 148//148 162//162 149//149
f 149//149 162//162 163//163
f 149//149 163//163 150//150
f 150//150 163//163 164//164
f 150//150 164//164 151//151
f 151//151 164//164 165//165
f 151//151 165//165 152//152
f 152//152 165//165 166//166
f 152//152 166//166 98//98
f 98//98 166//166 167//167
f 98//98 167//167 96//96
f 96//96 167//167 168//168
f 169//169 170//170 171//171
f 172//172 173//173 174//174
f 174//174 173//173 175//175
f 174//174 175//175 82//82
f 82//82 175//175 83//83
f 176//176 177//177 178//178
f 179//179 180//180 181//181
f 181//181 180//180 182//182
f 181//181 182//182 183//183
f 183//183 182//182 184//184
f 183//183 184//184 162//162
f 162//162 184//184 185//185
f 162//162 185//185 163//163
f 163//163 185//185 86//86
f 163//163 86//86 164//164
f 186//186 187//187 188//188
f 189//189 190//190 191//191
f 192//192 193//193 194//194
f 194//194 193//193 195//195
f 194//194 195//195 196//196
f 90//90 197//197 86//86
f 86//86 197//197 198//198
f 86//86 198//198 164//164
f 164//164 198//198 199//199
f 164//164 199//199 165//165
f 165//165 199//199 200//200
f 165//165 200//200 166//166
f 201//201 202//202 203//203
f 204//204 205//205 206//206
f 206//206 205//205 207//207
f 206//206 207//207 208//208
f 208//208 207//207 209//209
f 208//208 209//209 210//210
f 210//210 209//209 169//169
f 210//210 169//169 211//211
f 211//211 169//169 171//171
f 212//212 213//213 214//214
f 178//178 215//215 176//176
f 176//176 215//215 216//216
f 176//176 216//216 217//217
f 217//217 216//216 218//218
f 217//217 218//218 219//219
f 220//220 221//221 222//222
f 222//222 221//221 196//196
f 222//222 196//196 223//223
f 223//223 196//196 195//195
f 224//224 225//225 226//226
f 226//226 225//225 168//168
f 226//226 168//168 227//227
f 181//181 228//228 179//179
f 179//179 228//228 229//229
f 179//179 229//229 206//206
f 206//206 229//229 225//225
f 206//206 225//225 204//204
f 204//204 225//225 224//224
f 204//204 224//224 230//230
f 230//230 224//224 231//231
f 219//219 232//232 217//217
f 217//217 232//232 233//233
f 217//217 233//233 234//234
f 234//234 233//233 172//172
f 234//234 172//172 235//235
f 235//235 172//172 174//174
f 235//235 174//174 236//236
f 203//203 202//202 213//213
f 213//213 202//202 237//237
f 213//213 237//237 214//214
f 201//201 203//203 238//238
f 238//238 203//203 239//239
f 238//238 239//239 240//240
f 236//236 174//174 241//241
f 241//241 174//174 242//242
f 241//241 242//242 220//220
f 220//220 242//242 243//243
f 220//220 243//243 221//221
f 200//200 186//186 166//166
f 166//166 186//186 188//188
f 166//166 188//188 167//167
f 167//167 188//188 244//244
f 167//167 244//244 168//168
f 168//168 244//244 245//245
f 168//168 245//245 227//227
f 246//246 247//247 248//248
f 248//248 247//247 249//249
f 248//248 249//249 250//250
f 250//250 249//249 251//251
f 252//252 247//247 253//253
f 253//253 247//247 246//246
f 253//253 246//246 254//254
f 254//254 246//246 255//255
f 254//254 255//255 190//190
f 190//190 255//255 256//256
f 190//190 256//256 191//191
f 256//256 257//257 191//191
f 191//191 257//257 258//258
f 191//191 258//258 259//259
f 259//259 258//258 260//260
f 259//259 260//260 261//261
f 194//194 262//262 263//263
f 170//170 212//212 171//171
f 171//171 212//212 214//214
f 171//171 214//214 191//191
f 191//191 214//214 264//264
f 191//191 264//264 189//189
f 231//231 265//265 230//230
f 230//230 265//265 266//266
f 230//230 266//266 267//267
f 267//267 266//266 268//268
f 267//267 268//268 239//239
f 239//239 268//268 269//269
f 239//239 269//269 240//240
f 261//261 260//260 270//270
f 270//270 260//260 271//271
f 270//270 271//271 194//194
f 194//194 271//271 272//272
f 194//194 272//272 262//262
f 176//176 192//192 177//177
f 177//177 192//192 194//194
f 177//177 194//194 273//273
f 273//273 194//194 263//263
f 273//273 263//263 274//274
f 274//274 263//263 250//250
f 274//274 250//250 275//275
f 275//275 250//250 251//251
f 133//133 236//236 135//135
f 135//135 236//236 241//241
f 135//135 241//241 137//137
f 137//137 241//241 220//220
f 137//137 220//220 131//131
f 131//131 220//220 222//222
f 131//131 222//222 130//130
f 130//130 222//222 223//223
f 130//130 223//223 128//128
f 128//128 223//223 195//195
f 128//128 195//195 126//126
f 126//126 195//195 193//193
f 129//129 250//250 140//140
f 140//140 250//250 263//263
f 140//140 263//263 159//159
f 159//159 263//263 262//262
f 159//159 262//262 158//158
f 158//158 262//262 272//272
f 158//158 272//272 156//156
f 156//156 272//272 271//271
f 156//156 271//271 118//118
f 118//118 271//271 260//260
f 118//118 260//260 119//119
f 119//119 260//260 258//258
f 99//99 230//230 107//107
f 107//107 230//230 267//267
f 107//107 267//267 124//124
f 124//124 267//267 239//239
f 124//124 239//239 122//122
f 122//122 239//239 203//203
f 122//122 203//203 102//102
f 102//102 203//203 213//213
f 102//102 213//213 114//114
f 114//114 213//213 212//212
f 114//114 212//212 113//113
f 113//113 212//212 170//170
f 116//116 206//206 208//208
f 116//116 208//208 142//142
f 142//142 208//208 210//210
f 142//142 210//210 143//143
f 143//143 210//210 211//211
f 143//143 211//211 112//112
f 112//112 211//211 171//171
f 112//112 171//171 100//100
f 171//171 191//191 100//100
f 100//100 191//191 101//101
f 101//101 191//191 259//259
f 101//101 259//259 154//154
f 154//154 259//259 261//261
f 154//154 261//261 155//155
f 155//155 261//261 270//270
f 155//155 270//270 157//157
f 157//157 270//270 194//194
f 157//157 194//194 138//138
f 194//194 196//196 138//138
f 138//138 196//196 139//139
f 139//139 196//196 221//221
f 139//139 221//221 153//153
f 153//153 221//221 243//243
f 153//153 243//243 136//136
f 136//136 243//243 242//242
f 136//136 242//242 134//134
f 134//134 242//242 174//174
f 134//134 174//174 109//109
f 86//86 185//185 106//106
f 86//86 106//106 82//82
f 82//82 106//106 109//109
f 82//82 109//109 174//174
f 106//106 185//185 184//184
f 106//106 184//184 105//105
f 105//105 184//184 182//182
f 105//105 182//182 144//144
f 144//144 182//182 180//180
f 144//144 180//180 145//145
f 145//145 180//180 179//179
f 145//145 179//179 115//115
f 179//179 206//206 115//115
f 115//115 206//206 116//116
f 276//276 277//277 278//278
f 29//29 279//279 30//30
f 30//30 279//279 280//280
f 30//30 280//280 31//31
f 278//278 277//277 281//281
f 281//281 277//277 43//43
f 281//281 43//43 282//282
f 283//283 284//284 29//29
f 29//29 284//284 285//285
f 29//29 285//285 286//286
f 287//287 288//288 289//289
f 290//290 291//291 43//43
f 43//43 291//291 292//292
f 43//43 292//292 293//293
f 286//286 294//294 29//29
f 29//29 294//294 295//295
f 29//29 295//295 279//279
f 279//279 295//295 287//287
f 279//279 287//287 296//296
f 296//296 287//287 289//289
f 297//297 298//298 299//299
f 299//299 298//298 282//282
f 299//299 282//282 300//300
f 300//300 282//282 43//43
f 300//300 43//43 301//301
f 301//301 43//43 293//293
f 276//276 278//278 302//302
f 302//302 278//278 303//303
f 302//302 303//303 304//304
f 304//304 303//303 305//305
f 304//304 305//305 306//306
f 43//43 42//42 290//290
f 290//290 42//42 41//41
f 290//290 41//41 307//307
f 307//307 41//41 40//40
f 307//307 40//40 308//308
f 308//308 40//40 39//39
f 308//308 39//39 309//309
f 309//309 39//39 38//38
f 309//309 38//38 310//310
f 310//310 38//38 37//37
f 31//31 280//280 32//32
f 32//32 280//280 311//311
f 32//32 311//311 33//33
f 33//33 311//311 312//312
f 33//33 312//312 34//34
f 313//313 314//314 315//315
f 315//315 314//314 316//316
f 315//315 316//316 317//317
f 317//317 316//316 318//318
f 317//317 318//318 319//319
f 319//319 318//318 320//320
f 319//319 320//320 321//321
f 321//321 320//320 283//283
f 321//321 283//283 322//322
f 322//322 283//283 29//29
f 305//305 323//323 306//306
f 306//306 323//323 324//324
f 306//306 324//324 325//325
f 325//325 324//324 326//326
f 325//325 326//326 327//327
f 327//327 326//326 328//328
f 327//327 328//328 313//313
f 313//313 328//328 329//329
f 313//313 329//329 314//314
f 312//312 330//330 34//34
f 34//34 330//330 331//331
f 34//34 331//331 35//35
f 35//35 331//331 332//332
f 35//35 332//332 36//36
f 36//36 332//332 333//333
f 36//36 333//333 37//37
f 37//37 333//333 334//334
f 37//37 334//334 310//310
f 279//279 296//296 232//232
f 232//232 296//296 233//233
f 218//218 311//311 219//219
f 219//219 311//311 280//280
f 219//219 280//280 232//232
f 232//232 280//280 279//279
f 247//247 307//307 308//308
f 247//247 308//308 249//249
f 249//249 308//308 309//309
f 249//249 309//309 251//251
f 251//251 309//309 310//310
f 251//251 310//310 275//275
f 275//275 310//310 334//334
f 275//275 334//334 274//274
f 274//274 334//334 333//333
f 274//274 333//333 273//273
f 273//273 333//333 332//332
f 273//273 332//332 177//177
f 177//177 332//332 331//331
f 177//177 331//331 178//178
f 178//178 331//331 330//330
f 178//178 330//330 215//215
f 215//215 330//330 312//312
f 215//215 312//312 216//216
f 216//216 312//312 311//311
f 216//216 311//311 218//218
f 253//253 291//291 252//252
f 252//252 291//291 290//290
f 252//252 290//290 247//247
f 247//247 290//290 307//307
f 292//292 291//291 254//254
f 254//254 291//291 253//253
f 264//264 300//300 301//301
f 264//264 301//301 189//189
f 189//189 301//301 293//293
f 189//189 293//293 190//190
f 190//190 293//293 292//292
f 190//190 292//292 254//254
f 299//299 300//300 214//214
f 214//214 300//300 264//264
f 201//201 282//282 298//298
f 201//201 298//298 202//202
f 202//202 298//298 297//297
f 202//202 297//297 237//237
f 237//237 297//297 299//299
f 237//237 299//299 214//214
f 281//281 282//282 238//238
f 238//238 282//282 201//201
f 269//269 303//303 240//240
f 240//240 303//303 278//278
f 240//240 278//278 238//238
f 238//238 278//278 281//281
f 188//188 320//320 318//318
f 188//188 318//318 244//244
f 244//244 318//318 316//316
f 244//244 316//316 245//245
f 245//245 316//316 314//314
f 245//245 314//314 227//227
f 227//227 314//314 329//329
f 227//227 329//329 226//226
f 226//226 329//329 328//328
f 226//226 328//328 224//224
f 224//224 328//328 326//326
f 224//224 326//326 231//231
f 231//231 326//326 324//324
f 231//231 324//324 265//265
f 265//265 324//324 323//323
f 265//265 323//323 266//266
f 266//266 323//323 305//305
f 266//266 305//305 268//268
f 268//268 305//305 303//303
f 268//268 303//303 269//269
f 186//186 284//284 187//187
f 187//187 284//284 283//283
f 187//187 283//283 188//188
f 188//188 283//283 320//320
f 285//285 284//284 200//200
f 200//200 284//284 186//186
f 91//91 295//295 294//294
f 197//197 87//87 198//198
f 198//198 87//87 91//91
f 91//91 294//294 198//198
f 198//198 294//294 286//286
f 198//198 286//286 199//199
f 199//199 286//286 285//285
f 199//199 285//285 200//200
f 81//81 175//175 173//173
f 233//233 296//296 289//289
f 288//288 287//287 78//78
f 233//233 289//289 172//172
f 172//172 289//289 288//288
f 172//172 288//288 173//173
f 173//173 288//288 78//78
f 173//173 78//78 81//81
f 79//79 78//78 287//287
f 295//295 91//91 93//93
f 79//79 287//287 80//80
f 93//93 92//92 295//295
f 295//295 92//92 77//77
f 295//295 77//77 287//287
f 287//287 77//77 76//76
f 287//287 76//76 80//80
f 81//81 85//85 175//175
f 175//175 85//85 84//84
f 175//175 84//84 83//83
f 90//90 89//89 197//197
f 197//197 89//89 88//88
f 197//197 88//88 87//87
f 113//113 170//170 111//111
f 111//111 170//170 169//169
f 111//111 169//169 141//141
f 141//141 169//169 209//209
f 141//141 209//209 94//94
f 94//94 209//209 207//207
f 94//94 207//207 95//95
f 95//95 207//207 205//205
f 95//95 205//205 97//97
f 97//97 205//205 204//204
f 97//97 204//204 99//99
f 99//99 204//204 230//230
f 119//119 258//258 120//120
f 120//120 258//258 257//257
f 120//120 257//257 121//121
f 121//121 257//257 256//256
f 121//121 256//256 123//123
f 123//123 256//256 255//255
f 123//123 255//255 125//125
f 125//125 255//255 246//246
f 125//125 246//246 127//127
f 127//127 246//246 248//248
f 127//127 248//248 129//129
f 129//129 248//248 250//250
f 126//126 193//193 160//160
f 160//160 193//193 192//192
f 160//160 192//192 161//161
f 161//161 192//192 176//176
f 161//161 176//176 108//108
f 108//108 176//176 217//217
f 108//108 217//217 110//110
f 110//110 217//217 234//234
f 110//110 234//234 132//132
f 132//132 234//234 235//235
f 132//132 235//235 133//133
f 133//133 235//235 236//236
f 96//96 168//168 117//117
f 117//117 168//168 225//225
f 117//117 225//225 147//147
f 147//147 225//225 229//229
f 147//147 229//229 146//146
f 146//146 229//229 228//228
f 146//146 228//228 103//103
f 103//103 228//228 181//181
f 103//103 181//181 104//104
f 104//104 181//181 183//183
f 104//104 183//183 148//148
f 148//148 183//183 162//162
f 3//3 43//43 8//8
f 8//8 43//43 277//277
f 8//8 277//277 9//9
f 9//9 277//277 276//276
f 9//9 276//276 5//5
f 5//5 276//276 302//302
f 5//5 302//302 13//13
f 13//13 302//302 304//304
f 13//13 304//304 14//14
f 14//14 304//304 306//306
f 14//14 306//306 15//15
f 15//15 306//306 325//325
f 15//15 325//325 16//16
f 16//16 325//325 327//327
f 16//16 327//327 17//17
f 17//17 327//327 313//313
f 17//17 313//313 18//18
f 18//18 313//313 315//315
f 18//18 315//315 19//19
f 19//19 315//315 317//317
f 19//19 317//317 20//20
f 20//20 317//317 319//319
f 20//20 319//319 21//21
f 21//21 319//319 321//321
f 21//21 321//321 7//7
f 7//7 321//321 322//322
f 7//7 322//322 6//6
f 6//6 322//322 29//29

