# https://github.com/mikedh/trimesh

o link_2.obj
v 0.01135200 -0.03432500 0.01775000
v 0.01389200 -0.03232500 0.01775000
v 0.01368100 -0.03432500 0.02072600
v 0.01525600 -0.03232500 0.01949400
v 0.01590300 -0.03232500 0.02083100
v 0.01395800 -0.03432500 0.02130000
v 0.01593600 -0.03232500 0.02231700
v 0.01397300 -0.03432500 0.02193600
v 0.01535000 -0.03232500 0.02368300
v 0.01372100 -0.03432500 0.02252100
v 0.01425000 -0.03232500 0.02468200
v 0.01325000 -0.03432500 0.02295000
v 0.00880700 -0.03232500 0.02710500
v 0.00818900 -0.03432500 0.02520300
v 0.00000000 -0.03232500 0.02850000
v 0.00000000 -0.03432500 0.02650000
v -0.00460200 -0.03432500 0.02609700
v -0.00494900 -0.03232500 0.02806700
v -0.03100000 -0.03432500 0.02144300
v -0.03134700 -0.03232500 0.02341200
v -0.03422200 -0.03155500 0.02290500
v -0.03487500 -0.03328700 0.02093600
v -0.03283600 -0.03212900 0.02315000
v -0.03300600 -0.03406100 0.02118000
v -0.05841900 -0.01969300 0.01678400
v -0.05776700 -0.01796100 0.01875400
v -0.05908400 -0.01941800 0.01658200
v -0.06014200 -0.01732500 0.01833500
v -0.05979400 -0.01932500 0.01636500
v -0.06366900 -0.01932500 0.01568200
v -0.06401600 -0.01732500 0.01765200
v -0.06575200 -0.01732500 0.01750000
v -0.06575200 -0.01932500 0.01550000
v -0.19824800 -0.01932500 0.01550000
v -0.19824800 -0.01732500 0.01750000
v -0.19998400 -0.01732500 0.01765200
v -0.20033100 -0.01932500 0.01568200
v -0.20420600 -0.01932500 0.01636500
v -0.20385800 -0.01732500 0.01833500
v -0.20623300 -0.01796100 0.01875400
v -0.20558100 -0.01969300 0.01678400
v -0.20491600 -0.01941800 0.01658200
v -0.22912500 -0.03328700 0.02093600
v -0.22977800 -0.03155500 0.02290500
v -0.23265300 -0.03232500 0.02341200
v -0.23300000 -0.03432500 0.02144300
v -0.23116500 -0.03212900 0.02315000
v -0.23099400 -0.03406100 0.02118000
v -0.25939800 -0.03432500 0.02609700
v -0.25905100 -0.03232500 0.02806700
v -0.26400000 -0.03232500 0.02850000
v -0.26400000 -0.03432500 0.02650000
v -0.27725000 -0.03432500 0.02295000
v -0.27825000 -0.03232500 0.02468200
v -0.27935000 -0.03232500 0.02368300
v -0.27772100 -0.03432500 0.02252100
v -0.27993600 -0.03232500 0.02231700
v -0.27797300 -0.03432500 0.02193600
v -0.27990300 -0.03232500 0.02083100
v -0.27795800 -0.03432500 0.02130000
v -0.27925600 -0.03232500 0.01949400
v -0.27768100 -0.03432500 0.02072600
v -0.27535200 -0.03432500 0.01775000
v -0.27789200 -0.03232500 0.01775000
v -0.27925600 -0.03232500 -0.01949400
v -0.27768100 -0.03432500 -0.02072600
v -0.27789200 -0.03232500 -0.01775000
v -0.27535200 -0.03432500 -0.01775000
v -0.27990300 -0.03232500 -0.02083100
v -0.27795800 -0.03432500 -0.02130000
v -0.27993600 -0.03232500 -0.02231700
v -0.27797300 -0.03432500 -0.02193600
v -0.27935000 -0.03232500 -0.02368300
v -0.27772100 -0.03432500 -0.02252100
v -0.27825000 -0.03232500 -0.02468200
v -0.27725000 -0.03432500 -0.02295000
v -0.27280700 -0.03232500 -0.02710500
v -0.27160000 -0.03432500 -0.02538700
v -0.25905100 -0.03232500 -0.02806700
v -0.25939800 -0.03432500 -0.02609700
v -0.26400000 -0.03232500 -0.02850000
v -0.26554100 -0.03432500 -0.02645500
v -0.26565700 -0.03232500 -0.02845200
v -0.27217400 -0.03232500 -0.02730300
v -0.23300000 -0.03432500 -0.02144300
v -0.23265300 -0.03232500 -0.02341200
v -0.23099400 -0.03406100 -0.02118000
v -0.23116500 -0.03212900 -0.02315000
v -0.22912500 -0.03328700 -0.02093600
v -0.22977800 -0.03155500 -0.02290500
v -0.20558100 -0.01969300 -0.01678400
v -0.20623300 -0.01796100 -0.01875400
v -0.20385800 -0.01732500 -0.01833500
v -0.20420600 -0.01932500 -0.01636500
v -0.20033100 -0.01932500 -0.01568200
v -0.19998400 -0.01732500 -0.01765200
v -0.19824800 -0.01732500 -0.01750000
v -0.19824800 -0.01932500 -0.01550000
v -0.06575200 -0.01932500 -0.01550000
v -0.06575200 -0.01732500 -0.01750000
v -0.06401600 -0.01732500 -0.01765200
v -0.06366900 -0.01932500 -0.01568200
v -0.05979400 -0.01932500 -0.01636500
v -0.06014200 -0.01732500 -0.01833500
v -0.05776700 -0.01796100 -0.01875400
v -0.05841900 -0.01969300 -0.01678400
v -0.03487500 -0.03328700 -0.02093600
v -0.03422200 -0.03155500 -0.02290500
v -0.03300600 -0.03406100 -0.02118000
v -0.03283600 -0.03212900 -0.02315000
v -0.03100000 -0.03432500 -0.02144300
v -0.03134700 -0.03232500 -0.02341200
v -0.00460200 -0.03432500 -0.02609700
v -0.00494900 -0.03232500 -0.02806700
v 0.00000000 -0.03232500 -0.02850000
v 0.00154100 -0.03432500 -0.02645500
v 0.01425000 -0.03232500 -0.02468200
v 0.01325000 -0.03432500 -0.02295000
v 0.00880700 -0.03232500 -0.02710500
v 0.00760000 -0.03432500 -0.02538700
v 0.00817400 -0.03232500 -0.02730300
v 0.00165700 -0.03232500 -0.02845200
v 0.01535000 -0.03232500 -0.02368300
v 0.01372100 -0.03432500 -0.02252100
v 0.01593600 -0.03232500 -0.02231700
v 0.01397300 -0.03432500 -0.02193600
v 0.01590300 -0.03232500 -0.02083100
v 0.01395800 -0.03432500 -0.02130000
v 0.01525600 -0.03232500 -0.01949400
v 0.01368100 -0.03432500 -0.02072600
v 0.01135200 -0.03432500 -0.01775000
v 0.01389200 -0.03232500 -0.01775000
v -0.27768100 0.03432500 -0.02072600
v -0.27925600 0.03232500 -0.01949400
v -0.27535200 0.03432500 -0.01775000
v -0.27789200 0.03232500 -0.01775000
v -0.27725000 0.03432500 -0.02295000
v -0.27825000 0.03232500 -0.02468200
v -0.27935000 0.03232500 -0.02368300
v -0.27772100 0.03432500 -0.02252100
v -0.27993600 0.03232500 -0.02231700
v -0.27797300 0.03432500 -0.02193600
v -0.28000000 0.03232500 -0.02165100
v -0.27795800 0.03432500 -0.02130000
v -0.27990300 0.03232500 -0.02083100
v -0.25905100 0.03232500 -0.02806700
v -0.26400000 0.03232500 -0.02850000
v -0.25939800 0.03432500 -0.02609700
v -0.26400000 0.03432500 -0.02650000
v -0.23265300 0.03232500 -0.02341200
v -0.23300000 0.03432500 -0.02144300
v -0.22912500 0.03328700 -0.02093600
v -0.22977800 0.03155500 -0.02290500
v -0.23099400 0.03406100 -0.02118000
v -0.23116500 0.03212900 -0.02315000
v -0.20623300 0.01796100 -0.01875400
v -0.20558100 0.01969300 -0.01678400
v -0.20385800 0.01732500 -0.01833500
v -0.20491600 0.01941800 -0.01658200
v -0.20420600 0.01932500 -0.01636500
v -0.19998400 0.01732500 -0.01765200
v -0.20033100 0.01932500 -0.01568200
v -0.19824800 0.01732500 -0.01750000
v -0.19824800 0.01932500 -0.01550000
v -0.06575200 0.01732500 -0.01750000
v -0.06575200 0.01932500 -0.01550000
v -0.06401600 0.01732500 -0.01765200
v -0.06366900 0.01932500 -0.01568200
v -0.06014200 0.01732500 -0.01833500
v -0.05979400 0.01932500 -0.01636500
v -0.05841900 0.01969300 -0.01678400
v -0.05776700 0.01796100 -0.01875400
v -0.05908400 0.01941800 -0.01658200
v -0.03422200 0.03155500 -0.02290500
v -0.03487500 0.03328700 -0.02093600
v -0.03100000 0.03432500 -0.02144300
v -0.03134700 0.03232500 -0.02341200
v -0.03300600 0.03406100 -0.02118000
v -0.03283600 0.03212900 -0.02315000
v -0.00494900 0.03232500 -0.02806700
v -0.00460200 0.03432500 -0.02609700
v 0.01325000 0.03432500 -0.02295000
v 0.01425000 0.03232500 -0.02468200
v 0.00880700 0.03232500 -0.02710500
v 0.00818900 0.03432500 -0.02520300
v 0.00000000 0.03232500 -0.02850000
v 0.00000000 0.03432500 -0.02650000
v 0.01368100 0.03432500 -0.02072600
v 0.01525600 0.03232500 -0.01949400
v 0.01590300 0.03232500 -0.02083100
v 0.01395800 0.03432500 -0.02130000
v 0.01593600 0.03232500 -0.02231700
v 0.01397300 0.03432500 -0.02193600
v 0.01535000 0.03232500 -0.02368300
v 0.01372100 0.03432500 -0.02252100
v 0.01389200 0.03232500 -0.01775000
v 0.01135200 0.03432500 -0.01775000
v -0.27535200 0.03432500 0.01775000
v -0.27789200 0.03232500 0.01775000
v -0.27768100 0.03432500 0.02072600
v -0.27925600 0.03232500 0.01949400
v -0.27990300 0.03232500 0.02083100
v -0.27795800 0.03432500 0.02130000
v -0.28000000 0.03232500 0.02165100
v -0.27797300 0.03432500 0.02193600
v -0.27993600 0.03232500 0.02231700
v -0.27953100 0.03232500 0.02340100
v -0.27772100 0.03432500 0.02252100
v -0.27935000 0.03232500 0.02368300
v -0.27825000 0.03232500 0.02468200
v -0.27725000 0.03432500 0.02295000
v -0.27280700 0.03232500 0.02710500
v -0.27160000 0.03432500 0.02538700
v -0.25905100 0.03232500 0.02806700
v -0.25939800 0.03432500 0.02609700
v -0.26400000 0.03232500 0.02850000
v -0.26554100 0.03432500 0.02645500
v -0.26565700 0.03232500 0.02845200
v -0.27217400 0.03232500 0.02730300
v -0.23300000 0.03432500 0.02144300
v -0.23265300 0.03232500 0.02341200
v -0.23099400 0.03406100 0.02118000
v -0.23116500 0.03212900 0.02315000
v -0.22912500 0.03328700 0.02093600
v -0.22977800 0.03155500 0.02290500
v -0.20558100 0.01969300 0.01678400
v -0.20623300 0.01796100 0.01875400
v -0.20385800 0.01732500 0.01833500
v -0.20420600 0.01932500 0.01636500
v -0.20033100 0.01932500 0.01568200
v -0.19998400 0.01732500 0.01765200
v -0.19824800 0.01732500 0.01750000
v -0.19824800 0.01932500 0.01550000
v -0.06575200 0.01932500 0.01550000
v -0.06575200 0.01732500 0.01750000
v -0.06401600 0.01732500 0.01765200
v -0.06366900 0.01932500 0.01568200
v -0.05979400 0.01932500 0.01636500
v -0.06014200 0.01732500 0.01833500
v -0.05776700 0.01796100 0.01875400
v -0.05841900 0.01969300 0.01678400
v -0.03487500 0.03328700 0.02093600
v -0.03422200 0.03155500 0.02290500
v -0.03300600 0.03406100 0.02118000
v -0.03283600 0.03212900 0.02315000
v -0.03100000 0.03432500 0.02144300
v -0.03134700 0.03232500 0.02341200
v -0.00460200 0.03432500 0.02609700
v -0.00494900 0.03232500 0.02806700
v 0.00000000 0.03232500 0.02850000
v 0.00154100 0.03432500 0.02645500
v 0.01425000 0.03232500 0.02468200
v 0.01325000 0.03432500 0.02295000
v 0.00880700 0.03232500 0.02710500
v 0.00760000 0.03432500 0.02538700
v 0.00817400 0.03232500 0.02730300
v 0.00165700 0.03232500 0.02845200
v 0.01535000 0.03232500 0.02368300
v 0.01372100 0.03432500 0.02252100
v 0.01593600 0.03232500 0.02231700
v 0.01397300 0.03432500 0.02193600
v 0.01590300 0.03232500 0.02083100
v 0.01395800 0.03432500 0.02130000
v 0.01525600 0.03232500 0.01949400
v 0.01368100 0.03432500 0.02072600
v 0.01135200 0.03432500 0.01775000
v 0.01389200 0.03232500 0.01775000
v -0.27637400 -0.03632500 0.01237400
v -0.28016800 -0.03632500 0.00669700
v -0.28150000 -0.03632500 0.00000000
v -0.24650000 -0.03632500 0.00000000
v -0.24783200 -0.03632500 -0.00669700
v -0.28016800 -0.03632500 -0.00669700
v -0.27069700 -0.03632500 -0.01616800
v -0.26400000 -0.03632500 -0.01750000
v -0.25730300 -0.03632500 -0.01616800
v -0.25162600 -0.03632500 0.01237400
v -0.25730300 -0.03632500 0.01616800
v -0.26400000 -0.03632500 0.01750000
v -0.27637400 -0.03632500 -0.01237400
v -0.25162600 -0.03632500 -0.01237400
v -0.24783200 -0.03632500 0.00669700
v -0.27069700 -0.03632500 0.01616800
v -0.28150000 -0.02932500 0.00000000
v -0.28016800 -0.02932500 -0.00669700
v -0.27637400 -0.02932500 -0.01237400
v -0.27069700 -0.02932500 -0.01616800
v -0.26400000 -0.02932500 -0.01750000
v -0.25730300 -0.02932500 -0.01616800
v -0.25162600 -0.02932500 -0.01237400
v -0.24783200 -0.02932500 -0.00669700
v -0.24650000 -0.02932500 0.00000000
v -0.27935000 -0.02932500 0.02368300
v -0.27825000 -0.02932500 0.02468200
v -0.28075200 -0.02932500 0.02305700
v -0.27993600 -0.02932500 0.02231700
v -0.27789200 -0.02932500 -0.01775000
v -0.27990300 -0.02932500 0.02083100
v -0.28705700 -0.02932500 0.01675200
v -0.27925600 -0.02932500 0.01949400
v -0.29110500 -0.02932500 0.00880700
v -0.27789200 -0.02932500 0.01775000
v -0.29250000 -0.02932500 0.00000000
v -0.29110500 -0.02932500 -0.00880700
v -0.27825000 -0.02932500 -0.02468200
v -0.27935000 -0.02932500 -0.02368300
v -0.28075200 -0.02932500 -0.02305700
v -0.27993600 -0.02932500 -0.02231700
v -0.28705700 -0.02932500 -0.01675200
v -0.27990300 -0.02932500 -0.02083100
v -0.27925600 -0.02932500 -0.01949400
v -0.27049500 -0.02932500 -0.01775000
v -0.26821600 -0.02932500 -0.01801300
v -0.26159800 -0.02932500 -0.01834300
v -0.25528700 -0.02932500 -0.01632000
v -0.25009500 -0.02932500 -0.01220300
v -0.24668700 -0.02932500 -0.00652000
v -0.24550000 -0.02932500 -0.00000000
v -0.24783200 -0.02932500 0.00669700
v -0.24668700 -0.02932500 0.00652000
v -0.25162600 -0.02932500 0.01237400
v -0.25009500 -0.02932500 0.01220300
v -0.25730300 -0.02932500 0.01616800
v -0.28016800 -0.02932500 0.00669700
v -0.27637400 -0.02932500 0.01237400
v -0.27049500 -0.02932500 0.01775000
v -0.27069700 -0.02932500 0.01616800
v -0.26821600 -0.02932500 0.01801300
v -0.26400000 -0.02932500 0.01750000
v -0.26159800 -0.02932500 0.01834300
v -0.25528700 -0.02932500 0.01632000
v -0.27049500 -0.03432500 -0.01775000
v -0.26821600 -0.03432500 -0.01801300
v -0.26159800 -0.03432500 -0.01834300
v -0.25528700 -0.03432500 -0.01632000
v -0.25009500 -0.03432500 -0.01220300
v -0.24668700 -0.03432500 -0.00652000
v -0.24550000 -0.03432500 -0.00000000
v -0.26821600 -0.03432500 0.01801300
v -0.27049500 -0.03432500 0.01775000
v -0.24783200 0.03632500 0.00669700
v -0.24650000 0.03632500 0.00000000
v -0.28150000 0.03632500 0.00000000
v -0.24783200 0.03632500 -0.00669700
v -0.25162600 0.03632500 -0.01237400
v -0.25730300 0.03632500 -0.01616800
v -0.28016800 0.03632500 -0.00669700
v -0.27637400 0.03632500 -0.01237400
v -0.27069700 0.03632500 -0.01616800
v -0.26400000 0.03632500 -0.01750000
v -0.27637400 0.03632500 0.01237400
v -0.27069700 0.03632500 0.01616800
v -0.26400000 0.03632500 0.01750000
v -0.28016800 0.03632500 0.00669700
v -0.25162600 0.03632500 0.01237400
v -0.25730300 0.03632500 0.01616800
v -0.24650000 0.02932500 0.00000000
v -0.24783200 0.02932500 -0.00669700
v -0.25162600 0.02932500 -0.01237400
v -0.25730300 0.02932500 -0.01616800
v -0.26400000 0.02932500 -0.01750000
v -0.27069700 0.02932500 -0.01616800
v -0.27637400 0.02932500 -0.01237400
v -0.28016800 0.02932500 -0.00669700
v -0.28150000 0.02932500 0.00000000
v -0.27918100 0.02932500 -0.02390000
v -0.27825000 0.02932500 -0.02468200
v -0.28075200 0.02932500 -0.02305700
v -0.28016800 0.02932500 0.00669700
v -0.29250000 0.02932500 0.00000000
v -0.28075200 0.02932500 0.02305700
v -0.27825000 0.02932500 0.02468200
v -0.27953100 0.02932500 0.02340100
v -0.27637400 0.02932500 0.01237400
v -0.28705700 0.02932500 0.01675200
v -0.27069700 0.02932500 0.01616800
v -0.27789200 0.02932500 0.01775000
v -0.26400000 0.02932500 0.01750000
v -0.27049500 0.02932500 0.01775000
v -0.28705700 0.02932500 -0.01675200
v -0.28000000 0.02932500 -0.02165100
v -0.27978900 0.02932500 -0.02284800
v -0.27925600 0.02932500 0.01949400
v -0.29110500 0.02932500 0.00880700
v -0.27980900 0.02932500 0.02051000
v -0.28000000 0.02932500 0.02165100
v -0.26821600 0.02932500 0.01801300
v -0.26086600 0.02932500 0.01823300
v -0.25730300 0.02932500 0.01616800
v -0.25401100 0.02932500 0.01557100
v -0.25162600 0.02932500 0.01237400
v -0.24873400 0.02932500 0.01045000
v -0.24783200 0.02932500 0.00669700
v -0.24586900 0.02932500 0.00367700
v -0.24586900 0.02932500 -0.00367700
v -0.24873400 0.02932500 -0.01045000
v -0.25401100 0.02932500 -0.01557100
v -0.26086600 0.02932500 -0.01823300
v -0.26821600 0.02932500 -0.01801300
v -0.27049500 0.02932500 -0.01775000
v -0.27789200 0.02932500 -0.01775000
v -0.29110500 0.02932500 -0.00880700
v -0.27925600 0.02932500 -0.01949400
v -0.27980900 0.02932500 -0.02051000
v -0.27049500 0.03432500 0.01775000
v -0.26821600 0.03432500 0.01801300
v -0.26086600 0.03432500 0.01823300
v -0.25401100 0.03432500 0.01557100
v -0.24873400 0.03432500 0.01045000
v -0.24586900 0.03432500 0.00367700
v -0.24586900 0.03432500 -0.00367700
v -0.24873400 0.03432500 -0.01045000
v -0.25401100 0.03432500 -0.01557100
v -0.26086600 0.03432500 -0.01823300
v -0.26821600 0.03432500 -0.01801300
v -0.27049500 0.03432500 -0.01775000
v -0.01616800 -0.03632500 -0.00669700
v -0.01237400 -0.03632500 -0.01237400
v -0.00669700 -0.03632500 -0.01616800
v 0.01616800 -0.03632500 -0.00669700
v 0.01750000 -0.03632500 -0.00000000
v 0.01237400 -0.03632500 -0.01237400
v -0.00669700 -0.03632500 0.01616800
v 0.00669700 -0.03632500 -0.01616800
v -0.01237400 -0.03632500 0.01237400
v -0.01616800 -0.03632500 0.00669700
v 0.00669700 -0.03632500 0.01616800
v 0.00000000 -0.03632500 0.01750000
v 0.01237400 -0.03632500 0.01237400
v 0.01616800 -0.03632500 0.00669700
v -0.01750000 -0.03632500 -0.00000000
v 0.00000000 -0.03632500 -0.01750000
v 0.00000000 -0.02932500 0.01750000
v -0.00669700 -0.02932500 0.01616800
v -0.01237400 -0.02932500 0.01237400
v -0.01616800 -0.02932500 0.00669700
v -0.01750000 -0.02932500 -0.00000000
v -0.01616800 -0.02932500 -0.00669700
v -0.01237400 -0.02932500 -0.01237400
v -0.00669700 -0.02932500 -0.01616800
v 0.00000000 -0.02932500 -0.01750000
v 0.01535000 -0.02932500 -0.02368300
v 0.01425000 -0.02932500 -0.02468200
v 0.01675200 -0.02932500 -0.02305700
v 0.01593600 -0.02932500 -0.02231700
v 0.01590300 -0.02932500 -0.02083100
v 0.02305700 -0.02932500 -0.01675200
v 0.01525600 -0.02932500 -0.01949400
v 0.01425000 -0.02932500 0.02468200
v 0.01535000 -0.02932500 0.02368300
v 0.01675200 -0.02932500 0.02305700
v 0.01593600 -0.02932500 0.02231700
v 0.02305700 -0.02932500 0.01675200
v 0.01590300 -0.02932500 0.02083100
v 0.02710500 -0.02932500 0.00880700
v 0.01525600 -0.02932500 0.01949400
v 0.02850000 -0.02932500 -0.00000000
v 0.01389200 -0.02932500 0.01775000
v 0.02710500 -0.02932500 -0.00880700
v 0.00669700 -0.02932500 0.01616800
v 0.01237400 -0.02932500 0.01237400
v 0.01616800 -0.02932500 0.00669700
v 0.01750000 -0.02932500 -0.00000000
v 0.01616800 -0.02932500 -0.00669700
v 0.00649500 -0.02932500 0.01775000
v 0.00421600 -0.02932500 0.01801300
v 0.00000000 -0.02932500 0.01850000
v -0.00708000 -0.02932500 0.01709200
v -0.01308100 -0.02932500 0.01308100
v -0.01709200 -0.02932500 0.00708000
v -0.01850000 -0.02932500 -0.00000000
v -0.01709200 -0.02932500 -0.00708000
v -0.01308100 -0.02932500 -0.01308100
v -0.00708000 -0.02932500 -0.01709200
v 0.00000000 -0.02932500 -0.01850000
v 0.00669700 -0.02932500 -0.01616800
v 0.01389200 -0.02932500 -0.01775000
v 0.01237400 -0.02932500 -0.01237400
v 0.00649500 -0.02932500 -0.01775000
v 0.00421600 -0.02932500 -0.01801300
v 0.00649500 -0.03432500 0.01775000
v 0.00421600 -0.03432500 0.01801300
v 0.00000000 -0.03432500 0.01850000
v 0.00421600 -0.03432500 -0.01801300
v 0.00649500 -0.03432500 -0.01775000
v -0.01616800 0.03632500 -0.00669700
v -0.01750000 0.03632500 0.00000000
v 0.01616800 0.03632500 0.00669700
v -0.01616800 0.03632500 0.00669700
v -0.01237400 0.03632500 0.01237400
v -0.00669700 0.03632500 0.01616800
v 0.01750000 0.03632500 0.00000000
v 0.01616800 0.03632500 -0.00669700
v 0.01237400 0.03632500 -0.01237400
v -0.00669700 0.03632500 -0.01616800
v -0.01237400 0.03632500 -0.01237400
v 0.00000000 0.03632500 -0.01750000
v 0.00669700 0.03632500 -0.01616800
v 0.01237400 0.03632500 0.01237400
v 0.00669700 0.03632500 0.01616800
v 0.00000000 0.03632500 0.01750000
v 0.00000000 0.02932500 -0.01750000
v -0.00669700 0.02932500 -0.01616800
v -0.01237400 0.02932500 -0.01237400
v -0.01616800 0.02932500 -0.00669700
v -0.01750000 0.02932500 0.00000000
v -0.01616800 0.02932500 0.00669700
v -0.01237400 0.02932500 0.01237400
v -0.00669700 0.02932500 0.01616800
v 0.00000000 0.02932500 0.01750000
v 0.01425000 0.02932500 0.02468200
v 0.01675200 0.02932500 0.02305700
v 0.01535000 0.02932500 0.02368300
v 0.01593600 0.02932500 0.02231700
v 0.01590300 0.02932500 0.02083100
v 0.02305700 0.02932500 0.01675200
v 0.01525600 0.02932500 0.01949400
v 0.02710500 0.02932500 0.00880700
v 0.01389200 0.02932500 0.01775000
v 0.02850000 0.02932500 -0.00000000
v 0.02710500 0.02932500 -0.00880700
v 0.01425000 0.02932500 -0.02468200
v 0.01535000 0.02932500 -0.02368300
v 0.01675200 0.02932500 -0.02305700
v 0.01593600 0.02932500 -0.02231700
v 0.02305700 0.02932500 -0.01675200
v 0.01590300 0.02932500 -0.02083100
v 0.01525600 0.02932500 -0.01949400
v 0.01389200 0.02932500 -0.01775000
v 0.01616800 0.02932500 0.00669700
v 0.01237400 0.02932500 0.01237400
v 0.00649500 0.02932500 0.01775000
v 0.00669700 0.02932500 0.01616800
v 0.00669700 0.02932500 -0.01616800
v 0.01237400 0.02932500 -0.01237400
v 0.01616800 0.02932500 -0.00669700
v 0.01750000 0.02932500 0.00000000
v 0.00649500 0.02932500 -0.01775000
v 0.00421600 0.02932500 -0.01801300
v 0.00000000 0.02932500 -0.01850000
v -0.00708000 0.02932500 -0.01709200
v -0.01308100 0.02932500 -0.01308100
v -0.01709200 0.02932500 -0.00708000
v -0.01850000 0.02932500 -0.00000000
v -0.01709200 0.02932500 0.00708000
v -0.01308100 0.02932500 0.01308100
v -0.00708000 0.02932500 0.01709200
v 0.00000000 0.02932500 0.01850000
v 0.00421600 0.02932500 0.01801300
v 0.00649500 0.03432500 -0.01775000
v 0.00421600 0.03432500 -0.01801300
v 0.00000000 0.03432500 -0.01850000
v 0.00421600 0.03432500 0.01801300
v 0.00649500 0.03432500 0.01775000
v -0.27218900 0.03432500 -0.02520300
v -0.01709200 -0.03432500 -0.00708000
v -0.01850000 -0.03432500 -0.00000000
v 0.00000000 -0.03432500 -0.01850000
v -0.00708000 -0.03432500 -0.01709200
v -0.01308100 -0.03432500 -0.01308100
v -0.01709200 -0.03432500 0.00708000
v -0.01308100 -0.03432500 0.01308100
v -0.00708000 -0.03432500 0.01709200
v -0.01850000 0.03432500 -0.00000000
v -0.01709200 0.03432500 0.00708000
v -0.01709200 0.03432500 -0.00708000
v -0.01308100 0.03432500 -0.01308100
v -0.00708000 0.03432500 -0.01709200
v 0.00000000 0.03432500 0.01850000
v -0.00708000 0.03432500 0.01709200
v -0.01308100 0.03432500 0.01308100
v -0.26159800 -0.03432500 0.01834300
v -0.25528700 -0.03432500 0.01632000
v -0.25009500 -0.03432500 0.01220300
v -0.24668700 -0.03432500 0.00652000
v -0.27218900 -0.03432500 0.02520300
v -0.04103700 0.02719400 0.02170400
v -0.04103700 -0.02719400 0.02170400
v -0.03361800 -0.03147700 0.02301200
v -0.03167100 -0.03200000 0.02335500
v -0.00531000 -0.03200000 0.02800300
v -0.00531000 0.03200000 0.02800300
v -0.03167100 0.03200000 0.02335500
v -0.03361800 0.03147700 0.02301200
v -0.03553500 -0.03147700 0.03388000
v -0.03453400 -0.03186700 0.03370300
v -0.03346300 -0.03200000 0.03351400
v -0.04102900 -0.02849700 0.03484800
v -0.04111200 -0.02715300 0.02171200
v -0.04167900 -0.02813300 0.03485600
v -0.04213100 -0.02786800 0.03473100
v -0.04326600 -0.02711400 0.03353400
v -0.04118500 -0.02711400 0.02173200
v -0.04296500 -0.02733800 0.03409300
v -0.04245700 -0.02766900 0.03456100
v -0.04337000 -0.02677900 0.03272900
v -0.04334600 -0.02668000 0.03253100
v -0.04150900 -0.02668000 0.02211700
v -0.04142300 -0.02689600 0.02191200
v -0.04137600 -0.02695900 0.02185600
v -0.04334700 -0.02700200 0.03321800
v -0.04125700 -0.02707000 0.02176500
v -0.04245700 0.02766900 0.03456100
v -0.04213100 0.02786800 0.03473100
v -0.04111200 0.02715300 0.02171200
v -0.04167900 0.02813300 0.03485600
v -0.04102900 0.02849700 0.03484800
v -0.03553500 0.03147700 0.03388000
v -0.04118500 0.02711400 0.02173200
v -0.04326600 0.02711400 0.03353400
v -0.04296500 0.02733800 0.03409300
v -0.03346300 0.03200000 0.03351400
v -0.03453400 0.03186700 0.03370300
v -0.04150900 0.02668000 0.02211700
v -0.04334600 0.02668000 0.03253100
v -0.04337000 0.02677700 0.03272600
v -0.04142300 0.02689600 0.02191200
v -0.04334700 0.02700200 0.03321800
v -0.04137600 0.02695900 0.02185600
v -0.04125700 0.02707000 0.02176500
v -0.00232500 0.03200000 0.03314000
v -0.00260000 0.03200000 0.03231700
v -0.00529300 0.03200000 0.03509200
v -0.00507100 0.03200000 0.02820800
v -0.01203200 0.03200000 0.03237300
v -0.02418900 0.03200000 0.03187900
v -0.01924000 0.03200000 0.03144600
v -0.00517400 0.03200000 0.02808700
v -0.00287900 0.03200000 0.03474000
v -0.00242400 0.03200000 0.03400200
v -0.00360300 0.03200000 0.03521700
v -0.00446200 0.03200000 0.03534200
v -0.00260000 -0.03200000 0.03231700
v -0.00507100 -0.03200000 0.02820800
v -0.00529300 -0.03200000 0.03509200
v -0.00446200 -0.03200000 0.03534200
v -0.00360300 -0.03200000 0.03521700
v -0.00287900 -0.03200000 0.03474000
v -0.00242400 -0.03200000 0.03400200
v -0.00232500 -0.03200000 0.03314000
v -0.02418900 -0.03200000 0.03187900
v -0.01924000 -0.03200000 0.03144600
v -0.00517400 -0.03200000 0.02808700
v -0.01203200 -0.03200000 0.03237300
v -0.27280700 0.03232500 -0.02710500
v -0.27280700 -0.03232500 0.02710500
vn 0.14013777 -0.70593747 -0.69427206
vn 0.48085045 -0.29491684 -0.82571600
vn 0.34582240 -0.91387480 -0.21269630
vn 0.78665996 -0.37262601 -0.49225600
vn 0.90490113 -0.36553972 -0.21802442
vn 0.41334957 -0.90511386 -0.09955419
vn 0.91378460 -0.36553242 0.17715459
vn 0.41776669 -0.90494477 0.08090705
vn 0.75786844 -0.36556121 0.54037063
vn 0.34605155 -0.90515820 0.24685411
vn 0.50669487 -0.36941608 0.77896859
vn 0.22875325 -0.90964917 0.34671363
vn 0.26461246 -0.37252922 0.88949549
vn 0.11558783 -0.91238467 0.39267503
vn 0.03114140 -0.37319644 0.92722955
vn 0.01506987 -0.91312936 0.40739129
vn -0.05081884 -0.92002297 0.38855525
vn -0.12126040 -0.37868658 0.91754694
vn -0.11248148 -0.92481672 0.36340329
vn -0.18166468 -0.39253875 0.90161592
vn -0.32226284 -0.33886647 0.88392091
vn -0.45620208 -0.81442311 0.35860097
vn -0.25526047 -0.38271288 0.88790368
vn -0.28091287 -0.89132450 0.35584913
vn -0.48519772 -0.78912799 0.37664331
vn -0.29930664 -0.31601992 0.90030381
vn -0.33902890 -0.86563053 0.36843342
vn -0.20465844 -0.35479976 0.91226753
vn -0.15234499 -0.92024629 0.36046881
vn -0.04905701 -0.92754994 0.37046527
vn -0.12006704 -0.38628438 0.91453173
vn -0.04060683 -0.38626194 0.92149487
vn -0.01598266 -0.92753083 0.37340477
vn 0.01597171 -0.92752632 0.37341643
vn 0.04059158 -0.38627606 0.92148962
vn 0.12007343 -0.38629977 0.91452439
vn 0.04906548 -0.92754377 0.37047961
vn 0.15099700 -0.92104263 0.35899915
vn 0.20955574 -0.34960628 0.91316036
vn 0.29134639 -0.31176694 0.90438856
vn 0.46263232 -0.81048406 0.35928668
vn 0.35911666 -0.87422253 0.32675709
vn 0.45398020 -0.81450697 0.36122067
vn 0.32011413 -0.34282536 0.88317479
vn 0.18523740 -0.39552027 0.89958369
vn 0.11504048 -0.92375546 0.36529652
vn 0.25617289 -0.38889821 0.88494838
vn 0.28082589 -0.88941702 0.36065798
vn 0.05081633 -0.92001814 0.38856701
vn 0.12111758 -0.37880717 0.91751603
vn -0.03113425 -0.37320483 0.92722641
vn -0.01506125 -0.91312559 0.40740007
vn -0.22861109 -0.90969436 0.34668882
vn -0.50667623 -0.36937431 0.77900052
vn -0.75790656 -0.36556276 0.54031612
vn -0.34618601 -0.90515654 0.24667163
vn -0.91377082 -0.36553614 0.17721802
vn -0.41773237 -0.90494098 0.08112634
vn -0.90489134 -0.36553130 -0.21807917
vn -0.41328693 -0.90512268 -0.09973386
vn -0.78663695 -0.37268456 -0.49224845
vn -0.34593072 -0.91383185 -0.21270468
vn -0.14015994 -0.70593596 -0.69426912
vn -0.48086149 -0.29498787 -0.82568419
vn -0.78665996 -0.37262601 0.49225600
vn -0.34582240 -0.91387480 0.21269630
vn -0.48085045 -0.29491684 0.82571600
vn -0.14013777 -0.70593747 0.69427206
vn -0.90490113 -0.36553972 0.21802442
vn -0.41334957 -0.90511386 0.09955419
vn -0.91378460 -0.36553242 -0.17715459
vn -0.41776669 -0.90494477 -0.08090705
vn -0.75786844 -0.36556121 -0.54037063
vn -0.34605155 -0.90515820 -0.24685411
vn -0.50669487 -0.36941608 -0.77896859
vn -0.22819740 -0.90965154 -0.34707350
vn -0.32729099 -0.38047139 -0.86494054
vn -0.11235348 -0.91527432 -0.38684573
vn 0.12111137 -0.37880323 -0.91751847
vn 0.04893649 -0.91992887 -0.38901939
vn 0.02826405 -0.38475174 -0.92258725
vn -0.02956618 -0.91621859 -0.39958645
vn -0.09425960 -0.37551727 -0.92200971
vn -0.21909837 -0.37615757 -0.90027851
vn 0.11248148 -0.92481672 -0.36340329
vn 0.18168366 -0.39239186 -0.90167604
vn 0.28093162 -0.89130641 -0.35587962
vn 0.25530760 -0.38281689 -0.88784529
vn 0.45618379 -0.81442365 -0.35862301
vn 0.32203739 -0.33842605 -0.88417178
vn 0.43867092 -0.81113068 -0.38682663
vn 0.29807317 -0.31491774 -0.90109889
vn 0.20502995 -0.35430399 -0.91237679
vn 0.20709568 -0.90620888 -0.36864188
vn 0.04905701 -0.92754994 -0.37046527
vn 0.12006468 -0.38628179 -0.91453313
vn 0.04060683 -0.38626194 -0.92149487
vn 0.01598266 -0.92753083 -0.37340477
vn -0.01597171 -0.92752632 -0.37341643
vn -0.04059158 -0.38627606 -0.92148962
vn -0.12007343 -0.38629977 -0.91452439
vn -0.04906548 -0.92754377 -0.37047961
vn -0.21642066 -0.90862423 -0.35716117
vn -0.21002313 -0.34809681 -0.91362952
vn -0.29134639 -0.31176694 -0.90438856
vn -0.42582158 -0.82201273 -0.37811514
vn -0.45398020 -0.81450697 -0.36122067
vn -0.32019158 -0.34280835 -0.88315332
vn -0.28083289 -0.88942537 -0.36063195
vn -0.25623765 -0.38893652 -0.88491279
vn -0.11502994 -0.92375994 -0.36528850
vn -0.18517003 -0.39551830 -0.89959843
vn -0.04894362 -0.91992736 -0.38902207
vn -0.12111758 -0.37880717 -0.91751603
vn -0.02826405 -0.38475174 -0.92258725
vn 0.02957293 -0.91621684 -0.39958998
vn 0.50667521 -0.36937512 -0.77900080
vn 0.22805453 -0.90969634 -0.34705001
vn 0.32729099 -0.38047139 -0.86494054
vn 0.11234834 -0.91527256 -0.38685137
vn 0.21909301 -0.37616118 -0.90027830
vn 0.09426456 -0.37552091 -0.92200772
vn 0.75790656 -0.36556276 -0.54031612
vn 0.34618601 -0.90515654 -0.24667163
vn 0.91377082 -0.36553614 -0.17721802
vn 0.41773237 -0.90494098 -0.08112634
vn 0.90489134 -0.36553130 0.21807917
vn 0.41328693 -0.90512268 0.09973386
vn 0.78663695 -0.37268456 0.49224845
vn 0.34593072 -0.91383185 0.21270468
vn 0.14015994 -0.70593596 0.69426912
vn 0.48086149 -0.29498787 0.82568419
vn -0.34593072 0.91383185 0.21270468
vn -0.78663695 0.37268456 0.49224845
vn -0.14015994 0.70593596 0.69426912
vn -0.48086149 0.29498787 0.82568419
vn -0.22861109 0.90969436 -0.34668882
vn -0.50385419 0.37212229 -0.77952291
vn -0.75468473 0.37293780 -0.53978547
vn -0.34618601 0.90515654 -0.24667163
vn -0.89998176 0.37372356 -0.22441823
vn -0.41286299 0.90686960 -0.08444932
vn -0.92862586 0.37078383 0.01316635
vn -0.40846032 0.90696533 0.10283028
vn -0.89476115 0.36557913 0.25642616
vn 0.12111758 0.37880717 -0.91751603
vn -0.03145232 0.37283014 -0.92736640
vn 0.05081633 0.92001814 -0.38856701
vn -0.01506125 0.91312559 -0.40740007
vn 0.18523929 0.39551781 -0.89958438
vn 0.11504048 0.92375546 -0.36529652
vn 0.45398020 0.81450697 -0.36122067
vn 0.32016330 0.34289789 -0.88312882
vn 0.28082589 0.88941702 -0.36065798
vn 0.25615244 0.38891857 -0.88494535
vn 0.29134639 0.31176694 -0.90438856
vn 0.46263232 0.81048406 -0.35928668
vn 0.20955574 0.34960628 -0.91316036
vn 0.35911666 0.87422253 -0.32675709
vn 0.15099700 0.92104263 -0.35899915
vn 0.12007343 0.38629977 -0.91452439
vn 0.04906548 0.92754377 -0.37047961
vn 0.04059158 0.38627606 -0.92148962
vn 0.01597171 0.92752632 -0.37341643
vn -0.04060683 0.38626194 -0.92149487
vn -0.01598266 0.92753083 -0.37340477
vn -0.12006468 0.38628179 -0.91453313
vn -0.04905701 0.92754994 -0.37046527
vn -0.20466798 0.35480129 -0.91226480
vn -0.15234499 0.92024629 -0.36046881
vn -0.48519772 0.78912799 -0.37664331
vn -0.29929185 0.31602500 -0.90030694
vn -0.33902890 0.86563053 -0.36843342
vn -0.32213622 0.33837426 -0.88415560
vn -0.45620208 0.81442311 -0.35860097
vn -0.11248148 0.92481672 -0.36340329
vn -0.18163542 0.39240059 -0.90168196
vn -0.28091287 0.89132450 -0.35584913
vn -0.25531576 0.38285628 -0.88782596
vn -0.12112075 0.37879646 -0.91752003
vn -0.05081884 0.92002297 -0.38855525
vn 0.22875325 0.90964917 -0.34671363
vn 0.50669487 0.36941608 -0.77896859
vn 0.26435494 0.37214587 -0.88973250
vn 0.11558783 0.91238467 -0.39267503
vn 0.03145946 0.37282175 -0.92736953
vn 0.01506987 0.91312936 -0.40739129
vn 0.34582240 0.91387480 0.21269630
vn 0.78665996 0.37262601 0.49225600
vn 0.90490113 0.36553972 0.21802442
vn 0.41334957 0.90511386 0.09955419
vn 0.91378460 0.36553242 -0.17715459
vn 0.41776669 0.90494477 -0.08090705
vn 0.75786844 0.36556121 -0.54037063
vn 0.34605155 0.90515820 -0.24685411
vn 0.48085045 0.29491684 0.82571600
vn 0.14013777 0.70593747 0.69427206
vn -0.14013777 0.70593747 -0.69427206
vn -0.48085045 0.29491684 -0.82571600
vn -0.34582240 0.91387480 -0.21269630
vn -0.78389958 0.37588834 -0.49417547
vn -0.89218107 0.37217699 -0.25592424
vn -0.40841190 0.90699819 -0.10273272
vn -0.92734691 0.37406831 -0.01002992
vn -0.41081236 0.90811449 0.08100169
vn -0.90598439 0.36844037 0.20843220
vn -0.82899068 0.37368733 0.41609162
vn -0.34174755 0.90662834 0.24745437
vn -0.71046753 0.36921165 0.59909820
vn -0.50669487 0.36941608 0.77896859
vn -0.22819740 0.90965154 0.34707350
vn -0.32729099 0.38047139 0.86494054
vn -0.11235348 0.91527432 0.38684573
vn 0.12111137 0.37880323 0.91751847
vn 0.04893649 0.91992887 0.38901939
vn 0.02826405 0.38475174 0.92258725
vn -0.02956618 0.91621859 0.39958645
vn -0.09382103 0.37604358 0.92183992
vn -0.21945463 0.37667266 0.89997632
vn 0.11248148 0.92481672 0.36340329
vn 0.18168554 0.39238940 0.90167673
vn 0.28093162 0.89130641 0.35587962
vn 0.25530413 0.38281621 0.88784658
vn 0.45618379 0.81442365 0.35862301
vn 0.32204120 0.33842829 0.88416953
vn 0.43867092 0.81113068 0.38682663
vn 0.29807104 0.31491662 0.90109998
vn 0.20502995 0.35430399 0.91237679
vn 0.20709568 0.90620888 0.36864188
vn 0.04905701 0.92754994 0.37046527
vn 0.12006468 0.38628179 0.91453313
vn 0.04060683 0.38626194 0.92149487
vn 0.01598266 0.92753083 0.37340477
vn -0.01597171 0.92752632 0.37341643
vn -0.04059158 0.38627606 0.92148962
vn -0.12007343 0.38629977 0.91452439
vn -0.04906548 0.92754377 0.37047961
vn -0.21642066 0.90862423 0.35716117
vn -0.21002608 0.34810063 0.91362738
vn -0.29135475 0.31177097 0.90438447
vn -0.42582158 0.82201273 0.37811514
vn -0.45398020 0.81450697 0.36122067
vn -0.32059763 0.34384735 0.88260193
vn -0.28083289 0.88942537 0.36063195
vn -0.25611026 0.38870793 0.88505010
vn -0.11502994 0.92375994 0.36528850
vn -0.18522556 0.39565453 0.89952709
vn -0.04894362 0.91992736 0.38902207
vn -0.12125506 0.37869773 0.91754304
vn -0.02826405 0.38475174 0.92258725
vn 0.02957293 0.91621684 0.39958998
vn 0.50667521 0.36937512 0.77900080
vn 0.22805453 0.90969634 0.34705001
vn 0.32729099 0.38047139 0.86494054
vn 0.11234834 0.91527256 0.38685137
vn 0.21944928 0.37667627 0.89997611
vn 0.09382599 0.37604721 0.92183793
vn 0.75790656 0.36556276 0.54031612
vn 0.34618601 0.90515654 0.24667163
vn 0.91377082 0.36553614 0.17721802
vn 0.41773237 0.90494098 0.08112634
vn 0.90489134 0.36553130 -0.21807917
vn 0.41328693 0.90512268 -0.09973386
vn 0.78663695 0.37268456 -0.49224845
vn 0.34593072 0.91383185 -0.21270468
vn 0.14015994 0.70593596 -0.69426912
vn 0.48086149 0.29498787 -0.82568419
vn -0.52763364 -0.66573679 0.52763364
vn -0.68939939 -0.66570831 0.28558872
vn -0.74619971 -0.66572216 0.00000000
vn 0.74619971 -0.66572216 -0.00000000
vn 0.68939939 -0.66570831 -0.28558872
vn -0.68939939 -0.66570831 -0.28558872
vn -0.28558872 -0.66570831 -0.68939939
vn 0.00000000 -0.66572216 -0.74619971
vn 0.28558872 -0.66570831 -0.68939939
vn 0.52763364 -0.66573679 0.52763364
vn 0.28558872 -0.66570831 0.68939939
vn -0.00000000 -0.66572216 0.74619971
vn -0.52763364 -0.66573679 -0.52763364
vn 0.52763364 -0.66573679 -0.52763364
vn 0.68939939 -0.66570831 0.28558872
vn -0.28558872 -0.66570831 0.68939939
vn -0.65714607 -0.75376325 -0.00000000
vn -0.60709578 -0.75378085 -0.25149385
vn -0.46468751 -0.75374467 -0.46468751
vn -0.25149385 -0.75378085 -0.60709578
vn 0.00000000 -0.75376325 -0.65714607
vn 0.25149385 -0.75378085 -0.60709578
vn 0.46468751 -0.75374467 -0.46468751
vn 0.60709578 -0.75378085 -0.25149385
vn 0.65714607 -0.75376325 0.00000000
vn -0.53090251 -0.75820604 0.37850512
vn -0.51185940 -0.02588887 0.85867906
vn -0.45890081 -0.68432457 0.56666563
vn -0.64020586 -0.75810762 0.12413419
vn -0.25065786 -0.82018816 0.51425870
vn -0.63383563 -0.75823897 -0.15272871
vn -0.59799563 -0.67353160 0.43446106
vn -0.57839058 -0.73183830 -0.36038457
vn -0.70297793 -0.67353644 0.22840906
vn -0.25065786 -0.82018816 -0.51425870
vn -0.73915898 -0.67353099 -0.00000000
vn -0.70297793 -0.67353644 -0.22840906
vn -0.51185940 -0.02588887 -0.85867906
vn -0.53090251 -0.75820604 -0.37850512
vn -0.45890081 -0.68432457 -0.56666563
vn -0.64020586 -0.75810762 -0.12413419
vn -0.59799563 -0.67353160 -0.43446106
vn -0.63383563 -0.75823897 0.15272871
vn -0.57839058 -0.73183830 0.36038457
vn 0.03982899 -0.72026109 0.69255874
vn 0.05876037 -0.69985788 0.71186106
vn -0.09649923 -0.66894093 0.73702505
vn -0.35003877 -0.66892119 0.65575705
vn -0.55870332 -0.66892543 0.49029518
vn -0.69563789 -0.66893321 0.26194711
vn -0.74332808 -0.66892703 -0.00000000
vn 0.60709578 -0.75378085 0.25149385
vn -0.69563789 -0.66893321 -0.26194711
vn 0.46468751 -0.75374467 0.46468751
vn -0.55870332 -0.66892543 -0.49029518
vn 0.25149385 -0.75378085 0.60709578
vn -0.60709578 -0.75378085 0.25149385
vn -0.46468751 -0.75374467 0.46468751
vn 0.03982899 -0.72026109 -0.69255874
vn -0.25149385 -0.75378085 0.60709578
vn 0.05876037 -0.69985788 -0.71186106
vn 0.00000000 -0.75376325 0.65714607
vn -0.09649923 -0.66894093 -0.73702505
vn -0.35003877 -0.66892119 -0.65575705
vn 0.04131472 -0.69440940 0.71839312
vn 0.05755526 -0.71450237 0.69726161
vn -0.08591172 -0.74971404 0.65616159
vn -0.31161333 -0.74973864 0.58377145
vn -0.49737884 -0.74973335 0.43647932
vn -0.61929927 -0.74972366 0.23320129
vn -0.66174231 -0.74973136 0.00000000
vn 0.05755526 -0.71450237 -0.69726161
vn 0.04131472 -0.69440940 -0.71839312
vn 0.68939939 0.66570831 0.28558872
vn 0.74619971 0.66572216 0.00000000
vn -0.74619971 0.66572216 -0.00000000
vn 0.68939939 0.66570831 -0.28558872
vn 0.52763364 0.66573679 -0.52763364
vn 0.28558872 0.66570831 -0.68939939
vn -0.68939939 0.66570831 -0.28558872
vn -0.52763364 0.66573679 -0.52763364
vn -0.28558872 0.66570831 -0.68939939
vn -0.00000000 0.66572216 -0.74619971
vn -0.52763364 0.66573679 0.52763364
vn -0.28558872 0.66570831 0.68939939
vn 0.00000000 0.66572216 0.74619971
vn -0.68939939 0.66570831 0.28558872
vn 0.52763364 0.66573679 0.52763364
vn 0.28558872 0.66570831 0.68939939
vn 0.65714607 0.75376325 -0.00000000
vn 0.60709578 0.75378085 -0.25149385
vn 0.46468751 0.75374467 -0.46468751
vn 0.25149385 0.75378085 -0.60709578
vn 0.00000000 0.75376325 -0.65714607
vn -0.25149385 0.75378085 -0.60709578
vn -0.46468751 0.75374467 -0.46468751
vn -0.60709578 0.75378085 -0.25149385
vn -0.65714607 0.75376325 0.00000000
vn -0.50750009 0.74698193 -0.42948999
vn -0.50368215 0.01964806 -0.86366559
vn -0.45890081 0.68432457 -0.56666563
vn -0.60709578 0.75378085 0.25149385
vn -0.73915898 0.67353099 0.00000000
vn -0.45890081 0.68432457 0.56666563
vn -0.51899189 0.02941106 0.85427303
vn -0.55975038 0.76187220 0.32592984
vn -0.46468751 0.75374467 0.46468751
vn -0.59799563 0.67353160 0.43446106
vn -0.25149385 0.75378085 0.60709578
vn -0.25065786 0.82018816 -0.51425870
vn 0.00000000 0.75376325 0.65714607
vn 0.03982899 0.72026109 -0.69255874
vn -0.59799563 0.67353160 -0.43446106
vn -0.66736558 0.74472985 0.00079054
vn -0.62612840 0.74523846 -0.22930957
vn -0.57467036 0.72616788 -0.37740454
vn -0.70297793 0.67353644 0.22840906
vn -0.62950261 0.74512263 -0.22026966
vn -0.65980671 0.75095882 0.02675757
vn 0.05182921 0.69767099 -0.71454106
vn -0.12653441 0.66497248 -0.73607109
vn 0.25149385 0.75378085 0.60709578
vn -0.40327005 0.66500546 -0.62860243
vn 0.46468751 0.75374467 0.46468751
vn -0.61628710 0.66498290 -0.42188619
vn 0.60709578 0.75378085 0.25149385
vn -0.73195419 0.66498718 -0.14844230
vn -0.73195419 0.66498718 0.14844230
vn -0.61628710 0.66498290 0.42188619
vn -0.40327005 0.66500546 0.62860243
vn -0.12653441 0.66497248 0.73607109
vn 0.05182921 0.69767099 0.71454106
vn 0.03982899 0.72026109 0.69255874
vn -0.25065786 0.82018816 0.51425870
vn -0.70297793 0.67353644 -0.22840906
vn -0.57468379 0.72909559 0.37169634
vn -0.62352980 0.75006628 0.22047938
vn 0.04131472 0.69440940 -0.71839312
vn 0.05044511 0.71679262 -0.69545929
vn -0.11114797 0.75471778 -0.64656570
vn -0.35427294 0.75467570 -0.55222756
vn -0.54136665 0.75470448 -0.37059856
vn -0.64298183 0.75469902 -0.13039846
vn -0.64298183 0.75469902 0.13039846
vn -0.54136665 0.75470448 0.37059856
vn -0.35427294 0.75467570 0.55222756
vn -0.11114797 0.75471778 0.64656570
vn 0.05044511 0.71679262 0.69545929
vn 0.04131472 0.69440940 0.71839312
vn -0.68939939 -0.66570831 -0.28558872
vn -0.52763364 -0.66573679 -0.52763364
vn -0.28558872 -0.66570831 -0.68939939
vn 0.68939939 -0.66570831 -0.28558872
vn 0.74619971 -0.66572216 0.00000000
vn 0.52763364 -0.66573679 -0.52763364
vn -0.28558872 -0.66570831 0.68939939
vn 0.28558872 -0.66570831 -0.68939939
vn -0.52763364 -0.66573679 0.52763364
vn -0.68939939 -0.66570831 0.28558872
vn 0.28558872 -0.66570831 0.68939939
vn -0.00000000 -0.66572216 0.74619971
vn 0.52763364 -0.66573679 0.52763364
vn 0.68939939 -0.66570831 0.28558872
vn -0.74619971 -0.66572216 -0.00000000
vn 0.00000000 -0.66572216 -0.74619971
vn 0.00000000 -0.75376325 0.65714607
vn -0.25149385 -0.75378085 0.60709578
vn -0.46468751 -0.75374467 0.46468751
vn -0.60709578 -0.75378085 0.25149385
vn -0.65714607 -0.75376325 0.00000000
vn -0.60709578 -0.75378085 -0.25149385
vn -0.46468751 -0.75374467 -0.46468751
vn -0.25149385 -0.75378085 -0.60709578
vn -0.00000000 -0.75376325 -0.65714607
vn 0.53090251 -0.75820604 -0.37850512
vn 0.51185940 -0.02588887 -0.85867906
vn 0.45890081 -0.68432457 -0.56666563
vn 0.64020586 -0.75810762 -0.12413419
vn 0.63383563 -0.75823897 0.15272871
vn 0.59799563 -0.67353160 -0.43446106
vn 0.57839058 -0.73183830 0.36038457
vn 0.51185940 -0.02588887 0.85867906
vn 0.53090251 -0.75820604 0.37850512
vn 0.45890081 -0.68432457 0.56666563
vn 0.64020586 -0.75810762 0.12413419
vn 0.59799563 -0.67353160 0.43446106
vn 0.63383563 -0.75823897 -0.15272871
vn 0.70297793 -0.67353644 0.22840906
vn 0.57839058 -0.73183830 -0.36038457
vn 0.73915898 -0.67353099 0.00000000
vn 0.25065786 -0.82018816 -0.51425870
vn 0.70297793 -0.67353644 -0.22840906
vn 0.25149385 -0.75378085 0.60709578
vn 0.46468751 -0.75374467 0.46468751
vn 0.60709578 -0.75378085 0.25149385
vn 0.65714607 -0.75376325 -0.00000000
vn 0.60709578 -0.75378085 -0.25149385
vn -0.03982899 -0.72026109 -0.69255874
vn -0.08110019 -0.70711909 -0.70242818
vn 0.03003007 -0.67382121 -0.73828393
vn 0.28560160 -0.66570069 -0.68940142
vn 0.52762699 -0.66574734 -0.52762699
vn 0.68940142 -0.66570069 -0.28560160
vn 0.74619551 -0.66572687 0.00000000
vn 0.68940142 -0.66570069 0.28560160
vn 0.52762699 -0.66574734 0.52762699
vn 0.28560160 -0.66570069 0.68940142
vn 0.03003007 -0.67382121 0.73828393
vn 0.25149385 -0.75378085 -0.60709578
vn 0.25065786 -0.82018816 0.51425870
vn 0.46468751 -0.75374467 -0.46468751
vn -0.03982899 -0.72026109 0.69255874
vn -0.08110019 -0.70711909 0.70242818
vn -0.04131472 -0.69440940 -0.71839312
vn -0.08110301 -0.70709447 -0.70245264
vn 0.02716863 -0.74372268 -0.66793596
vn -0.08110301 -0.70709447 0.70245264
vn -0.04131472 -0.69440940 0.71839312
vn -0.68939939 0.66570831 -0.28558872
vn -0.74619971 0.66572216 0.00000000
vn 0.68939939 0.66570831 0.28558872
vn -0.68939939 0.66570831 0.28558872
vn -0.52763364 0.66573679 0.52763364
vn -0.28558872 0.66570831 0.68939939
vn 0.74619971 0.66572216 -0.00000000
vn 0.68939939 0.66570831 -0.28558872
vn 0.52763364 0.66573679 -0.52763364
vn -0.28558872 0.66570831 -0.68939939
vn -0.52763364 0.66573679 -0.52763364
vn -0.00000000 0.66572216 -0.74619971
vn 0.28558872 0.66570831 -0.68939939
vn 0.52763364 0.66573679 0.52763364
vn 0.28558872 0.66570831 0.68939939
vn 0.00000000 0.66572216 0.74619971
vn 0.00000000 0.75376325 -0.65714607
vn -0.25149385 0.75378085 -0.60709578
vn -0.46468751 0.75374467 -0.46468751
vn -0.60709578 0.75378085 -0.25149385
vn -0.65714607 0.75376325 -0.00000000
vn -0.60709578 0.75378085 0.25149385
vn -0.46468751 0.75374467 0.46468751
vn -0.25149385 0.75378085 0.60709578
vn -0.00000000 0.75376325 0.65714607
vn 0.51185940 0.02588887 0.85867906
vn 0.45890081 0.68432457 0.56666563
vn 0.53090251 0.75820604 0.37850512
vn 0.64020586 0.75810762 0.12413419
vn 0.63383563 0.75823897 -0.15272871
vn 0.59799563 0.67353160 0.43446106
vn 0.57839058 0.73183830 -0.36038457
vn 0.70297793 0.67353644 0.22840906
vn 0.25065786 0.82018816 -0.51425870
vn 0.73915898 0.67353099 -0.00000000
vn 0.70297793 0.67353644 -0.22840906
vn 0.51185940 0.02588887 -0.85867906
vn 0.53090251 0.75820604 -0.37850512
vn 0.45890081 0.68432457 -0.56666563
vn 0.64020586 0.75810762 -0.12413419
vn 0.59799563 0.67353160 -0.43446106
vn 0.63383563 0.75823897 0.15272871
vn 0.57839058 0.73183830 0.36038457
vn 0.25065786 0.82018816 0.51425870
vn 0.60709578 0.75378085 0.25149385
vn 0.46468751 0.75374467 0.46468751
vn -0.03982899 0.72026109 -0.69255874
vn 0.25149385 0.75378085 0.60709578
vn 0.25149385 0.75378085 -0.60709578
vn 0.46468751 0.75374467 -0.46468751
vn 0.60709578 0.75378085 -0.25149385
vn 0.65714607 0.75376325 0.00000000
vn -0.03982899 0.72026109 0.69255874
vn -0.08110019 0.70711909 0.70242818
vn 0.03003007 0.67382121 0.73828393
vn 0.28560160 0.66570069 0.68940142
vn 0.52762699 0.66574734 0.52762699
vn 0.68940142 0.66570069 0.28560160
vn 0.74619551 0.66572687 0.00000000
vn 0.68940142 0.66570069 -0.28560160
vn 0.52762699 0.66574734 -0.52762699
vn 0.28560160 0.66570069 -0.68940142
vn 0.03003007 0.67382121 -0.73828393
vn -0.08110019 0.70711909 -0.70242818
vn -0.04131472 0.69440940 0.71839312
vn -0.08110301 0.70709447 0.70245264
vn 0.02716863 0.74372268 0.66793596
vn -0.08110301 0.70709447 -0.70245264
vn -0.04131472 0.69440940 -0.71839312
vn -0.11558442 0.91238441 -0.39267663
vn 0.60708176 -0.75379054 0.25149864
vn 0.65715293 -0.75375727 -0.00000000
vn 0.02716863 -0.74372268 0.66793596
vn 0.25149864 -0.75379054 0.60708176
vn 0.46469838 -0.75373127 0.46469838
vn 0.60708176 -0.75379054 -0.25149864
vn 0.46469838 -0.75373127 -0.46469838
vn 0.25149864 -0.75379054 -0.60708176
vn 0.65715293 0.75375727 0.00000000
vn 0.60708176 0.75379054 -0.25149864
vn 0.60708176 0.75379054 0.25149864
vn 0.46469838 0.75373127 0.46469838
vn 0.25149864 0.75379054 0.60708176
vn 0.02716863 0.74372268 -0.66793596
vn 0.25149864 0.75379054 -0.60708176
vn 0.46469838 0.75373127 -0.46469838
vn -0.08591172 -0.74971404 -0.65616159
vn -0.31161333 -0.74973864 -0.58377145
vn -0.49737884 -0.74973335 -0.43647932
vn -0.61929927 -0.74972366 -0.23320129
vn -0.11558442 -0.91238441 0.39267663
vn -0.51160685 0.57330277 0.63998622
vn -0.51163701 -0.57325975 0.64000065
vn -0.38277175 -0.62664598 0.67882296
vn -0.21093628 -0.67241080 0.70948544
vn 0.00116505 -0.64114549 0.76741847
vn 0.00117468 0.64113574 0.76742660
vn -0.21106257 0.67251630 0.70934788
vn -0.38236761 0.62619669 0.67946502
vn -0.21362633 -0.69781666 0.68367807
vn -0.08870592 -0.73716077 0.66986958
vn 0.06543443 -0.72760534 0.68286807
vn -0.27241310 -0.65134153 0.70819864
vn -0.41891657 -0.55537826 -0.71837587
vn -0.40126809 -0.60625174 0.68661688
vn -0.55470231 -0.57277524 0.60351792
vn -0.85441143 -0.48586592 0.18416138
vn -0.52199705 -0.53343925 -0.66555364
vn -0.78137392 -0.50022704 0.37313229
vn -0.66761239 -0.53833660 0.51428338
vn -0.97616022 -0.19833788 -0.08816639
vn -0.98663227 -0.04615838 -0.15628873
vn -0.96328210 -0.08346338 -0.25518908
vn -0.89331076 -0.22874668 -0.38687315
vn -0.79336215 -0.35147658 -0.49703190
vn -0.91533089 -0.40161954 0.02951442
vn -0.65365637 -0.47314848 -0.59064698
vn -0.66761239 0.53833660 0.51428338
vn -0.55470231 0.57277524 0.60351792
vn -0.41897402 0.55542910 -0.71830306
vn -0.40126809 0.60625174 0.68661688
vn -0.27241310 0.65134153 0.70819864
vn -0.21362443 0.69781584 0.68367950
vn -0.52203089 0.53339753 -0.66556053
vn -0.85414814 0.48620276 0.18449345
vn -0.78137373 0.50022701 0.37313274
vn 0.06543538 0.72760623 0.68286704
vn -0.08870822 0.73716067 0.66986939
vn -0.96328176 0.08345996 -0.25519148
vn -0.98659390 0.04487413 -0.15690376
vn -0.97655435 0.19645622 -0.08801456
vn -0.89327281 0.22786798 -0.38747886
vn -0.91587932 0.40037809 0.02936767
vn -0.79323324 0.35059949 -0.49785643
vn -0.65336820 0.47311031 -0.59099629
vn 0.74594686 0.66143290 -0.07790887
vn 0.66305542 0.68332344 -0.30565764
vn -0.23769443 0.69698199 0.67654820
vn 0.58835201 0.68914960 -0.42298315
vn -0.17096279 0.73695003 0.65396970
vn 0.09097105 0.71705421 0.69105537
vn -0.01383934 0.73209392 0.68106311
vn 0.48138040 0.67372242 -0.56068798
vn 0.53818268 0.66153707 0.52223376
vn 0.70880631 0.66130679 0.24549326
vn 0.26672342 0.66131423 0.70108637
vn -0.05534649 0.66144199 0.74795137
vn 0.66305542 -0.68332344 -0.30565764
vn 0.58835201 -0.68914960 -0.42298315
vn -0.23769443 -0.69698199 0.67654820
vn -0.05534649 -0.66144199 0.74795137
vn 0.26672342 -0.66131423 0.70108637
vn 0.53818268 -0.66153707 0.52223376
vn 0.70880631 -0.66130679 0.24549326
vn 0.74594686 -0.66143290 -0.07790887
vn 0.09097105 -0.71705421 0.69105537
vn -0.01383934 -0.73209392 0.68106311
vn 0.48138040 -0.67372242 -0.56068798
vn -0.17096279 -0.73695003 0.65396970
vn -0.26435221 0.37214632 -0.88973312
vn -0.26460973 -0.37252967 0.88949611
f 1//1 2//2 3//3
f 3//3 2//2 4//4
f 3//3 4//4 5//5
f 3//3 5//5 6//6
f 6//6 5//5 7//7
f 6//6 7//7 8//8
f 8//8 7//7 9//9
f 8//8 9//9 10//10
f 10//10 9//9 11//11
f 10//10 11//11 12//12
f 12//12 11//11 13//13
f 12//12 13//13 14//14
f 14//14 13//13 15//15
f 14//14 15//15 16//16
f 17//17 18//18 19//19
f 19//19 18//18 20//20
f 21//21 22//22 23//23
f 23//23 22//22 24//24
f 23//23 24//24 20//20
f 20//20 24//24 19//19
f 22//22 21//21 25//25
f 25//25 21//21 26//26
f 25//25 26//26 27//27
f 27//27 26//26 28//28
f 27//27 28//28 29//29
f 29//29 28//28 30//30
f 30//30 28//28 31//31
f 32//32 33//33 31//31
f 31//31 33//33 30//30
f 33//33 32//32 34//34
f 34//34 32//32 35//35
f 36//36 37//37 35//35
f 35//35 37//37 34//34
f 37//37 36//36 38//38
f 38//38 36//36 39//39
f 40//40 41//41 39//39
f 39//39 41//41 42//42
f 39//39 42//42 38//38
f 41//41 40//40 43//43
f 43//43 40//40 44//44
f 45//45 46//46 47//47
f 47//47 46//46 48//48
f 47//47 48//48 44//44
f 44//44 48//48 43//43
f 46//46 45//45 49//49
f 49//49 45//45 50//50
f 50//50 51//51 49//49
f 49//49 51//51 52//52
f 53//53 54//54 55//55
f 53//53 55//55 56//56
f 56//56 55//55 57//57
f 56//56 57//57 58//58
f 58//58 57//57 59//59
f 58//58 59//59 60//60
f 60//60 59//59 61//61
f 60//60 61//61 62//62
f 62//62 61//61 63//63
f 63//63 61//61 64//64
f 65//65 66//66 67//67
f 67//67 66//66 68//68
f 66//66 65//65 69//69
f 66//66 69//69 70//70
f 70//70 69//69 71//71
f 70//70 71//71 72//72
f 72//72 71//71 73//73
f 72//72 73//73 74//74
f 74//74 73//73 75//75
f 74//74 75//75 76//76
f 75//75 77//77 76//76
f 76//76 77//77 78//78
f 79//79 80//80 81//81
f 81//81 80//80 82//82
f 81//81 82//82 83//83
f 83//83 82//82 78//78
f 83//83 78//78 84//84
f 84//84 78//78 77//77
f 80//80 79//79 85//85
f 85//85 79//79 86//86
f 85//85 86//86 87//87
f 87//87 86//86 88//88
f 87//87 88//88 89//89
f 89//89 88//88 90//90
f 89//89 90//90 91//91
f 91//91 90//90 92//92
f 93//93 94//94 92//92
f 92//92 94//94 91//91
f 94//94 93//93 95//95
f 95//95 93//93 96//96
f 97//97 98//98 96//96
f 96//96 98//98 95//95
f 98//98 97//97 99//99
f 99//99 97//97 100//100
f 101//101 102//102 100//100
f 100//100 102//102 99//99
f 102//102 101//101 103//103
f 103//103 101//101 104//104
f 105//105 106//106 104//104
f 104//104 106//106 103//103
f 106//106 105//105 107//107
f 107//107 105//105 108//108
f 107//107 108//108 109//109
f 109//109 108//108 110//110
f 109//109 110//110 111//111
f 111//111 110//110 112//112
f 111//111 112//112 113//113
f 113//113 112//112 114//114
f 114//114 115//115 113//113
f 113//113 115//115 116//116
f 117//117 118//118 119//119
f 119//119 118//118 120//120
f 119//119 120//120 121//121
f 121//121 120//120 116//116
f 121//121 116//116 122//122
f 122//122 116//116 115//115
f 118//118 117//117 123//123
f 118//118 123//123 124//124
f 124//124 123//123 125//125
f 124//124 125//125 126//126
f 126//126 125//125 127//127
f 126//126 127//127 128//128
f 128//128 127//127 129//129
f 128//128 129//129 130//130
f 130//130 129//129 131//131
f 131//131 129//129 132//132
f 133//133 134//134 135//135
f 135//135 134//134 136//136
f 137//137 138//138 139//139
f 137//137 139//139 140//140
f 140//140 139//139 141//141
f 140//140 141//141 142//142
f 142//142 141//141 143//143
f 142//142 143//143 144//144
f 143//143 145//145 144//144
f 144//144 145//145 134//134
f 144//144 134//134 133//133
f 146//146 147//147 148//148
f 148//148 147//147 149//149
f 146//146 148//148 150//150
f 150//150 148//148 151//151
f 152//152 153//153 154//154
f 154//154 153//153 155//155
f 154//154 155//155 151//151
f 151//151 155//155 150//150
f 153//153 152//152 156//156
f 156//156 152//152 157//157
f 156//156 157//157 158//158
f 158//158 157//157 159//159
f 158//158 159//159 160//160
f 158//158 160//160 161//161
f 161//161 160//160 162//162
f 161//161 162//162 163//163
f 163//163 162//162 164//164
f 163//163 164//164 165//165
f 165//165 164//164 166//166
f 165//165 166//166 167//167
f 167//167 166//166 168//168
f 167//167 168//168 169//169
f 169//169 168//168 170//170
f 171//171 172//172 173//173
f 173//173 172//172 169//169
f 173//173 169//169 170//170
f 172//172 171//171 174//174
f 174//174 171//171 175//175
f 176//176 177//177 178//178
f 178//178 177//177 179//179
f 178//178 179//179 175//175
f 175//175 179//179 174//174
f 177//177 176//176 180//180
f 180//180 176//176 181//181
f 182//182 183//183 184//184
f 182//182 184//184 185//185
f 185//185 184//184 186//186
f 185//185 186//186 187//187
f 188//188 189//189 190//190
f 188//188 190//190 191//191
f 191//191 190//190 192//192
f 191//191 192//192 193//193
f 193//193 192//192 194//194
f 193//193 194//194 195//195
f 195//195 194//194 183//183
f 195//195 183//183 182//182
f 189//189 188//188 196//196
f 196//196 188//188 197//197
f 198//198 199//199 200//200
f 200//200 199//199 201//201
f 200//200 201//201 202//202
f 200//200 202//202 203//203
f 203//203 202//202 204//204
f 203//203 204//204 205//205
f 204//204 206//206 205//205
f 205//205 206//206 207//207
f 205//205 207//207 208//208
f 207//207 209//209 208//208
f 208//208 209//209 210//210
f 208//208 210//210 211//211
f 210//210 212//212 211//211
f 211//211 212//212 213//213
f 214//214 215//215 216//216
f 216//216 215//215 217//217
f 216//216 217//217 218//218
f 218//218 217//217 213//213
f 218//218 213//213 219//219
f 219//219 213//213 212//212
f 215//215 214//214 220//220
f 220//220 214//214 221//221
f 220//220 221//221 222//222
f 222//222 221//221 223//223
f 222//222 223//223 224//224
f 224//224 223//223 225//225
f 224//224 225//225 226//226
f 226//226 225//225 227//227
f 228//228 229//229 227//227
f 227//227 229//229 226//226
f 229//229 228//228 230//230
f 230//230 228//228 231//231
f 232//232 233//233 231//231
f 231//231 233//233 230//230
f 233//233 232//232 234//234
f 234//234 232//232 235//235
f 236//236 237//237 235//235
f 235//235 237//237 234//234
f 237//237 236//236 238//238
f 238//238 236//236 239//239
f 240//240 241//241 239//239
f 239//239 241//241 238//238
f 241//241 240//240 242//242
f 242//242 240//240 243//243
f 242//242 243//243 244//244
f 244//244 243//243 245//245
f 244//244 245//245 246//246
f 246//246 245//245 247//247
f 246//246 247//247 248//248
f 248//248 247//247 249//249
f 249//249 250//250 248//248
f 248//248 250//250 251//251
f 252//252 253//253 254//254
f 254//254 253//253 255//255
f 254//254 255//255 256//256
f 256//256 255//255 251//251
f 256//256 251//251 257//257
f 257//257 251//251 250//250
f 253//253 252//252 258//258
f 253//253 258//258 259//259
f 259//259 258//258 260//260
f 259//259 260//260 261//261
f 261//261 260//260 262//262
f 261//261 262//262 263//263
f 263//263 262//262 264//264
f 263//263 264//264 265//265
f 265//265 264//264 266//266
f 266//266 264//264 267//267
f 268//268 269//269 270//270
f 271//271 270//270 272//272
f 272//272 270//270 273//273
f 274//274 275//275 276//276
f 277//277 278//278 279//279
f 273//273 280//280 272//272
f 272//272 280//280 274//274
f 272//272 274//274 281//281
f 281//281 274//274 276//276
f 271//271 282//282 270//270
f 270//270 282//282 277//277
f 270//270 277//277 268//268
f 268//268 277//277 279//279
f 268//268 279//279 283//283
f 270//270 284//284 285//285
f 270//270 285//285 273//273
f 273//273 285//285 286//286
f 273//273 286//286 280//280
f 280//280 286//286 287//287
f 280//280 287//287 274//274
f 274//274 287//287 288//288
f 274//274 288//288 275//275
f 275//275 288//288 289//289
f 275//275 289//289 276//276
f 276//276 289//289 290//290
f 276//276 290//290 281//281
f 281//281 290//290 291//291
f 281//281 291//291 272//272
f 272//272 291//291 292//292
f 272//272 292//292 271//271
f 293//293 294//294 295//295
f 293//293 295//295 296//296
f 287//287 286//286 297//297
f 296//296 295//295 298//298
f 298//298 295//295 299//299
f 298//298 299//299 300//300
f 300//300 299//299 301//301
f 300//300 301//301 302//302
f 302//302 301//301 303//303
f 302//302 303//303 304//304
f 305//305 306//306 307//307
f 307//307 306//306 308//308
f 307//307 308//308 309//309
f 309//309 308//308 310//310
f 309//309 310//310 304//304
f 286//286 285//285 297//297
f 297//297 285//285 304//304
f 297//297 304//304 311//311
f 311//311 304//304 310//310
f 297//297 312//312 287//287
f 287//287 312//312 313//313
f 287//287 313//313 288//288
f 288//288 313//313 314//314
f 288//288 314//314 289//289
f 289//289 314//314 315//315
f 289//289 315//315 290//290
f 290//290 315//315 316//316
f 290//290 316//316 291//291
f 291//291 316//316 317//317
f 291//291 317//317 292//292
f 292//292 317//317 318//318
f 292//292 318//318 319//319
f 319//319 318//318 320//320
f 319//319 320//320 321//321
f 321//321 320//320 322//322
f 321//321 322//322 323//323
f 285//285 284//284 304//304
f 304//304 284//284 324//324
f 304//304 324//324 302//302
f 302//302 324//324 325//325
f 302//302 325//325 326//326
f 326//326 325//325 327//327
f 326//326 327//327 328//328
f 328//328 327//327 329//329
f 328//328 329//329 330//330
f 330//330 329//329 323//323
f 330//330 323//323 331//331
f 331//331 323//323 322//322
f 305//305 75//75 73//73
f 305//305 73//73 306//306
f 306//306 73//73 71//71
f 306//306 71//71 308//308
f 308//308 71//71 69//69
f 308//308 69//69 310//310
f 310//310 69//69 65//65
f 310//310 65//65 311//311
f 67//67 297//297 65//65
f 65//65 297//297 311//311
f 297//297 67//67 312//312
f 312//312 67//67 68//68
f 312//312 68//68 332//332
f 332//332 333//333 312//312
f 312//312 333//333 313//313
f 313//313 333//333 314//314
f 314//314 333//333 334//334
f 314//314 334//334 315//315
f 315//315 334//334 335//335
f 315//315 335//335 316//316
f 316//316 335//335 336//336
f 316//316 336//336 317//317
f 317//317 336//336 337//337
f 317//317 337//337 318//318
f 318//318 337//337 338//338
f 339//339 340//340 328//328
f 328//328 340//340 326//326
f 64//64 302//302 63//63
f 63//63 302//302 326//326
f 63//63 326//326 340//340
f 61//61 300//300 64//64
f 64//64 300//300 302//302
f 300//300 61//61 59//59
f 300//300 59//59 298//298
f 298//298 59//59 57//57
f 298//298 57//57 296//296
f 296//296 57//57 55//55
f 296//296 55//55 293//293
f 293//293 55//55 54//54
f 293//293 54//54 294//294
f 341//341 342//342 343//343
f 342//342 344//344 343//343
f 343//343 344//344 345//345
f 343//343 345//345 346//346
f 347//347 343//343 348//348
f 348//348 343//343 346//346
f 348//348 346//346 349//349
f 349//349 346//346 350//350
f 351//351 352//352 353//353
f 343//343 354//354 341//341
f 341//341 354//354 351//351
f 341//341 351//351 355//355
f 355//355 351//351 353//353
f 355//355 353//353 356//356
f 342//342 357//357 358//358
f 342//342 358//358 344//344
f 344//344 358//358 359//359
f 344//344 359//359 345//345
f 345//345 359//359 360//360
f 345//345 360//360 346//346
f 346//346 360//360 361//361
f 346//346 361//361 350//350
f 350//350 361//361 362//362
f 350//350 362//362 349//349
f 349//349 362//362 363//363
f 349//349 363//363 348//348
f 348//348 363//363 364//364
f 348//348 364//364 347//347
f 347//347 364//364 365//365
f 347//347 365//365 343//343
f 366//366 367//367 368//368
f 369//369 365//365 370//370
f 371//371 372//372 373//373
f 369//369 370//370 374//374
f 371//371 373//373 375//375
f 376//376 377//377 378//378
f 378//378 377//377 379//379
f 380//380 381//381 368//368
f 368//368 381//381 382//382
f 368//368 382//382 366//366
f 376//376 374//374 377//377
f 377//377 374//374 370//370
f 377//377 370//370 383//383
f 383//383 370//370 384//384
f 383//383 384//384 385//385
f 385//385 384//384 375//375
f 385//385 375//375 386//386
f 386//386 375//375 373//373
f 379//379 387//387 378//378
f 378//378 387//387 388//388
f 378//378 388//388 389//389
f 389//389 388//388 390//390
f 389//389 390//390 391//391
f 391//391 390//390 392//392
f 391//391 392//392 393//393
f 393//393 392//392 394//394
f 393//393 394//394 357//357
f 357//357 394//394 395//395
f 357//357 395//395 358//358
f 358//358 395//395 396//396
f 358//358 396//396 359//359
f 359//359 396//396 397//397
f 359//359 397//397 360//360
f 360//360 397//397 398//398
f 360//360 398//398 361//361
f 361//361 398//398 399//399
f 361//361 399//399 362//362
f 362//362 399//399 400//400
f 362//362 400//400 363//363
f 363//363 400//400 401//401
f 363//363 401//401 364//364
f 365//365 364//364 370//370
f 370//370 364//364 401//401
f 370//370 401//401 402//402
f 402//402 401//401 403//403
f 402//402 403//403 380//380
f 380//380 403//403 404//404
f 380//380 404//404 381//381
f 199//199 377//377 201//201
f 201//201 377//377 383//383
f 377//377 199//199 379//379
f 379//379 199//199 198//198
f 379//379 198//198 405//405
f 405//405 406//406 379//379
f 379//379 406//406 387//387
f 387//387 406//406 388//388
f 388//388 406//406 407//407
f 388//388 407//407 390//390
f 390//390 407//407 408//408
f 390//390 408//408 392//392
f 392//392 408//408 409//409
f 392//392 409//409 394//394
f 394//394 409//409 410//410
f 394//394 410//410 395//395
f 395//395 410//410 411//411
f 395//395 411//411 396//396
f 396//396 411//411 412//412
f 396//396 412//412 397//397
f 397//397 412//412 413//413
f 397//397 413//413 398//398
f 398//398 413//413 414//414
f 398//398 414//414 399//399
f 399//399 414//414 415//415
f 415//415 416//416 399//399
f 399//399 416//416 400//400
f 136//136 401//401 135//135
f 135//135 401//401 400//400
f 135//135 400//400 416//416
f 134//134 403//403 136//136
f 136//136 403//403 401//401
f 403//403 134//134 145//145
f 403//403 145//145 404//404
f 404//404 145//145 143//143
f 404//404 143//143 381//381
f 210//210 209//209 372//372
f 372//372 209//209 373//373
f 204//204 386//386 206//206
f 206//206 386//386 373//373
f 206//206 373//373 207//207
f 207//207 373//373 209//209
f 417//417 418//418 419//419
f 420//420 421//421 422//422
f 422//422 421//421 423//423
f 422//422 423//423 424//424
f 424//424 423//423 425//425
f 424//424 425//425 426//426
f 427//427 428//428 429//429
f 429//429 428//428 423//423
f 429//429 423//423 430//430
f 430//430 423//423 421//421
f 426//426 431//431 424//424
f 424//424 431//431 417//417
f 424//424 417//417 432//432
f 432//432 417//417 419//419
f 428//428 433//433 434//434
f 428//428 434//434 423//423
f 423//423 434//434 435//435
f 423//423 435//435 425//425
f 425//425 435//435 436//436
f 425//425 436//436 426//426
f 426//426 436//436 437//437
f 426//426 437//437 431//431
f 431//431 437//437 438//438
f 431//431 438//438 417//417
f 417//417 438//438 439//439
f 417//417 439//439 418//418
f 418//418 439//439 440//440
f 418//418 440//440 419//419
f 419//419 440//440 441//441
f 419//419 441//441 432//432
f 442//442 443//443 444//444
f 442//442 444//444 445//445
f 445//445 444//444 446//446
f 446//446 444//444 447//447
f 446//446 447//447 448//448
f 449//449 450//450 451//451
f 451//451 450//450 452//452
f 451//451 452//452 453//453
f 453//453 452//452 454//454
f 453//453 454//454 455//455
f 455//455 454//454 456//456
f 455//455 456//456 457//457
f 457//457 456//456 458//458
f 457//457 458//458 459//459
f 460//460 461//461 458//458
f 458//458 461//461 462//462
f 458//458 462//462 459//459
f 459//459 462//462 463//463
f 459//459 463//463 464//464
f 458//458 465//465 460//460
f 460//460 465//465 466//466
f 460//460 466//466 433//433
f 433//433 466//466 467//467
f 433//433 467//467 434//434
f 434//434 467//467 468//468
f 434//434 468//468 435//435
f 435//435 468//468 469//469
f 435//435 469//469 436//436
f 436//436 469//469 470//470
f 436//436 470//470 437//437
f 437//437 470//470 471//471
f 437//437 471//471 438//438
f 438//438 471//471 472//472
f 438//438 472//472 439//439
f 439//439 472//472 473//473
f 439//439 473//473 440//440
f 440//440 473//473 474//474
f 440//440 474//474 441//441
f 441//441 474//474 475//475
f 441//441 475//475 476//476
f 447//447 459//459 448//448
f 448//448 459//459 464//464
f 448//448 464//464 477//477
f 477//477 464//464 478//478
f 477//477 478//478 479//479
f 479//479 478//478 476//476
f 479//479 476//476 480//480
f 480//480 476//476 475//475
f 2//2 458//458 4//4
f 4//4 458//458 456//456
f 458//458 2//2 465//465
f 465//465 2//2 1//1
f 465//465 1//1 481//481
f 481//481 482//482 465//465
f 465//465 482//482 466//466
f 466//466 482//482 467//467
f 467//467 482//482 483//483
f 484//484 485//485 480//480
f 480//480 485//485 479//479
f 132//132 477//477 131//131
f 131//131 477//477 479//479
f 131//131 479//479 485//485
f 129//129 448//448 132//132
f 132//132 448//448 477//477
f 448//448 129//129 127//127
f 448//448 127//127 446//446
f 446//446 127//127 125//125
f 446//446 125//125 445//445
f 445//445 125//125 123//123
f 445//445 123//123 442//442
f 442//442 123//123 117//117
f 442//442 117//117 443//443
f 449//449 11//11 9//9
f 449//449 9//9 450//450
f 450//450 9//9 7//7
f 450//450 7//7 452//452
f 452//452 7//7 5//5
f 452//452 5//5 454//454
f 454//454 5//5 4//4
f 454//454 4//4 456//456
f 486//486 487//487 488//488
f 488//488 487//487 489//489
f 489//489 490//490 491//491
f 488//488 492//492 486//486
f 486//486 492//492 493//493
f 486//486 493//493 494//494
f 495//495 496//496 497//497
f 497//497 496//496 486//486
f 497//497 486//486 498//498
f 498//498 486//486 494//494
f 499//499 488//488 500//500
f 500//500 488//488 489//489
f 500//500 489//489 501//501
f 501//501 489//489 491//491
f 497//497 502//502 503//503
f 497//497 503//503 495//495
f 495//495 503//503 504//504
f 495//495 504//504 496//496
f 496//496 504//504 505//505
f 496//496 505//505 486//486
f 486//486 505//505 506//506
f 486//486 506//506 487//487
f 487//487 506//506 507//507
f 487//487 507//507 489//489
f 489//489 507//507 508//508
f 489//489 508//508 490//490
f 490//490 508//508 509//509
f 490//490 509//509 491//491
f 491//491 509//509 510//510
f 491//491 510//510 501//501
f 511//511 512//512 513//513
f 513//513 512//512 514//514
f 514//514 512//512 515//515
f 515//515 512//512 516//516
f 515//515 516//516 517//517
f 517//517 516//516 518//518
f 517//517 518//518 519//519
f 519//519 518//518 520//520
f 519//519 520//520 521//521
f 522//522 523//523 524//524
f 524//524 523//523 525//525
f 524//524 525//525 526//526
f 526//526 525//525 527//527
f 526//526 527//527 521//521
f 521//521 527//527 528//528
f 521//521 528//528 529//529
f 521//521 530//530 519//519
f 519//519 530//530 531//531
f 519//519 531//531 532//532
f 532//532 531//531 533//533
f 534//534 535//535 529//529
f 529//529 535//535 536//536
f 529//529 536//536 521//521
f 521//521 536//536 537//537
f 521//521 537//537 530//530
f 529//529 538//538 534//534
f 534//534 538//538 539//539
f 534//534 539//539 502//502
f 502//502 539//539 540//540
f 502//502 540//540 503//503
f 503//503 540//540 541//541
f 503//503 541//541 504//504
f 504//504 541//541 542//542
f 504//504 542//542 505//505
f 505//505 542//542 543//543
f 505//505 543//543 506//506
f 506//506 543//543 544//544
f 506//506 544//544 507//507
f 507//507 544//544 545//545
f 507//507 545//545 508//508
f 508//508 545//545 546//546
f 508//508 546//546 509//509
f 509//509 546//546 547//547
f 509//509 547//547 510//510
f 510//510 547//547 548//548
f 510//510 548//548 533//533
f 533//533 548//548 549//549
f 533//533 549//549 532//532
f 522//522 183//183 194//194
f 522//522 194//194 523//523
f 523//523 194//194 192//192
f 523//523 192//192 525//525
f 525//525 192//192 190//190
f 525//525 190//190 527//527
f 527//527 190//190 189//189
f 527//527 189//189 528//528
f 196//196 529//529 189//189
f 189//189 529//529 528//528
f 529//529 196//196 538//538
f 538//538 196//196 197//197
f 538//538 197//197 550//550
f 550//550 551//551 538//538
f 538//538 551//551 539//539
f 539//539 551//551 540//540
f 540//540 551//551 552//552
f 553//553 554//554 549//549
f 549//549 554//554 532//532
f 267//267 519//519 266//266
f 266//266 519//519 532//532
f 266//266 532//532 554//554
f 264//264 517//517 267//267
f 267//267 517//517 519//519
f 517//517 264//264 262//262
f 517//517 262//262 515//515
f 515//515 262//262 260//260
f 515//515 260//260 514//514
f 514//514 260//260 258//258
f 514//514 258//258 513//513
f 513//513 258//258 252//252
f 513//513 252//252 511//511
f 232//232 35//35 235//235
f 235//235 35//35 32//32
f 35//35 232//232 36//36
f 36//36 232//232 231//231
f 214//214 50//50 221//221
f 221//221 50//50 45//45
f 44//44 40//40 225//225
f 45//45 47//47 221//221
f 221//221 47//47 44//44
f 221//221 44//44 223//223
f 223//223 44//44 225//225
f 36//36 231//231 39//39
f 39//39 231//231 228//228
f 39//39 228//228 40//40
f 40//40 228//228 227//227
f 40//40 227//227 225//225
f 31//31 236//236 32//32
f 32//32 236//236 235//235
f 96//96 161//161 97//97
f 97//97 161//161 163//163
f 165//165 100//100 163//163
f 163//163 100//100 97//97
f 100//100 165//165 101//101
f 101//101 165//165 167//167
f 180//180 114//114 177//177
f 177//177 114//114 112//112
f 108//108 105//105 174//174
f 112//112 110//110 177//177
f 177//177 110//110 108//108
f 177//177 108//108 179//179
f 179//179 108//108 174//174
f 101//101 167//167 104//104
f 104//104 167//167 169//169
f 104//104 169//169 105//105
f 105//105 169//169 172//172
f 105//105 172//172 174//174
f 79//79 146//146 86//86
f 86//86 146//146 150//150
f 158//158 161//161 96//96
f 153//153 156//156 92//92
f 92//92 156//156 158//158
f 92//92 158//158 93//93
f 93//93 158//158 96//96
f 153//153 92//92 155//155
f 155//155 92//92 90//90
f 155//155 90//90 150//150
f 150//150 90//90 88//88
f 150//150 88//88 86//86
f 175//175 242//242 244//244
f 175//175 244//244 178//178
f 178//178 244//244 246//246
f 178//178 246//246 176//176
f 242//242 175//175 241//241
f 241//241 175//175 171//171
f 171//171 173//173 241//241
f 241//241 173//173 170//170
f 241//241 170//170 238//238
f 237//237 238//238 170//170
f 233//233 162//162 230//230
f 230//230 162//162 160//160
f 230//230 160//160 229//229
f 237//237 170//170 234//234
f 170//170 168//168 234//234
f 234//234 168//168 166//166
f 234//234 166//166 233//233
f 233//233 166//166 164//164
f 233//233 164//164 162//162
f 157//157 226//226 159//159
f 159//159 226//226 229//229
f 159//159 229//229 160//160
f 226//226 157//157 224//224
f 224//224 157//157 152//152
f 151//151 220//220 222//222
f 151//151 222//222 154//154
f 154//154 222//222 224//224
f 154//154 224//224 152//152
f 211//211 213//213 200//200
f 133//133 135//135 416//416
f 555//555 415//415 149//149
f 149//149 415//415 414//414
f 413//413 151//151 414//414
f 414//414 151//151 148//148
f 414//414 148//148 149//149
f 200//200 213//213 198//198
f 410//410 220//220 411//411
f 411//411 220//220 151//151
f 411//411 151//151 412//412
f 412//412 151//151 413//413
f 137//137 140//140 142//142
f 410//410 409//409 220//220
f 220//220 409//409 408//408
f 220//220 408//408 215//215
f 215//215 408//408 407//407
f 215//215 407//407 217//217
f 217//217 407//407 406//406
f 217//217 406//406 213//213
f 213//213 406//406 405//405
f 213//213 405//405 198//198
f 203//203 205//205 200//200
f 200//200 205//205 208//208
f 200//200 208//208 211//211
f 142//142 144//144 137//137
f 137//137 144//144 133//133
f 137//137 133//133 555//555
f 555//555 133//133 416//416
f 555//555 416//416 415//415
f 46//46 85//85 87//87
f 46//46 87//87 48//48
f 48//48 87//87 89//89
f 48//48 89//89 43//43
f 91//91 41//41 89//89
f 89//89 41//41 43//43
f 41//41 91//91 42//42
f 42//42 91//91 94//94
f 42//42 94//94 38//38
f 102//102 103//103 30//30
f 30//30 103//103 29//29
f 38//38 94//94 37//37
f 37//37 94//94 95//95
f 37//37 95//95 98//98
f 102//102 30//30 99//99
f 99//99 30//30 33//33
f 99//99 33//33 98//98
f 98//98 33//33 34//34
f 98//98 34//34 37//37
f 25//25 27//27 106//106
f 106//106 27//27 29//29
f 106//106 29//29 103//103
f 107//107 22//22 106//106
f 106//106 22//22 25//25
f 22//22 107//107 109//109
f 22//22 109//109 24//24
f 24//24 109//109 111//111
f 24//24 111//111 19//19
f 556//556 557//557 111//111
f 130//130 131//131 485//485
f 111//111 557//557 19//19
f 126//126 128//128 130//130
f 120//120 484//484 116//116
f 116//116 484//484 558//558
f 116//116 558//558 113//113
f 113//113 558//558 559//559
f 113//113 559//559 111//111
f 111//111 559//559 560//560
f 111//111 560//560 556//556
f 557//557 561//561 19//19
f 19//19 561//561 562//562
f 19//19 562//562 17//17
f 17//17 562//562 563//563
f 17//17 563//563 16//16
f 16//16 563//563 483//483
f 16//16 483//483 14//14
f 14//14 483//483 482//482
f 14//14 482//482 481//481
f 124//124 126//126 118//118
f 118//118 126//126 130//130
f 118//118 130//130 120//120
f 120//120 130//130 485//485
f 120//120 485//485 484//484
f 8//8 10//10 12//12
f 481//481 1//1 14//14
f 14//14 1//1 3//3
f 14//14 3//3 12//12
f 12//12 3//3 6//6
f 12//12 6//6 8//8
f 564//564 176//176 565//565
f 565//565 176//176 246//246
f 564//564 566//566 176//176
f 176//176 566//566 567//567
f 176//176 567//567 181//181
f 181//181 567//567 568//568
f 181//181 568//568 187//187
f 187//187 568//568 552//552
f 187//187 552//552 185//185
f 185//185 552//552 551//551
f 185//185 551//551 550//550
f 265//265 266//266 554//554
f 255//255 553//553 251//251
f 251//251 553//553 569//569
f 251//251 569//569 248//248
f 248//248 569//569 570//570
f 248//248 570//570 246//246
f 246//246 570//570 571//571
f 246//246 571//571 565//565
f 193//193 195//195 191//191
f 191//191 195//195 182//182
f 191//191 182//182 188//188
f 188//188 182//182 185//185
f 188//188 185//185 197//197
f 197//197 185//185 550//550
f 253//253 259//259 261//261
f 261//261 263//263 253//253
f 253//253 263//263 265//265
f 253//253 265//265 255//255
f 255//255 265//265 554//554
f 255//255 554//554 553//553
f 18//18 15//15 249//249
f 249//249 15//15 250//250
f 214//214 216//216 50//50
f 50//50 216//216 51//51
f 572//572 573//573 46//46
f 573//573 574//574 46//46
f 46//46 574//574 575//575
f 46//46 575//575 85//85
f 85//85 575//575 338//338
f 85//85 338//338 337//337
f 62//62 63//63 340//340
f 576//576 339//339 52//52
f 52//52 339//339 572//572
f 52//52 572//572 49//49
f 49//49 572//572 46//46
f 337//337 336//336 85//85
f 85//85 336//336 335//335
f 85//85 335//335 80//80
f 80//80 335//335 334//334
f 80//80 334//334 82//82
f 82//82 334//334 333//333
f 82//82 333//333 78//78
f 78//78 333//333 332//332
f 53//53 56//56 58//58
f 58//58 60//60 53//53
f 53//53 60//60 62//62
f 53//53 62//62 576//576
f 576//576 62//62 340//340
f 576//576 340//340 339//339
f 72//72 74//74 70//70
f 70//70 74//74 76//76
f 70//70 76//76 66//66
f 66//66 76//76 78//78
f 66//66 78//78 68//68
f 68//68 78//78 332//332
f 31//31 28//28 577//577
f 577//577 28//28 26//26
f 577//577 26//26 578//578
f 578//578 26//26 21//21
f 578//578 21//21 579//579
f 579//579 21//21 23//23
f 579//579 23//23 580//580
f 580//580 23//23 20//20
f 580//580 20//20 581//581
f 581//581 20//20 18//18
f 581//581 18//18 582//582
f 582//582 18//18 249//249
f 582//582 249//249 583//583
f 583//583 249//249 247//247
f 583//583 247//247 584//584
f 584//584 247//247 245//245
f 584//584 245//245 577//577
f 245//245 243//243 577//577
f 577//577 243//243 240//240
f 577//577 240//240 31//31
f 31//31 240//240 239//239
f 31//31 239//239 236//236
f 585//585 579//579 586//586
f 586//586 579//579 580//580
f 586//586 580//580 587//587
f 579//579 585//585 578//578
f 578//578 585//585 588//588
f 578//578 588//588 589//589
f 589//589 588//588 590//590
f 589//589 590//590 591//591
f 592//592 593//593 594//594
f 594//594 593//593 589//589
f 594//594 589//589 595//595
f 595//595 589//589 591//591
f 596//596 597//597 598//598
f 598//598 599//599 596//596
f 596//596 599//599 600//600
f 596//596 600//600 601//601
f 601//601 600//600 592//592
f 592//592 600//600 602//602
f 592//592 602//602 593//593
f 603//603 604//604 605//605
f 604//604 606//606 605//605
f 605//605 606//606 607//607
f 605//605 607//607 577//577
f 577//577 607//607 608//608
f 577//577 608//608 584//584
f 609//609 610//610 605//605
f 605//605 610//610 611//611
f 605//605 611//611 603//603
f 612//612 583//583 613//613
f 613//613 583//583 584//584
f 613//613 584//584 608//608
f 614//614 615//615 616//616
f 614//614 616//616 617//617
f 617//617 616//616 618//618
f 617//617 618//618 619//619
f 619//619 618//618 620//620
f 620//620 618//618 610//610
f 620//620 610//610 609//609
f 621//621 622//622 623//623
f 623//623 622//622 624//624
f 623//623 624//624 625//625
f 612//612 626//626 583//583
f 583//583 626//626 627//627
f 583//583 627//627 582//582
f 582//582 627//627 625//625
f 582//582 625//625 628//628
f 628//628 625//625 624//624
f 629//629 630//630 631//631
f 631//631 630//630 621//621
f 631//631 621//621 632//632
f 632//632 621//621 623//623
f 633//633 634//634 622//622
f 622//622 634//634 624//624
f 623//623 635//635 636//636
f 623//623 636//636 632//632
f 632//632 636//636 637//637
f 632//632 637//637 631//631
f 631//631 637//637 638//638
f 631//631 638//638 629//629
f 629//629 638//638 639//639
f 629//629 639//639 630//630
f 630//630 639//639 640//640
f 630//630 640//640 621//621
f 621//621 640//640 633//633
f 621//621 633//633 622//622
f 626//626 641//641 627//627
f 627//627 641//641 642//642
f 598//598 597//597 614//614
f 614//614 597//597 615//615
f 624//624 634//634 643//643
f 624//624 643//643 628//628
f 628//628 643//643 581//581
f 628//628 581//581 582//582
f 637//637 636//636 635//635
f 644//644 642//642 580//580
f 580//580 642//642 641//641
f 580//580 641//641 587//587
f 639//639 638//638 637//637
f 580//580 581//581 644//644
f 644//644 581//581 643//643
f 644//644 643//643 635//635
f 643//643 634//634 635//635
f 635//635 634//634 633//633
f 635//635 633//633 637//637
f 637//637 633//633 640//640
f 637//637 640//640 639//639
f 641//641 626//626 587//587
f 587//587 626//626 612//612
f 587//587 612//612 586//586
f 586//586 612//612 585//585
f 607//607 588//588 608//608
f 608//608 588//588 585//585
f 608//608 585//585 613//613
f 613//613 585//585 612//612
f 590//590 588//588 607//607
f 607//607 606//606 590//590
f 590//590 606//606 604//604
f 590//590 604//604 591//591
f 591//591 604//604 595//595
f 604//604 603//603 595//595
f 595//595 603//603 611//611
f 595//595 611//611 594//594
f 594//594 611//611 610//610
f 594//594 610//610 592//592
f 615//615 597//597 616//616
f 616//616 597//597 596//596
f 610//610 618//618 592//592
f 592//592 618//618 616//616
f 592//592 616//616 601//601
f 601//601 616//616 596//596
f 605//605 577//577 578//578
f 605//605 578//578 609//609
f 609//609 578//578 589//589
f 609//609 589//589 620//620
f 589//589 593//593 620//620
f 620//620 593//593 602//602
f 620//620 602//602 619//619
f 619//619 602//602 600//600
f 619//619 600//600 617//617
f 600//600 599//599 617//617
f 617//617 599//599 598//598
f 617//617 598//598 614//614
f 627//627 642//642 625//625
f 625//625 642//642 644//644
f 625//625 644//644 623//623
f 623//623 644//644 635//635
f 138//138 645//645 367//367
f 367//367 645//645 305//305
f 367//367 305//305 368//368
f 305//305 307//307 368//368
f 368//368 307//307 309//309
f 368//368 309//309 380//380
f 380//380 309//309 304//304
f 380//380 304//304 402//402
f 402//402 304//304 303//303
f 402//402 303//303 370//370
f 370//370 303//303 301//301
f 370//370 301//301 384//384
f 384//384 301//301 299//299
f 384//384 299//299 375//375
f 375//375 299//299 295//295
f 210//210 372//372 212//212
f 212//212 372//372 646//646
f 212//212 646//646 219//219
f 54//54 646//646 294//294
f 294//294 646//646 372//372
f 294//294 372//372 295//295
f 295//295 372//372 371//371
f 295//295 371//371 375//375
f 219//219 646//646 218//218
f 218//218 646//646 51//51
f 218//218 51//51 216//216
f 75//75 305//305 77//77
f 77//77 305//305 645//645
f 77//77 645//645 84//84
f 84//84 645//645 147//147
f 84//84 147//147 83//83
f 83//83 147//147 81//81
f 147//147 146//146 81//81
f 81//81 146//146 79//79
f 115//115 114//114 186//186
f 186//186 114//114 180//180
f 443//443 117//117 119//119
f 512//512 511//511 449//449
f 252//252 254//254 511//511
f 511//511 254//254 13//13
f 511//511 13//13 449//449
f 449//449 13//13 11//11
f 184//184 183//183 522//522
f 449//449 451//451 512//512
f 512//512 451//451 453//453
f 512//512 453//453 516//516
f 516//516 453//453 455//455
f 516//516 455//455 518//518
f 518//518 455//455 457//457
f 518//518 457//457 520//520
f 520//520 457//457 459//459
f 520//520 459//459 521//521
f 521//521 459//459 447//447
f 521//521 447//447 526//526
f 526//526 447//447 444//444
f 526//526 444//444 524//524
f 524//524 444//444 522//522
f 250//250 15//15 257//257
f 257//257 15//15 13//13
f 257//257 13//13 256//256
f 256//256 13//13 254//254
f 444//444 443//443 522//522
f 522//522 443//443 119//119
f 522//522 119//119 184//184
f 184//184 119//119 121//121
f 184//184 121//121 186//186
f 186//186 121//121 122//122
f 186//186 122//122 115//115
f 548//548 569//569 549//549
f 549//549 569//569 553//553
f 540//540 552//552 541//541
f 541//541 552//552 568//568
f 541//541 568//568 542//542
f 542//542 568//568 567//567
f 542//542 567//567 543//543
f 543//543 567//567 566//566
f 543//543 566//566 544//544
f 544//544 566//566 564//564
f 544//544 564//564 545//545
f 545//545 564//564 565//565
f 545//545 565//565 546//546
f 546//546 565//565 571//571
f 546//546 571//571 547//547
f 547//547 571//571 570//570
f 547//547 570//570 548//548
f 548//548 570//570 569//569
f 501//501 510//510 533//533
f 501//501 533//533 500//500
f 500//500 533//533 531//531
f 500//500 531//531 499//499
f 499//499 531//531 530//530
f 499//499 530//530 488//488
f 488//488 530//530 537//537
f 488//488 537//537 492//492
f 492//492 537//537 536//536
f 492//492 536//536 493//493
f 493//493 536//536 535//535
f 493//493 535//535 494//494
f 494//494 535//535 534//534
f 494//494 534//534 498//498
f 498//498 534//534 502//502
f 498//498 502//502 497//497
f 475//475 558//558 480//480
f 480//480 558//558 484//484
f 467//467 483//483 468//468
f 468//468 483//483 563//563
f 468//468 563//563 469//469
f 469//469 563//563 562//562
f 469//469 562//562 470//470
f 470//470 562//562 561//561
f 470//470 561//561 471//471
f 471//471 561//561 557//557
f 471//471 557//557 472//472
f 472//472 557//557 556//556
f 472//472 556//556 473//473
f 473//473 556//556 560//560
f 473//473 560//560 474//474
f 474//474 560//560 559//559
f 474//474 559//559 475//475
f 475//475 559//559 558//558
f 432//432 441//441 476//476
f 432//432 476//476 424//424
f 424//424 476//476 478//478
f 424//424 478//478 422//422
f 422//422 478//478 464//464
f 422//422 464//464 420//420
f 420//420 464//464 463//463
f 420//420 463//463 421//421
f 421//421 463//463 462//462
f 421//421 462//462 430//430
f 430//430 462//462 461//461
f 430//430 461//461 429//429
f 429//429 461//461 460//460
f 429//429 460//460 427//427
f 427//427 460//460 433//433
f 427//427 433//433 428//428
f 386//386 204//204 202//202
f 386//386 202//202 385//385
f 385//385 202//202 201//201
f 385//385 201//201 383//383
f 381//381 143//143 141//141
f 381//381 141//141 382//382
f 382//382 141//141 139//139
f 382//382 139//139 366//366
f 366//366 139//139 138//138
f 366//366 138//138 367//367
f 343//343 365//365 369//369
f 343//343 369//369 354//354
f 354//354 369//369 374//374
f 354//354 374//374 351//351
f 351//351 374//374 376//376
f 351//351 376//376 352//352
f 352//352 376//376 378//378
f 352//352 378//378 353//353
f 353//353 378//378 389//389
f 353//353 389//389 356//356
f 356//356 389//389 391//391
f 356//356 391//391 355//355
f 355//355 391//391 393//393
f 355//355 393//393 341//341
f 341//341 393//393 357//357
f 341//341 357//357 342//342
f 318//318 338//338 320//320
f 320//320 338//338 575//575
f 320//320 575//575 322//322
f 322//322 575//575 574//574
f 322//322 574//574 331//331
f 331//331 574//574 573//573
f 331//331 573//573 330//330
f 330//330 573//573 572//572
f 330//330 572//572 328//328
f 328//328 572//572 339//339
f 271//271 292//292 319//319
f 271//271 319//319 282//282
f 282//282 319//319 321//321
f 282//282 321//321 277//277
f 277//277 321//321 323//323
f 277//277 323//323 278//278
f 278//278 323//323 329//329
f 278//278 329//329 279//279
f 279//279 329//329 327//327
f 279//279 327//327 283//283
f 283//283 327//327 325//325
f 283//283 325//325 268//268
f 268//268 325//325 324//324
f 268//268 324//324 269//269
f 269//269 324//324 284//284
f 269//269 284//284 270//270
f 186//186 180//180 187//187
f 187//187 180//180 181//181
f 149//149 147//147 645//645
f 149//149 645//645 555//555
f 555//555 645//645 138//138
f 555//555 138//138 137//137
f 52//52 51//51 646//646
f 52//52 646//646 576//576
f 576//576 646//646 54//54
f 576//576 54//54 53//53
f 15//15 18//18 16//16
f 16//16 18//18 17//17

