# https://github.com/mikedh/trimesh

o link_1.obj
v 0.01515500 0.00875000 0.00400000
v 0.01237400 0.01237400 0.00400000
v 0.02150000 0.03632500 0.00400000
v -0.02150000 -0.03632500 0.00400000
v -0.01515500 -0.00875000 0.00400000
v -0.01237400 -0.01237400 0.00400000
v -0.00452900 0.01690400 0.00400000
v -0.00875000 0.01515500 0.00400000
v -0.02150000 0.03632500 0.00400000
v -0.01237400 0.01237400 0.00400000
v -0.01515500 0.00875000 0.00400000
v -0.00875000 -0.01515500 0.00400000
v -0.00452900 -0.01690400 0.00400000
v 0.02150000 -0.03632500 0.00400000
v 0.00000000 -0.01750000 0.00400000
v 0.00452900 -0.01690400 0.00400000
v 0.01515500 -0.00875000 0.00400000
v 0.01690400 -0.00452900 0.00400000
v 0.01750000 -0.00000000 0.00400000
v 0.01690400 0.00452900 0.00400000
v 0.00875000 0.01515500 0.00400000
v 0.00452900 0.01690400 0.00400000
v -0.00000000 0.01750000 0.00400000
v 0.00875000 -0.01515500 0.00400000
v 0.01237400 -0.01237400 0.00400000
v -0.01690400 0.00452900 0.00400000
v -0.01750000 -0.00000000 0.00400000
v -0.01690400 -0.00452900 0.00400000
v 0.00875000 0.01515500 0.00000000
v -0.00875000 -0.01515500 0.00000000
v -0.01237400 -0.01237400 0.00000000
v 0.01237400 0.01237400 0.00000000
v 0.01515500 0.00875000 0.00000000
v 0.01690400 0.00452900 0.00000000
v 0.00875000 -0.01515500 0.00000000
v 0.01237400 -0.01237400 0.00000000
v 0.01515500 -0.00875000 0.00000000
v -0.00000000 0.01750000 0.00000000
v -0.01690400 -0.00452900 0.00000000
v -0.00452900 0.01690400 0.00000000
v -0.01750000 -0.00000000 0.00000000
v -0.01690400 0.00452900 0.00000000
v -0.01515500 -0.00875000 0.00000000
v 0.00452900 0.01690400 0.00000000
v 0.01750000 0.00000000 0.00000000
v 0.01690400 -0.00452900 0.00000000
v 0.00452900 -0.01690400 0.00000000
v 0.00000000 -0.01750000 0.00000000
v -0.00452900 -0.01690400 0.00000000
v -0.01515500 0.00875000 0.00000000
v -0.01237400 0.01237400 0.00000000
v -0.00875000 0.01515500 0.00000000
v -0.02250000 0.03632500 0.00900000
v -0.02250000 -0.03632500 0.00900000
v -0.02150000 0.03632500 0.01000000
v -0.02150000 -0.03632500 0.01000000
v -0.02250000 0.03632500 0.00500000
v -0.02250000 -0.03632500 0.00500000
v 0.02250000 0.03632500 0.00500000
v 0.02250000 -0.03632500 0.00500000
v 0.02250000 0.03632500 0.00900000
v 0.02250000 -0.03632500 0.00900000
v 0.02150000 0.03632500 0.01000000
v 0.02150000 -0.03632500 0.01000000
v 0.00300000 0.04832500 0.01300000
v 0.00800000 0.04332500 0.01300000
v 0.00300000 0.04832500 0.00300000
v 0.00800000 0.04332500 0.00300000
v 0.00827700 0.04332500 0.01556200
v 0.00339200 0.04832500 0.01662900
v 0.00909400 0.04332500 0.01800500
v 0.00454900 0.04832500 0.02009100
v 0.01041400 0.04332500 0.02021800
v 0.00641900 0.04832500 0.02322600
v 0.02639100 0.04332500 0.04143800
v 0.02239700 0.04832500 0.04444500
v 0.01760300 0.04832500 0.04805500
v 0.01360900 0.04332500 0.05106200
v 0.01564000 0.04332500 0.05295800
v 0.01836500 0.04832500 0.04876500
v 0.01819700 0.04332500 0.05404400
v 0.01932400 0.04832500 0.04917300
v 0.02097200 0.04332500 0.05419100
v 0.02036400 0.04832500 0.04922800
v 0.02362900 0.04332500 0.05337900
v 0.02136100 0.04832500 0.04892400
v 0.02584900 0.04332500 0.05170800
v 0.02219300 0.04832500 0.04829700
v 0.02736300 0.04332500 0.04937900
v 0.02276100 0.04832500 0.04742300
v 0.02798900 0.04332500 0.04667200
v 0.02299600 0.04832500 0.04640800
v 0.02765100 0.04332500 0.04391400
v 0.02286900 0.04832500 0.04537400
v -0.00236800 0.04332500 0.02984200
v 0.00162600 0.04832500 0.02683500
v -0.00300000 0.04832500 0.01300000
v -0.00800000 0.04332500 0.01300000
v -0.00763600 0.04332500 0.01749800
v -0.00270100 0.04832500 0.01669500
v -0.00655500 0.04332500 0.02187900
v -0.00181300 0.04832500 0.02029400
v -0.00478300 0.04332500 0.02603000
v -0.00035800 0.04832500 0.02370300
v -0.00800000 0.04332500 0.00300000
v -0.00300000 0.04832500 0.00300000
v -0.01000000 0.04332500 0.00500000
v -0.01000000 0.04332500 0.00400000
v -0.01000000 0.04132500 0.00500000
v -0.01000000 0.04132500 0.00400000
v -0.01028500 0.04332500 0.00627700
v -0.01028500 0.04132500 0.00627700
v -0.01108600 0.04332500 0.00731000
v -0.01108600 0.04132500 0.00731000
v -0.01225100 0.04332500 0.00790500
v -0.01225100 0.04132500 0.00790500
v -0.02074900 0.04332500 0.01009500
v -0.02074900 0.04132500 0.01009500
v -0.02206000 0.04132500 0.01081900
v -0.02206000 0.04332500 0.01081900
v -0.02285800 0.04132500 0.01208700
v -0.02285800 0.04332500 0.01208700
v -0.02294300 0.04132500 0.01358200
v -0.02294300 0.04332500 0.01358200
v -0.02229500 0.04132500 0.01493200
v -0.02229500 0.04332500 0.01493200
v 0.00570500 0.04332500 0.04818200
v 0.00570500 0.04132500 0.04818200
v 0.00600000 0.04132500 0.04848600
v 0.00600000 0.04332500 0.04848600
v 0.01266700 0.04332500 0.05444900
v 0.01266700 0.04132500 0.05444900
v 0.01533600 0.04132500 0.05621200
v 0.01533600 0.04332500 0.05621200
v 0.01840000 0.04132500 0.05713300
v 0.01840000 0.04332500 0.05713300
v 0.02160000 0.04132500 0.05713300
v 0.02160000 0.04332500 0.05713300
v 0.02466400 0.04132500 0.05621200
v 0.02466400 0.04332500 0.05621200
v 0.02733300 0.04132500 0.05444900
v 0.02733300 0.04332500 0.05444900
v 0.03400000 0.04332500 0.04848600
v 0.03400000 0.04132500 0.04848600
v 0.03470700 0.04132500 0.04754200
v 0.03470700 0.04332500 0.04754200
v 0.03499600 0.04132500 0.04639800
v 0.03499600 0.04332500 0.04639800
v 0.03482200 0.04132500 0.04523200
v 0.03482200 0.04332500 0.04523200
v 0.02282200 0.04332500 0.01198200
v 0.02282200 0.04132500 0.01198200
v 0.02201900 0.04132500 0.01078100
v 0.02201900 0.04332500 0.01078100
v 0.02074900 0.04132500 0.01009500
v 0.02074900 0.04332500 0.01009500
v 0.01225100 0.04332500 0.00790500
v 0.01225100 0.04132500 0.00790500
v 0.01108600 0.04332500 0.00731000
v 0.01108600 0.04132500 0.00731000
v 0.01028500 0.04332500 0.00627700
v 0.01028500 0.04132500 0.00627700
v 0.01000000 0.04332500 0.00500000
v 0.01000000 0.04132500 0.00500000
v 0.01000000 0.04332500 0.00400000
v 0.01000000 0.04132500 0.00400000
v 0.00986600 0.04132500 0.00350000
v 0.00986600 0.04332500 0.00350000
v 0.00950000 0.04132500 0.00313400
v 0.00950000 0.04332500 0.00313400
v 0.00900000 0.04132500 0.00300000
v 0.00900000 0.04332500 0.00300000
v -0.00900000 0.04332500 0.00300000
v -0.00900000 0.04132500 0.00300000
v -0.00950000 0.04132500 0.00313400
v -0.00950000 0.04332500 0.00313400
v -0.00986600 0.04132500 0.00350000
v -0.00986600 0.04332500 0.00350000
v -0.02867300 0.03632500 0.01959900
v -0.02876200 0.03632500 0.01982300
v -0.02333600 0.03632500 0.00481500
v 0.02075000 0.03632500 0.00300000
v -0.02075000 0.03632500 0.00300000
v -0.02184100 0.03632500 0.00322600
v -0.02275300 0.03632500 0.00386600
v -0.00950900 0.03632500 0.02068400
v -0.00919800 0.03632500 0.01875100
v 0.03641400 0.03632500 0.04018100
v 0.03738700 0.03632500 0.04426700
v 0.03735900 0.03632500 0.04846800
v -0.00984000 0.03632500 0.01690200
v -0.01128400 0.03632500 0.01557900
v -0.01318200 0.03632500 0.01510000
v -0.01387700 0.03632500 0.01516000
v -0.02569500 0.03632500 0.01724400
v -0.02748100 0.03632500 0.01804600
v 0.00777500 0.03632500 0.05877200
v -0.02779400 0.03632500 0.02404500
v -0.02689800 0.03632500 0.02470400
v 0.03156400 0.03632500 0.05938500
v 0.02810000 0.03632500 0.06176200
v -0.01070100 0.03632500 0.02223700
v 0.01137100 0.03632500 0.06147500
v 0.01553800 0.03632500 0.06317200
v 0.02000000 0.03632500 0.06375000
v -0.02500000 0.03632500 0.02518300
v -0.02430500 0.03632500 0.02512300
v 0.02183500 0.03632500 0.00322300
v 0.02274400 0.03632500 0.00385600
v 0.02332900 0.03632500 0.00479600
v 0.03633000 0.03632500 0.05254000
v 0.03436100 0.03632500 0.05625100
v -0.01248800 0.03632500 0.02303900
v 0.02417000 0.03632500 0.06324600
v -0.02689800 -0.03632500 0.02470400
v -0.02779400 -0.03632500 0.02404500
v 0.00777500 -0.03632500 0.05877200
v -0.02867300 -0.03632500 0.01959900
v 0.03641400 -0.03632500 0.04018100
v -0.02748100 -0.03632500 0.01804600
v -0.02569500 -0.03632500 0.01724400
v -0.02876200 -0.03632500 0.01982300
v -0.02333600 -0.03632500 0.00481500
v -0.02275300 -0.03632500 0.00386600
v -0.02184100 -0.03632500 0.00322600
v 0.03735900 -0.03632500 0.04846800
v 0.03738700 -0.03632500 0.04426700
v 0.02332900 -0.03632500 0.00479600
v 0.02274400 -0.03632500 0.00385600
v -0.01128400 -0.03632500 0.01557900
v -0.01318200 -0.03632500 0.01510000
v -0.01387700 -0.03632500 0.01516000
v 0.03156400 -0.03632500 0.05938500
v 0.03436100 -0.03632500 0.05625100
v -0.00950900 -0.03632500 0.02068400
v 0.02183500 -0.03632500 0.00322300
v 0.02075000 -0.03632500 0.00300000
v -0.02075000 -0.03632500 0.00300000
v -0.00984000 -0.03632500 0.01690200
v -0.00919800 -0.03632500 0.01875100
v 0.03633000 -0.03632500 0.05254000
v 0.01553800 -0.03632500 0.06317200
v 0.02000000 -0.03632500 0.06375000
v -0.01070100 -0.03632500 0.02223700
v 0.02417000 -0.03632500 0.06324600
v 0.02810000 -0.03632500 0.06176200
v -0.01248800 -0.03632500 0.02303900
v -0.02430500 -0.03632500 0.02512300
v -0.02500000 -0.03632500 0.02518300
v 0.01137100 -0.03632500 0.06147500
v -0.02075000 0.04132500 0.00300000
v 0.02075000 0.04132500 0.00300000
v -0.02184100 0.04132500 0.00322600
v -0.02275300 0.04132500 0.00386600
v -0.02876200 0.04132500 0.01982300
v -0.02333600 0.04132500 0.00481500
v 0.02274400 0.04132500 0.00385600
v 0.02183500 0.04132500 0.00322300
v 0.02332900 0.04132500 0.00479600
v 0.03641400 0.04132500 0.04018100
v 0.03738700 0.04132500 0.04426700
v 0.03735900 0.04132500 0.04846800
v 0.00777500 0.04132500 0.05877200
v 0.01137100 0.04132500 0.06147500
v 0.01553800 0.04132500 0.06317200
v 0.02000000 0.04132500 0.06375000
v 0.02417000 0.04132500 0.06324600
v 0.02810000 0.04132500 0.06176200
v 0.03633000 0.04132500 0.05254000
v 0.03436100 0.04132500 0.05625100
v 0.03156400 0.04132500 0.05938500
v -0.02898500 0.04132500 0.02153200
v -0.02779400 0.04132500 0.02404500
v -0.02834200 0.04132500 0.02338100
v -0.02876200 -0.04132500 0.01982300
v -0.02333600 -0.04132500 0.00481500
v 0.02075000 -0.04132500 0.00300000
v 0.00777500 -0.04132500 0.05877200
v -0.02779400 -0.04132500 0.02404500
v 0.02332900 -0.04132500 0.00479600
v 0.03156400 -0.04132500 0.05938500
v 0.02810000 -0.04132500 0.06176200
v -0.02275300 -0.04132500 0.00386600
v -0.02184100 -0.04132500 0.00322600
v -0.02075000 -0.04132500 0.00300000
v 0.03641400 -0.04132500 0.04018100
v 0.03738700 -0.04132500 0.04426700
v 0.03735900 -0.04132500 0.04846800
v -0.02898500 -0.04132500 0.02153200
v -0.02834200 -0.04132500 0.02338100
v 0.02183500 -0.04132500 0.00322300
v 0.02274400 -0.04132500 0.00385600
v 0.03633000 -0.04132500 0.05254000
v 0.03436100 -0.04132500 0.05625100
v 0.02417000 -0.04132500 0.06324600
v 0.02000000 -0.04132500 0.06375000
v 0.01137100 -0.04132500 0.06147500
v 0.01553800 -0.04132500 0.06317200
vn 0.58466152 0.33761615 -0.73768980
vn 0.47739459 0.47739459 -0.73769154
vn 0.22745828 -0.80418645 -0.54913285
vn -0.22745828 0.80418645 -0.54913285
vn -0.58466152 -0.33761615 -0.73768980
vn -0.47739459 -0.47739459 -0.73769154
vn -0.17475189 0.65209546 -0.73772169
vn -0.33761615 0.58466152 -0.73768980
vn -0.22745828 -0.80418645 -0.54913285
vn -0.47739459 0.47739459 -0.73769154
vn -0.58466152 0.33761615 -0.73768980
vn -0.33761615 -0.58466152 -0.73768980
vn -0.17475189 -0.65209546 -0.73772169
vn 0.22745828 0.80418645 -0.54913285
vn -0.00000000 -0.67514298 -0.73768689
vn 0.17475189 -0.65209546 -0.73772169
vn 0.58466152 -0.33761615 -0.73768980
vn 0.65209546 -0.17475189 -0.73772169
vn 0.67514298 -0.00000000 -0.73768689
vn 0.65209546 0.17475189 -0.73772169
vn 0.33761615 0.58466152 -0.73768980
vn 0.17475189 0.65209546 -0.73772169
vn 0.00000000 0.67514298 -0.73768689
vn 0.33761615 -0.58466152 -0.73768980
vn 0.47739459 -0.47739459 -0.73769154
vn -0.65209546 0.17475189 -0.73772169
vn -0.67514298 0.00000000 -0.73768689
vn -0.65209546 -0.17475189 -0.73772169
vn 0.36717339 0.63584681 -0.67888330
vn -0.36717339 -0.63584681 -0.67888330
vn -0.51919143 -0.51919143 -0.67888181
vn 0.51919143 0.51919143 -0.67888181
vn 0.63584681 0.36717339 -0.67888330
vn 0.70924524 0.19006719 -0.67885613
vn 0.36717339 -0.63584681 -0.67888330
vn 0.51919143 -0.51919143 -0.67888181
vn 0.63584681 -0.36717339 -0.67888330
vn 0.00000000 0.73424390 -0.67888577
vn -0.70924524 -0.19006719 -0.67885613
vn -0.19006719 0.70924524 -0.67885613
vn -0.73424390 0.00000000 -0.67888577
vn -0.70924524 0.19006719 -0.67885613
vn -0.63584681 -0.36717339 -0.67888330
vn 0.19006719 0.70924524 -0.67885613
vn 0.73424390 0.00000000 -0.67888577
vn 0.70924524 -0.19006719 -0.67885613
vn 0.19006719 -0.70924524 -0.67885613
vn 0.00000000 -0.73424390 -0.67888577
vn -0.19006719 -0.70924524 -0.67885613
vn -0.63584681 0.36717339 -0.67888330
vn -0.51919143 0.51919143 -0.67888181
vn -0.36717339 0.63584681 -0.67888330
vn -0.54913285 -0.80418645 0.22745828
vn -0.54913285 0.80418645 0.22745828
vn -0.22745828 -0.80418645 0.54913285
vn -0.22745828 0.80418645 0.54913285
vn -0.54913285 -0.80418645 -0.22745828
vn -0.54913285 0.80418645 -0.22745828
vn 0.54913285 -0.80418645 -0.22745828
vn 0.54913285 0.80418645 -0.22745828
vn 0.54913285 -0.80418645 0.22745828
vn 0.54913285 0.80418645 0.22745828
vn 0.22745828 -0.80418645 0.54913285
vn 0.22745828 0.80418645 0.54913285
vn 0.37118184 0.92835490 -0.01952498
vn 0.39352775 0.91905551 -0.02174589
vn 0.29710858 0.71728356 -0.63026247
vn 0.22745828 0.54913285 -0.80418645
vn 0.39525491 0.91449905 -0.08640047
vn 0.35159699 0.93299492 -0.07681174
vn 0.36769734 0.91450784 -0.16874264
vn 0.32704406 0.93301837 -0.15006302
vn 0.32739631 0.91907933 -0.21932814
vn 0.30824206 0.92836512 -0.20766567
vn 0.30903162 0.93099257 -0.19429949
vn 0.34154133 0.91580009 -0.21132844
vn -0.29748116 0.91582205 0.26976827
vn -0.27221183 0.93097547 0.24328049
vn -0.18811846 0.93852038 0.28946664
vn -0.22750949 0.90860669 0.35024750
vn -0.07781835 0.93848796 0.33642926
vn -0.09426323 0.90853107 0.40704513
vn 0.04195857 0.93852224 0.34265942
vn 0.05068385 0.90855063 0.41468892
vn 0.15667393 0.93847582 0.30776031
vn 0.18954341 0.90851021 0.37240098
vn 0.25240492 0.93850390 0.23558900
vn 0.30545869 0.90857385 0.28493605
vn 0.31774350 0.93851282 0.13502870
vn 0.38445632 0.90856787 0.16339452
vn 0.34477294 0.93851006 0.01817917
vn 0.41724487 0.90852781 0.02199840
vn 0.33025895 0.93848822 -0.10084091
vn 0.39950320 0.90858718 -0.12192838
vn -0.30781768 0.92725195 0.21319496
vn -0.32195784 0.92028970 0.22228363
vn -0.39088360 0.92029957 0.01608475
vn -0.37411067 0.92726524 0.01484500
vn -0.36093846 0.93073785 0.05874079
vn -0.39400967 0.91686684 0.06412163
vn -0.34677463 0.93075376 0.11595166
vn -0.37862885 0.91684984 0.12659604
vn -0.32367490 0.93073616 0.17019036
vn -0.35336064 0.91685434 0.18578045
vn -0.22745828 0.54913285 -0.80418645
vn -0.29710858 0.71728356 -0.63026247
vn -0.67653886 0.73262091 -0.07457737
vn -0.72797497 0.67886952 -0.09585728
vn -0.72578203 0.68325657 -0.08000563
vn -0.66934429 0.73770597 -0.08813699
vn -0.58847462 0.75968067 -0.27673616
vn -0.67894614 0.66112903 -0.31928131
vn -0.41488475 0.75956118 -0.50093659
vn -0.47851459 0.66122051 -0.57776399
vn -0.24115819 0.73266805 -0.63642773
vn -0.25874430 0.68321538 -0.68283829
vn -0.27092136 0.67984944 -0.68147366
vn -0.24987198 0.73655875 -0.62852621
vn -0.43988130 0.76783348 -0.46576408
vn -0.51882446 0.65500630 -0.54935229
vn -0.61019929 0.76788463 -0.19496162
vn -0.71980849 0.65496861 -0.22998229
vn -0.62849247 0.76780810 0.12437014
vn -0.74123357 0.65502500 0.14668007
vn -0.56808025 0.73656158 0.36709925
vn -0.61594039 0.67984702 0.39802696
vn -0.53024528 0.69926184 0.47945054
vn -0.51847547 0.71512380 0.46880821
vn -0.48409819 0.71514968 0.50419230
vn -0.49512316 0.69923706 0.51567489
vn -0.44129393 0.69105741 0.57245029
vn -0.42121485 0.72389310 0.54640354
vn -0.28457139 0.74133604 0.60781576
vn -0.31253346 0.67580566 0.66753993
vn -0.09763174 0.74136495 0.66396239
vn -0.10723340 0.67578148 0.72926017
vn 0.09763174 0.74136495 0.66396239
vn 0.10723340 0.67578148 0.72926017
vn 0.28457139 0.74133604 0.60781576
vn 0.31253346 0.67580566 0.66753993
vn 0.42121485 0.72389310 0.54640354
vn 0.44129393 0.69105741 0.57245029
vn 0.53670281 0.68549525 0.49198207
vn 0.50374409 0.73007582 0.46176964
vn 0.59275942 0.75410089 0.28278636
vn 0.67369852 0.66545659 0.32139979
vn 0.65592015 0.75412613 0.03259660
vn 0.74553418 0.66543676 0.03705006
vn 0.66259010 0.73007118 -0.16724361
vn 0.70593286 0.68549935 -0.17818371
vn 0.65374294 0.68081823 -0.33031304
vn 0.60478459 0.73543105 -0.30557613
vn 0.43307002 0.76550954 -0.47586291
vn 0.50758090 0.65672803 -0.55773643
vn 0.24738779 0.73543625 -0.63081916
vn 0.26741801 0.68081375 -0.68189460
vn 0.24115819 0.73266805 -0.63642773
vn 0.25874430 0.68321538 -0.68283829
vn 0.41488475 0.75956118 -0.50093659
vn 0.47851459 0.66122051 -0.57776399
vn 0.58847462 0.75968067 -0.27673616
vn 0.67894614 0.66112903 -0.31928131
vn 0.67653886 0.73262091 -0.07457737
vn 0.72578203 0.68325657 -0.08000563
vn 0.72797497 0.67886952 -0.09585728
vn 0.66934429 0.73770597 -0.08813699
vn 0.55228724 0.77025576 -0.31888064
vn 0.65570955 0.65323117 -0.37859481
vn 0.31888064 0.77025576 -0.55228724
vn 0.37859481 0.65323117 -0.65570955
vn 0.06507661 0.04190630 -0.99699995
vn 0.09585728 0.67886952 -0.72797497
vn -0.09585728 0.67886952 -0.72797497
vn -0.06507661 0.04190630 -0.99699995
vn -0.31888064 0.77025576 -0.55228724
vn -0.37859481 0.65323117 -0.65570955
vn -0.55228724 0.77025576 -0.31888064
vn -0.65570955 0.65323117 -0.37859481
vn -0.58539804 -0.73947401 -0.33239634
vn -0.96984615 -0.00501196 -0.24366642
vn -0.65645127 -0.68489371 -0.31621563
vn 0.07371153 -0.68502674 -0.72477926
vn -0.07429008 -0.68486334 -0.72487460
vn -0.29664562 -0.66425909 -0.68612042
vn -0.54446279 -0.66422388 -0.51221764
vn 0.58960717 -0.76664008 0.25421720
vn 0.63984113 -0.76646252 -0.05602258
vn 0.68926022 -0.69381071 -0.20867931
vn 0.72749050 -0.68108293 -0.08296758
vn 0.72634036 -0.68104003 0.09281248
vn 0.53651970 -0.76661403 -0.35277407
vn 0.30474263 -0.76656061 -0.56525814
vn 0.05354303 -0.74642238 -0.66331499
vn -0.09056831 -0.71719207 -0.69096521
vn -0.19897253 -0.73597584 -0.64710856
vn -0.39836870 -0.76651115 -0.50374899
vn -0.46944471 -0.69289894 0.54727756
vn -0.71187015 -0.02227414 0.70195780
vn -0.28065652 -0.75305118 0.59510153
vn 0.48380507 -0.68105061 0.54963872
vn 0.33891209 -0.68109246 0.64903902
vn 0.39829638 -0.76653767 0.50376581
vn -0.36187662 -0.67928359 0.63845055
vn -0.18709226 -0.67927453 0.70963554
vn -0.00313047 -0.68018541 0.73303343
vn -0.05354303 -0.74642238 0.66331499
vn 0.09057308 -0.71719374 0.69096285
vn 0.29480034 -0.66446019 -0.68672076
vn 0.54190975 -0.66443599 -0.51464419
vn 0.65423914 -0.68504961 -0.32043437
vn 0.68325861 -0.68109806 0.26317885
vn 0.60092451 -0.68104319 0.41841357
vn 0.19891815 -0.73594889 0.64715593
vn 0.17452982 -0.68104824 0.71113475
vn -0.28065652 0.75305118 0.59510153
vn -0.71187015 0.02227414 0.70195780
vn -0.46944471 0.69289894 0.54727756
vn -0.58539804 0.73947401 -0.33239634
vn 0.68926022 0.69381071 -0.20867931
vn -0.39836870 0.76651115 -0.50374899
vn -0.19897253 0.73597584 -0.64710856
vn -0.96984615 0.00501196 -0.24366642
vn -0.65645127 0.68489371 -0.31621563
vn -0.54446279 0.66422388 -0.51221764
vn -0.29664562 0.66425909 -0.68612042
vn 0.72634036 0.68104003 0.09281248
vn 0.72749050 0.68108293 -0.08296758
vn 0.65423914 0.68504961 -0.32043437
vn 0.54190975 0.66443599 -0.51464419
vn 0.30474263 0.76656061 -0.56525814
vn 0.05354303 0.74642238 -0.66331499
vn -0.09056831 0.71719207 -0.69096521
vn 0.48380507 0.68105061 0.54963872
vn 0.60092451 0.68104319 0.41841357
vn 0.58960717 0.76664008 0.25421720
vn 0.29480034 0.66446019 -0.68672076
vn 0.07371153 0.68502674 -0.72477926
vn -0.07429008 0.68486334 -0.72487460
vn 0.53651970 0.76661403 -0.35277407
vn 0.63984113 0.76646252 -0.05602258
vn 0.68325861 0.68109806 0.26317885
vn -0.18709226 0.67927453 0.70963554
vn -0.00313047 0.68018541 0.73303343
vn 0.39829638 0.76653767 0.50376581
vn 0.17452982 0.68104824 0.71113475
vn 0.33891209 0.68109246 0.64903902
vn 0.19891815 0.73594889 0.64715593
vn 0.09057308 0.71719374 0.69096285
vn -0.05354303 0.74642238 0.66331499
vn -0.36187662 0.67928359 0.63845055
vn -0.07429008 0.68486334 -0.72487460
vn 0.07371153 0.68502674 -0.72477926
vn -0.29664562 0.66425909 -0.68612042
vn -0.54446279 0.66422388 -0.51221764
vn -0.70930805 0.68350924 -0.17232878
vn -0.65645127 0.68489371 -0.31621563
vn 0.54190975 0.66443599 -0.51464419
vn 0.29480034 0.66446019 -0.68672076
vn 0.65423914 0.68504961 -0.32043437
vn 0.68926022 0.69381071 -0.20867931
vn 0.72749050 0.68108293 -0.08296758
vn 0.72634036 0.68104003 0.09281248
vn -0.46944471 0.69289894 0.54727756
vn -0.36187662 0.67928359 0.63845055
vn -0.18709226 0.67927453 0.70963554
vn -0.00313047 0.68018541 0.73303343
vn 0.17452982 0.68104824 0.71113475
vn 0.33891209 0.68109246 0.64903902
vn 0.68325861 0.68109806 0.26317885
vn 0.60092451 0.68104319 0.41841357
vn 0.48380507 0.68105061 0.54963872
vn -0.74838052 0.65879089 0.07694903
vn -0.52902056 0.69522353 0.48662253
vn -0.64751053 0.66940984 0.36417107
vn -0.70930805 -0.68350924 -0.17232878
vn -0.65645127 -0.68489371 -0.31621563
vn 0.07371153 -0.68502674 -0.72477926
vn -0.46944471 -0.69289894 0.54727756
vn -0.52902056 -0.69522353 0.48662253
vn 0.65423914 -0.68504961 -0.32043437
vn 0.48380507 -0.68105061 0.54963872
vn 0.33891209 -0.68109246 0.64903902
vn -0.54446279 -0.66422388 -0.51221764
vn -0.29664562 -0.66425909 -0.68612042
vn -0.07429008 -0.68486334 -0.72487460
vn 0.68926022 -0.69381071 -0.20867931
vn 0.72749050 -0.68108293 -0.08296758
vn 0.72634036 -0.68104003 0.09281248
vn -0.74838052 -0.65879089 0.07694903
vn -0.64751053 -0.66940984 0.36417107
vn 0.29480034 -0.66446019 -0.68672076
vn 0.54190975 -0.66443599 -0.51464419
vn 0.68325861 -0.68109806 0.26317885
vn 0.60092451 -0.68104319 0.41841357
vn 0.17452982 -0.68104824 0.71113475
vn -0.00313047 -0.68018541 0.73303343
vn -0.36187662 -0.67928359 0.63845055
vn -0.18709226 -0.67927453 0.70963554
f 1//1 2//2 3//3
f 4//4 5//5 6//6
f 7//7 8//8 9//9
f 9//9 8//8 10//10
f 9//9 10//10 11//11
f 6//6 12//12 4//4
f 4//4 12//12 13//13
f 4//4 13//13 14//14
f 14//14 13//13 15//15
f 14//14 15//15 16//16
f 17//17 18//18 14//14
f 14//14 18//18 19//19
f 14//14 19//19 3//3
f 3//3 19//19 20//20
f 3//3 20//20 1//1
f 2//2 21//21 3//3
f 3//3 21//21 22//22
f 3//3 22//22 9//9
f 9//9 22//22 23//23
f 9//9 23//23 7//7
f 16//16 24//24 14//14
f 14//14 24//24 25//25
f 14//14 25//25 17//17
f 11//11 26//26 9//9
f 9//9 26//26 27//27
f 9//9 27//27 4//4
f 4//4 27//27 28//28
f 4//4 28//28 5//5
f 29//29 30//30 31//31
f 29//29 32//32 30//30
f 30//30 32//32 33//33
f 30//30 33//33 34//34
f 35//35 30//30 36//36
f 36//36 30//30 37//37
f 38//38 39//39 40//40
f 40//40 39//39 41//41
f 40//40 41//41 42//42
f 31//31 43//43 29//29
f 29//29 43//43 39//39
f 29//29 39//39 44//44
f 44//44 39//39 38//38
f 34//34 45//45 30//30
f 30//30 45//45 46//46
f 30//30 46//46 37//37
f 35//35 47//47 30//30
f 30//30 47//47 48//48
f 30//30 48//48 49//49
f 42//42 50//50 40//40
f 40//40 50//50 51//51
f 40//40 51//51 52//52
f 19//19 45//45 34//34
f 19//19 34//34 20//20
f 20//20 34//34 33//33
f 20//20 33//33 1//1
f 1//1 33//33 32//32
f 1//1 32//32 2//2
f 2//2 32//32 29//29
f 2//2 29//29 21//21
f 21//21 29//29 44//44
f 21//21 44//44 22//22
f 22//22 44//44 38//38
f 22//22 38//38 23//23
f 23//23 38//38 40//40
f 23//23 40//40 7//7
f 7//7 40//40 52//52
f 7//7 52//52 8//8
f 8//8 52//52 51//51
f 8//8 51//51 10//10
f 10//10 51//51 50//50
f 10//10 50//50 11//11
f 11//11 50//50 42//42
f 11//11 42//42 26//26
f 26//26 42//42 41//41
f 26//26 41//41 27//27
f 53//53 54//54 55//55
f 55//55 54//54 56//56
f 57//57 58//58 53//53
f 53//53 58//58 54//54
f 9//9 4//4 57//57
f 57//57 4//4 58//58
f 59//59 60//60 3//3
f 3//3 60//60 14//14
f 61//61 62//62 59//59
f 59//59 62//62 60//60
f 63//63 64//64 61//61
f 61//61 64//64 62//62
f 55//55 56//56 63//63
f 63//63 56//56 64//64
f 65//65 66//66 67//67
f 67//67 66//66 68//68
f 66//66 65//65 69//69
f 69//69 65//65 70//70
f 69//69 70//70 71//71
f 71//71 70//70 72//72
f 71//71 72//72 73//73
f 73//73 72//72 74//74
f 73//73 74//74 75//75
f 75//75 74//74 76//76
f 77//77 78//78 79//79
f 77//77 79//79 80//80
f 80//80 79//79 81//81
f 80//80 81//81 82//82
f 82//82 81//81 83//83
f 82//82 83//83 84//84
f 84//84 83//83 85//85
f 84//84 85//85 86//86
f 86//86 85//85 87//87
f 86//86 87//87 88//88
f 88//88 87//87 89//89
f 88//88 89//89 90//90
f 90//90 89//89 91//91
f 90//90 91//91 92//92
f 92//92 91//91 93//93
f 92//92 93//93 94//94
f 94//94 93//93 75//75
f 94//94 75//75 76//76
f 78//78 77//77 95//95
f 95//95 77//77 96//96
f 97//97 98//98 99//99
f 97//97 99//99 100//100
f 100//100 99//99 101//101
f 100//100 101//101 102//102
f 102//102 101//101 103//103
f 102//102 103//103 104//104
f 104//104 103//103 95//95
f 104//104 95//95 96//96
f 98//98 97//97 105//105
f 105//105 97//97 106//106
f 67//67 106//106 65//65
f 65//65 106//106 97//97
f 65//65 97//97 70//70
f 97//97 100//100 70//70
f 70//70 100//100 102//102
f 70//70 102//102 72//72
f 72//72 102//102 104//104
f 72//72 104//104 74//74
f 74//74 104//104 96//96
f 74//74 96//96 76//76
f 96//96 77//77 76//76
f 76//76 77//77 80//80
f 76//76 80//80 82//82
f 82//82 84//84 76//76
f 76//76 84//84 86//86
f 76//76 86//86 88//88
f 88//88 90//90 76//76
f 76//76 90//90 92//92
f 76//76 92//92 94//94
f 107//107 108//108 109//109
f 109//109 108//108 110//110
f 107//107 109//109 111//111
f 111//111 109//109 112//112
f 111//111 112//112 113//113
f 113//113 112//112 114//114
f 113//113 114//114 115//115
f 115//115 114//114 116//116
f 117//117 115//115 118//118
f 118//118 115//115 116//116
f 117//117 118//118 119//119
f 117//117 119//119 120//120
f 120//120 119//119 121//121
f 120//120 121//121 122//122
f 122//122 121//121 123//123
f 122//122 123//123 124//124
f 124//124 123//123 125//125
f 124//124 125//125 126//126
f 127//127 126//126 128//128
f 128//128 126//126 125//125
f 128//128 129//129 127//127
f 127//127 129//129 130//130
f 131//131 130//130 132//132
f 132//132 130//130 129//129
f 131//131 132//132 133//133
f 131//131 133//133 134//134
f 134//134 133//133 135//135
f 134//134 135//135 136//136
f 136//136 135//135 137//137
f 136//136 137//137 138//138
f 138//138 137//137 139//139
f 138//138 139//139 140//140
f 140//140 139//139 141//141
f 140//140 141//141 142//142
f 143//143 142//142 144//144
f 144//144 142//142 141//141
f 143//143 144//144 145//145
f 143//143 145//145 146//146
f 146//146 145//145 147//147
f 146//146 147//147 148//148
f 148//148 147//147 149//149
f 148//148 149//149 150//150
f 151//151 150//150 152//152
f 152//152 150//150 149//149
f 151//151 152//152 153//153
f 151//151 153//153 154//154
f 154//154 153//153 155//155
f 154//154 155//155 156//156
f 157//157 156//156 158//158
f 158//158 156//156 155//155
f 157//157 158//158 159//159
f 159//159 158//158 160//160
f 159//159 160//160 161//161
f 161//161 160//160 162//162
f 161//161 162//162 163//163
f 163//163 162//162 164//164
f 165//165 163//163 166//166
f 166//166 163//163 164//164
f 165//165 166//166 167//167
f 165//165 167//167 168//168
f 168//168 167//167 169//169
f 168//168 169//169 170//170
f 170//170 169//169 171//171
f 170//170 171//171 172//172
f 173//173 174//174 175//175
f 173//173 175//175 176//176
f 176//176 175//175 177//177
f 176//176 177//177 178//178
f 178//178 177//177 110//110
f 178//178 110//110 108//108
f 179//179 180//180 181//181
f 182//182 3//3 183//183
f 183//183 3//3 9//9
f 183//183 9//9 184//184
f 184//184 9//9 185//185
f 185//185 9//9 57//57
f 185//185 57//57 181//181
f 181//181 57//57 53//53
f 181//181 53//53 179//179
f 186//186 187//187 63//63
f 188//188 189//189 190//190
f 187//187 191//191 63//63
f 63//63 191//191 192//192
f 63//63 192//192 55//55
f 55//55 192//192 193//193
f 193//193 194//194 55//55
f 55//55 194//194 195//195
f 55//55 195//195 53//53
f 53//53 195//195 196//196
f 53//53 196//196 179//179
f 197//197 198//198 199//199
f 200//200 201//201 202//202
f 203//203 197//197 204//204
f 204//204 197//197 205//205
f 197//197 199//199 205//205
f 205//205 199//199 206//206
f 205//205 206//206 207//207
f 182//182 208//208 3//3
f 3//3 208//208 209//209
f 3//3 209//209 59//59
f 59//59 209//209 210//210
f 59//59 210//210 61//61
f 61//61 210//210 188//188
f 61//61 188//188 63//63
f 63//63 188//188 190//190
f 63//63 190//190 186//186
f 186//186 190//190 211//211
f 186//186 211//211 202//202
f 202//202 211//211 212//212
f 202//202 212//212 200//200
f 207//207 213//213 205//205
f 205//205 213//213 202//202
f 205//205 202//202 214//214
f 214//214 202//202 201//201
f 215//215 216//216 217//217
f 218//218 54//54 58//58
f 60//60 62//62 219//219
f 218//218 220//220 54//54
f 54//54 220//220 221//221
f 54//54 221//221 56//56
f 222//222 218//218 223//223
f 223//223 218//218 58//58
f 223//223 58//58 224//224
f 224//224 58//58 4//4
f 224//224 4//4 225//225
f 62//62 64//64 219//219
f 219//219 64//64 226//226
f 219//219 226//226 227//227
f 219//219 228//228 60//60
f 60//60 228//228 229//229
f 60//60 229//229 14//14
f 230//230 64//64 231//231
f 231//231 64//64 56//56
f 231//231 56//56 232//232
f 232//232 56//56 221//221
f 233//233 234//234 235//235
f 229//229 236//236 14//14
f 14//14 236//236 237//237
f 14//14 237//237 4//4
f 4//4 237//237 238//238
f 4//4 238//238 225//225
f 230//230 239//239 64//64
f 64//64 239//239 240//240
f 64//64 240//240 226//226
f 226//226 240//240 235//235
f 226//226 235//235 241//241
f 241//241 235//235 234//234
f 242//242 243//243 244//244
f 244//244 243//243 245//245
f 244//244 245//245 235//235
f 235//235 245//245 246//246
f 235//235 246//246 233//233
f 247//247 248//248 217//217
f 217//217 248//248 249//249
f 217//217 249//249 215//215
f 247//247 217//217 244//244
f 244//244 217//217 250//250
f 244//244 250//250 242//242
f 247//247 213//213 248//248
f 248//248 213//213 207//207
f 213//213 247//247 244//244
f 213//213 244//244 202//202
f 202//202 244//244 235//235
f 202//202 235//235 186//186
f 186//186 235//235 240//240
f 186//186 240//240 187//187
f 187//187 240//240 239//239
f 187//187 239//239 191//191
f 191//191 239//239 230//230
f 191//191 230//230 192//192
f 192//192 230//230 231//231
f 192//192 231//231 193//193
f 221//221 195//195 232//232
f 232//232 195//195 194//194
f 207//207 206//206 248//248
f 248//248 206//206 249//249
f 175//175 174//174 251//251
f 175//175 251//251 177//177
f 171//171 169//169 252//252
f 252//252 169//169 167//167
f 251//251 253//253 254//254
f 255//255 121//121 256//256
f 256//256 121//121 119//119
f 256//256 119//119 254//254
f 257//257 258//258 252//252
f 160//160 158//158 257//257
f 257//257 158//158 155//155
f 257//257 155//155 259//259
f 119//119 118//118 254//254
f 254//254 118//118 116//116
f 254//254 116//116 114//114
f 155//155 153//153 259//259
f 259//259 153//153 152//152
f 259//259 152//152 260//260
f 260//260 152//152 149//149
f 260//260 149//149 261//261
f 261//261 149//149 262//262
f 177//177 251//251 110//110
f 110//110 251//251 254//254
f 110//110 254//254 109//109
f 109//109 254//254 114//114
f 109//109 114//114 112//112
f 167//167 166//166 252//252
f 252//252 166//166 164//164
f 252//252 164//164 257//257
f 257//257 164//164 162//162
f 257//257 162//162 160//160
f 132//132 263//263 133//133
f 133//133 263//263 264//264
f 133//133 264//264 135//135
f 264//264 265//265 135//135
f 135//135 265//265 266//266
f 135//135 266//266 137//137
f 137//137 266//266 267//267
f 137//137 267//267 139//139
f 139//139 267//267 268//268
f 139//139 268//268 141//141
f 149//149 147//147 262//262
f 262//262 147//147 145//145
f 262//262 145//145 269//269
f 269//269 145//145 144//144
f 269//269 144//144 270//270
f 270//270 144//144 141//141
f 270//270 141//141 271//271
f 271//271 141//141 268//268
f 272//272 125//125 255//255
f 255//255 125//125 123//123
f 255//255 123//123 121//121
f 132//132 129//129 263//263
f 263//263 129//129 128//128
f 263//263 128//128 273//273
f 273//273 128//128 125//125
f 273//273 125//125 274//274
f 274//274 125//125 272//272
f 275//275 276//276 277//277
f 278//278 279//279 280//280
f 281//281 282//282 278//278
f 283//283 284//284 276//276
f 276//276 284//284 285//285
f 276//276 285//285 277//277
f 280//280 286//286 278//278
f 278//278 286//286 287//287
f 278//278 287//287 288//288
f 289//289 275//275 290//290
f 290//290 275//275 277//277
f 290//290 277//277 279//279
f 279//279 277//277 291//291
f 279//279 291//291 280//280
f 280//280 291//291 292//292
f 288//288 293//293 278//278
f 278//278 293//293 294//294
f 278//278 294//294 281//281
f 282//282 295//295 278//278
f 278//278 295//295 296//296
f 278//278 296//296 297//297
f 297//297 296//296 298//298
f 188//188 260//260 261//261
f 188//188 261//261 189//189
f 189//189 261//261 262//262
f 189//189 262//262 190//190
f 190//190 262//262 269//269
f 190//190 269//269 211//211
f 211//211 269//269 270//270
f 211//211 270//270 212//212
f 212//212 270//270 271//271
f 212//212 271//271 200//200
f 200//200 271//271 268//268
f 200//200 268//268 201//201
f 201//201 268//268 267//267
f 201//201 267//267 214//214
f 214//214 267//267 266//266
f 214//214 266//266 205//205
f 286//286 219//219 227//227
f 286//286 227//227 287//287
f 287//287 227//227 226//226
f 287//287 226//226 288//288
f 288//288 226//226 241//241
f 288//288 241//241 293//293
f 293//293 241//241 234//234
f 293//293 234//234 294//294
f 294//294 234//234 233//233
f 294//294 233//233 281//281
f 281//281 233//233 246//246
f 281//281 246//246 282//282
f 282//282 246//246 245//245
f 282//282 245//245 295//295
f 295//295 245//245 243//243
f 295//295 243//243 296//296
f 197//197 263//263 198//198
f 198//198 263//263 273//273
f 216//216 279//279 217//217
f 217//217 279//279 278//278
f 180//180 255//255 181//181
f 181//181 255//255 256//256
f 223//223 276//276 222//222
f 222//222 276//276 275//275
f 181//181 256//256 254//254
f 181//181 254//254 185//185
f 185//185 254//254 253//253
f 185//185 253//253 184//184
f 184//184 253//253 251//251
f 184//184 251//251 183//183
f 276//276 223//223 224//224
f 276//276 224//224 283//283
f 283//283 224//224 225//225
f 283//283 225//225 284//284
f 284//284 225//225 238//238
f 284//284 238//238 285//285
f 68//68 172//172 171//171
f 252//252 182//182 171//171
f 171//171 182//182 183//183
f 174//174 173//173 105//105
f 105//105 106//106 67//67
f 67//67 68//68 105//105
f 105//105 68//68 171//171
f 105//105 171//171 174//174
f 174//174 171//171 183//183
f 174//174 183//183 251//251
f 237//237 277//277 238//238
f 238//238 277//277 285//285
f 182//182 252//252 258//258
f 182//182 258//258 208//208
f 208//208 258//258 257//257
f 208//208 257//257 209//209
f 209//209 257//257 259//259
f 209//209 259//259 210//210
f 277//277 237//237 236//236
f 277//277 236//236 291//291
f 291//291 236//236 229//229
f 291//291 229//229 292//292
f 292//292 229//229 228//228
f 292//292 228//228 280//280
f 210//210 259//259 188//188
f 188//188 259//259 260//260
f 219//219 286//286 228//228
f 228//228 286//286 280//280
f 71//71 73//73 159//159
f 68//68 66//66 161//161
f 159//159 73//73 157//157
f 165//165 168//168 170//170
f 101//101 99//99 113//113
f 113//113 99//99 98//98
f 113//113 98//98 111//111
f 111//111 98//98 107//107
f 161//161 66//66 159//159
f 159//159 66//66 69//69
f 159//159 69//69 71//71
f 161//161 163//163 68//68
f 68//68 163//163 165//165
f 68//68 165//165 172//172
f 172//172 165//165 170//170
f 173//173 176//176 178//178
f 98//98 105//105 107//107
f 107//107 105//105 173//173
f 107//107 173//173 108//108
f 108//108 173//173 178//178
f 150//150 151//151 73//73
f 157//157 73//73 156//156
f 156//156 73//73 151//151
f 156//156 151//151 154//154
f 73//73 75//75 150//150
f 150//150 75//75 93//93
f 150//150 93//93 148//148
f 148//148 93//93 91//91
f 126//126 127//127 95//95
f 95//95 127//127 78//78
f 127//127 130//130 78//78
f 78//78 130//130 131//131
f 78//78 131//131 79//79
f 79//79 131//131 134//134
f 79//79 134//134 81//81
f 81//81 134//134 136//136
f 81//81 136//136 83//83
f 83//83 136//136 138//138
f 83//83 138//138 85//85
f 85//85 138//138 140//140
f 85//85 140//140 87//87
f 87//87 140//140 142//142
f 87//87 142//142 89//89
f 89//89 142//142 143//143
f 89//89 143//143 91//91
f 91//91 143//143 146//146
f 91//91 146//146 148//148
f 113//113 115//115 101//101
f 101//101 115//115 117//117
f 101//101 117//117 120//120
f 95//95 103//103 126//126
f 126//126 103//103 101//101
f 126//126 101//101 124//124
f 124//124 101//101 120//120
f 124//124 120//120 122//122
f 296//296 243//243 242//242
f 296//296 242//242 298//298
f 298//298 242//242 250//250
f 298//298 250//250 297//297
f 297//297 250//250 217//217
f 297//297 217//217 278//278
f 205//205 266//266 265//265
f 205//205 265//265 204//204
f 204//204 265//265 264//264
f 204//204 264//264 203//203
f 203//203 264//264 263//263
f 203//203 263//263 197//197
f 222//222 275//275 289//289
f 198//198 273//273 274//274
f 290//290 279//279 216//216
f 272//272 255//255 180//180
f 180//180 179//179 218//218
f 218//218 179//179 196//196
f 218//218 196//196 220//220
f 220//220 196//196 195//195
f 220//220 195//195 221//221
f 216//216 215//215 199//199
f 199//199 215//215 249//249
f 199//199 249//249 206//206
f 218//218 222//222 180//180
f 180//180 222//222 289//289
f 180//180 289//289 272//272
f 272//272 289//289 290//290
f 272//272 290//290 274//274
f 274//274 290//290 216//216
f 274//274 216//216 198//198
f 198//198 216//216 199//199
f 231//231 232//232 193//193
f 193//193 232//232 194//194
f 27//27 41//41 39//39
f 27//27 39//39 28//28
f 28//28 39//39 43//43
f 28//28 43//43 5//5
f 5//5 43//43 31//31
f 5//5 31//31 6//6
f 6//6 31//31 30//30
f 6//6 30//30 12//12
f 12//12 30//30 49//49
f 12//12 49//49 13//13
f 13//13 49//49 48//48
f 13//13 48//48 15//15
f 15//15 48//48 47//47
f 15//15 47//47 16//16
f 16//16 47//47 35//35
f 16//16 35//35 24//24
f 24//24 35//35 36//36
f 24//24 36//36 25//25
f 25//25 36//36 37//37
f 25//25 37//37 17//17
f 17//17 37//37 46//46
f 17//17 46//46 18//18
f 18//18 46//46 45//45
f 18//18 45//45 19//19

