# https://github.com/mikedh/trimesh

o link_3.obj
v 0.05319700 -0.01932500 0.04333500
v 0.06064000 -0.01932500 0.03589200
v 0.05790000 -0.02036300 0.03315200
v 0.04333500 -0.01932500 0.05319700
v 0.03315200 -0.02036300 0.05790000
v 0.03589200 -0.01932500 0.06064000
v 0.03880200 -0.03595700 0.01405400
v 0.01405400 -0.03595700 0.03880200
v 0.03783000 -0.03632500 0.01308100
v 0.01308100 -0.03632500 0.03783000
v -0.01616800 -0.03632500 -0.00669700
v -0.01750000 -0.03632500 0.00000000
v -0.01616800 -0.03632500 0.00669700
v 0.00669700 -0.03632500 -0.01616800
v -0.00000000 -0.03632500 -0.01750000
v -0.00669700 -0.03632500 -0.01616800
v -0.01237400 -0.03632500 0.01237400
v 0.01237400 -0.03632500 -0.01237400
v -0.01237400 -0.03632500 -0.01237400
v 0.01582200 -0.04028700 0.04057000
v 0.01308100 -0.04132500 0.03783000
v 0.04057000 -0.04028700 0.01582200
v 0.03783000 -0.04132500 0.01308100
v 0.05966800 -0.02469300 0.03491900
v 0.03491900 -0.02469300 0.05966800
v 0.06064000 -0.02432500 0.03589200
v 0.03589200 -0.02432500 0.06064000
v 0.07237400 -0.02432500 0.07237400
v 0.06669700 -0.02432500 0.07616800
v 0.07237400 -0.02432500 0.04762600
v 0.04762600 -0.02432500 0.07237400
v 0.05330300 -0.02432500 0.07616800
v 0.06000000 -0.02432500 0.07750000
v 0.07616800 -0.02432500 0.05330300
v 0.07750000 -0.02432500 0.06000000
v 0.07616800 -0.02432500 0.06669700
v 0.01237400 -0.04132500 -0.01237400
v -0.01237400 -0.04132500 0.01237400
v -0.01616800 -0.04132500 0.00669700
v -0.01750000 -0.04132500 0.00000000
v -0.01616800 -0.04132500 -0.00669700
v -0.01237400 -0.04132500 -0.01237400
v 0.00669700 -0.04132500 -0.01616800
v 0.00000000 -0.04132500 -0.01750000
v -0.00669700 -0.04132500 -0.01616800
v 0.06000000 -0.01932500 0.04200000
v 0.05384400 -0.01932500 0.04308600
v 0.06367400 -0.01932500 0.04237900
v 0.06719400 -0.01932500 0.04350000
v 0.06882400 -0.01932500 0.04407500
v 0.07237400 -0.01932500 0.04762600
v 0.07616800 -0.01932500 0.05330300
v 0.07750000 -0.01932500 0.06000000
v 0.04464700 -0.01932500 0.06939500
v 0.04762600 -0.01932500 0.07237400
v 0.04441200 -0.01932500 0.06900000
v 0.04227300 -0.01932500 0.06312600
v 0.04227300 -0.01932500 0.05687400
v 0.26025600 0.02870000 0.04050600
v 0.25868100 0.03070000 0.03927400
v 0.25889200 0.02870000 0.04225000
v 0.25635200 0.03070000 0.04225000
v 0.26090300 0.02870000 0.03916900
v 0.25895800 0.03070000 0.03870000
v 0.26093600 0.02870000 0.03768300
v 0.25897300 0.03070000 0.03806400
v 0.26035000 0.02870000 0.03631800
v 0.25872100 0.03070000 0.03747900
v 0.25925000 0.02870000 0.03531800
v 0.25825000 0.03070000 0.03705000
v 0.25380700 0.02870000 0.03289500
v 0.25318900 0.03070000 0.03479700
v 0.24500000 0.02870000 0.03150000
v 0.24500000 0.03070000 0.03350000
v 0.24039800 0.03070000 0.03390300
v 0.24005100 0.02870000 0.03193300
v 0.21400000 0.03070000 0.03855700
v 0.21365300 0.02870000 0.03658800
v 0.21077800 0.02793000 0.03709500
v 0.21012500 0.02966200 0.03906400
v 0.21216400 0.02850400 0.03685000
v 0.21199400 0.03043600 0.03882000
v 0.19274300 0.01962600 0.04212900
v 0.19339600 0.01789400 0.04015900
v 0.19161800 0.01932500 0.04250400
v 0.19127100 0.01732500 0.04053400
v 0.18133100 0.01932500 0.04431800
v 0.18098400 0.01732500 0.04234800
v 0.17924800 0.01732500 0.04250000
v 0.17924800 0.01932500 0.04450000
v 0.07199000 0.01932500 0.04450000
v 0.07199000 0.01732500 0.04250000
v 0.06882400 0.01932500 0.04407500
v 0.06799300 0.01732500 0.04166700
v 0.06719400 0.01932500 0.04350000
v 0.06408200 0.01732500 0.04042100
v 0.06367400 0.01932500 0.04237900
v 0.06000000 0.01732500 0.04000000
v 0.06000000 0.01932500 0.04200000
v 0.07199000 0.01732500 0.07750000
v 0.07199000 0.01932500 0.07550000
v 0.06799300 0.01732500 0.07833300
v 0.06719400 0.01932500 0.07650000
v 0.17924800 0.01932500 0.07550000
v 0.17924800 0.01732500 0.07750000
v 0.18098400 0.01732500 0.07765200
v 0.18133100 0.01932500 0.07568200
v 0.19161800 0.01932500 0.07749600
v 0.19127100 0.01732500 0.07946600
v 0.19339600 0.01789400 0.07984100
v 0.19274300 0.01962600 0.07787100
v 0.19219900 0.01940100 0.07769000
v 0.21012500 0.02966200 0.08093600
v 0.21077800 0.02793000 0.08290500
v 0.21199400 0.03043600 0.08118000
v 0.21216400 0.02850400 0.08315000
v 0.21400000 0.03070000 0.08144300
v 0.21365300 0.02870000 0.08341200
v 0.24039800 0.03070000 0.08609700
v 0.24005100 0.02870000 0.08806700
v 0.24500000 0.02870000 0.08850000
v 0.24654100 0.03070000 0.08645500
v 0.25925000 0.02870000 0.08468200
v 0.25825000 0.03070000 0.08295000
v 0.25380700 0.02870000 0.08710500
v 0.25260000 0.03070000 0.08538700
v 0.25317400 0.02870000 0.08730300
v 0.24665700 0.02870000 0.08845200
v 0.26035000 0.02870000 0.08368200
v 0.25872100 0.03070000 0.08252100
v 0.26093600 0.02870000 0.08231700
v 0.25897300 0.03070000 0.08193600
v 0.26090300 0.02870000 0.08083100
v 0.25895800 0.03070000 0.08130000
v 0.26025600 0.02870000 0.07949400
v 0.25868100 0.03070000 0.08072600
v 0.25635200 0.03070000 0.07775000
v 0.25889200 0.02870000 0.07775000
v 0.25868100 -0.03070000 0.03927400
v 0.26025600 -0.02870000 0.04050600
v 0.25635200 -0.03070000 0.04225000
v 0.25889200 -0.02870000 0.04225000
v 0.25825000 -0.03070000 0.03705000
v 0.25925000 -0.02870000 0.03531800
v 0.26035000 -0.02870000 0.03631800
v 0.25872100 -0.03070000 0.03747900
v 0.26093600 -0.02870000 0.03768300
v 0.25897300 -0.03070000 0.03806400
v 0.26090300 -0.02870000 0.03916900
v 0.25895800 -0.03070000 0.03870000
v 0.24005100 -0.02870000 0.03193300
v 0.24500000 -0.02870000 0.03150000
v 0.24039800 -0.03070000 0.03390300
v 0.24654100 -0.03070000 0.03354500
v 0.25380700 -0.02870000 0.03289500
v 0.25260000 -0.03070000 0.03461300
v 0.25317400 -0.02870000 0.03269700
v 0.24665700 -0.02870000 0.03154800
v 0.21365300 -0.02870000 0.03658800
v 0.21400000 -0.03070000 0.03855700
v 0.21216400 -0.02850400 0.03685000
v 0.21199400 -0.03043600 0.03882000
v 0.21077800 -0.02793000 0.03709500
v 0.21012500 -0.02966200 0.03906400
v 0.19339600 -0.01789400 0.04015900
v 0.19274300 -0.01962600 0.04212900
v 0.19161800 -0.01932500 0.04250400
v 0.19127100 -0.01732500 0.04053400
v 0.18098400 -0.01732500 0.04234800
v 0.18133100 -0.01932500 0.04431800
v 0.17924800 -0.01732500 0.04250000
v 0.17924800 -0.01932500 0.04450000
v 0.07199000 -0.01732500 0.04250000
v 0.07199000 -0.01932500 0.04450000
v 0.06799300 -0.01732500 0.04166700
v 0.06719400 -0.01932500 0.07650000
v 0.06799300 -0.01732500 0.07833300
v 0.06408200 -0.01732500 0.07957900
v 0.06367400 -0.01932500 0.07762100
v 0.06000000 -0.01732500 0.08000000
v 0.06000000 -0.01932500 0.07800000
v 0.07199000 -0.01732500 0.07750000
v 0.07199000 -0.01932500 0.07550000
v 0.17924800 -0.01732500 0.07750000
v 0.17924800 -0.01932500 0.07550000
v 0.18098400 -0.01732500 0.07765200
v 0.18133100 -0.01932500 0.07568200
v 0.19127100 -0.01732500 0.07946600
v 0.19161800 -0.01932500 0.07749600
v 0.19274300 -0.01962600 0.07787100
v 0.19339600 -0.01789400 0.07984100
v 0.19219900 -0.01940100 0.07769000
v 0.21077800 -0.02793000 0.08290500
v 0.21012500 -0.02966200 0.08093600
v 0.21400000 -0.03070000 0.08144300
v 0.21365300 -0.02870000 0.08341200
v 0.21199400 -0.03043600 0.08118000
v 0.21216400 -0.02850400 0.08315000
v 0.24005100 -0.02870000 0.08806700
v 0.24039800 -0.03070000 0.08609700
v 0.25825000 -0.03070000 0.08295000
v 0.25925000 -0.02870000 0.08468200
v 0.25380700 -0.02870000 0.08710500
v 0.25318900 -0.03070000 0.08520300
v 0.24500000 -0.02870000 0.08850000
v 0.24500000 -0.03070000 0.08650000
v 0.25868100 -0.03070000 0.08072600
v 0.26025600 -0.02870000 0.07949400
v 0.26090300 -0.02870000 0.08083100
v 0.25895800 -0.03070000 0.08130000
v 0.26093600 -0.02870000 0.08231700
v 0.25897300 -0.03070000 0.08193600
v 0.26035000 -0.02870000 0.08368200
v 0.25872100 -0.03070000 0.08252100
v 0.25889200 -0.02870000 0.07775000
v 0.25635200 -0.03070000 0.07775000
v 0.23830300 0.03270000 0.07616800
v 0.24500000 0.03270000 0.07750000
v 0.24500000 0.03270000 0.04250000
v 0.23830300 0.03270000 0.04383200
v 0.23262600 0.03270000 0.04762600
v 0.26250000 0.03270000 0.06000000
v 0.26116800 0.03270000 0.05330300
v 0.25737400 0.03270000 0.04762600
v 0.25169700 0.03270000 0.04383200
v 0.26116800 0.03270000 0.06669700
v 0.25737400 0.03270000 0.07237400
v 0.25169700 0.03270000 0.07616800
v 0.23262600 0.03270000 0.07237400
v 0.22883200 0.03270000 0.06669700
v 0.22750000 0.03270000 0.06000000
v 0.22883200 0.03270000 0.05330300
v 0.24500000 0.02570000 0.04250000
v 0.23830300 0.02570000 0.04383200
v 0.23262600 0.02570000 0.04762600
v 0.22883200 0.02570000 0.05330300
v 0.22750000 0.02570000 0.06000000
v 0.22883200 0.02570000 0.06669700
v 0.23262600 0.02570000 0.07237400
v 0.23830300 0.02570000 0.07616800
v 0.24500000 0.02570000 0.07750000
v 0.26035000 0.02570000 0.08368200
v 0.25925000 0.02570000 0.08468200
v 0.26175200 0.02570000 0.08305700
v 0.26093600 0.02570000 0.08231700
v 0.25925000 0.02570000 0.03531800
v 0.26035000 0.02570000 0.03631800
v 0.26175200 0.02570000 0.03694300
v 0.26093600 0.02570000 0.03768300
v 0.26805700 0.02570000 0.04324800
v 0.26090300 0.02570000 0.03916900
v 0.27210500 0.02570000 0.05119300
v 0.26025600 0.02570000 0.04050600
v 0.27350000 0.02570000 0.06000000
v 0.25889200 0.02570000 0.04225000
v 0.27210500 0.02570000 0.06880700
v 0.26090300 0.02570000 0.08083100
v 0.26805700 0.02570000 0.07675200
v 0.26025600 0.02570000 0.07949400
v 0.25149500 0.02570000 0.04225000
v 0.25169700 0.02570000 0.04383200
v 0.24921600 0.02570000 0.04198700
v 0.24500000 0.02570000 0.04150000
v 0.23792000 0.02570000 0.04290800
v 0.23191900 0.02570000 0.04691900
v 0.22790800 0.02570000 0.05292000
v 0.22650000 0.02570000 0.06000000
v 0.22790800 0.02570000 0.06708000
v 0.23191900 0.02570000 0.07308100
v 0.23792000 0.02570000 0.07709200
v 0.24500000 0.02570000 0.07850000
v 0.25169700 0.02570000 0.07616800
v 0.25737400 0.02570000 0.04762600
v 0.26116800 0.02570000 0.05330300
v 0.26250000 0.02570000 0.06000000
v 0.26116800 0.02570000 0.06669700
v 0.25889200 0.02570000 0.07775000
v 0.25737400 0.02570000 0.07237400
v 0.25149500 0.02570000 0.07775000
v 0.24921600 0.02570000 0.07801300
v 0.25149500 0.03070000 0.04225000
v 0.24921600 0.03070000 0.04198700
v 0.24500000 0.03070000 0.04150000
v 0.24921600 0.03070000 0.07801300
v 0.25149500 0.03070000 0.07775000
v 0.25737400 -0.03270000 0.04762600
v 0.26116800 -0.03270000 0.05330300
v 0.26250000 -0.03270000 0.06000000
v 0.25737400 -0.03270000 0.07237400
v 0.25169700 -0.03270000 0.07616800
v 0.24500000 -0.03270000 0.04250000
v 0.24500000 -0.03270000 0.07750000
v 0.23830300 -0.03270000 0.07616800
v 0.22750000 -0.03270000 0.06000000
v 0.22883200 -0.03270000 0.05330300
v 0.23262600 -0.03270000 0.04762600
v 0.23830300 -0.03270000 0.04383200
v 0.25169700 -0.03270000 0.04383200
v 0.23262600 -0.03270000 0.07237400
v 0.22883200 -0.03270000 0.06669700
v 0.26116800 -0.03270000 0.06669700
v 0.24500000 -0.02570000 0.07750000
v 0.23830300 -0.02570000 0.07616800
v 0.23262600 -0.02570000 0.07237400
v 0.22883200 -0.02570000 0.06669700
v 0.22750000 -0.02570000 0.06000000
v 0.22883200 -0.02570000 0.05330300
v 0.23262600 -0.02570000 0.04762600
v 0.23830300 -0.02570000 0.04383200
v 0.24500000 -0.02570000 0.04250000
v 0.25925000 -0.02570000 0.03531800
v 0.26175200 -0.02570000 0.03694300
v 0.26035000 -0.02570000 0.03631800
v 0.26093600 -0.02570000 0.03768300
v 0.26090300 -0.02570000 0.03916900
v 0.26805700 -0.02570000 0.04324800
v 0.26025600 -0.02570000 0.04050600
v 0.27210500 -0.02570000 0.05119300
v 0.25889200 -0.02570000 0.04225000
v 0.27350000 -0.02570000 0.06000000
v 0.27210500 -0.02570000 0.06880700
v 0.25925000 -0.02570000 0.08468200
v 0.26035000 -0.02570000 0.08368200
v 0.26175200 -0.02570000 0.08305700
v 0.26093600 -0.02570000 0.08231700
v 0.26805700 -0.02570000 0.07675200
v 0.26090300 -0.02570000 0.08083100
v 0.26025600 -0.02570000 0.07949400
v 0.25889200 -0.02570000 0.07775000
v 0.25169700 -0.02570000 0.04383200
v 0.25149500 -0.02570000 0.04225000
v 0.25737400 -0.02570000 0.04762600
v 0.26116800 -0.02570000 0.05330300
v 0.25169700 -0.02570000 0.07616800
v 0.25737400 -0.02570000 0.07237400
v 0.26116800 -0.02570000 0.06669700
v 0.26250000 -0.02570000 0.06000000
v 0.25149500 -0.02570000 0.07775000
v 0.24921600 -0.02570000 0.07801300
v 0.24500000 -0.02570000 0.07850000
v 0.23792000 -0.02570000 0.07709200
v 0.23191900 -0.02570000 0.07308100
v 0.22790800 -0.02570000 0.06708000
v 0.22650000 -0.02570000 0.06000000
v 0.22790800 -0.02570000 0.05292000
v 0.23191900 -0.02570000 0.04691900
v 0.23792000 -0.02570000 0.04290800
v 0.24500000 -0.02570000 0.04150000
v 0.24921600 -0.02570000 0.04198700
v 0.25149500 -0.03070000 0.07775000
v 0.24921600 -0.03070000 0.07801300
v 0.24500000 -0.03070000 0.07850000
v 0.24921600 -0.03070000 0.04198700
v 0.25149500 -0.03070000 0.04225000
v 0.04843000 -0.01932500 0.07378900
v 0.05384400 -0.01932500 0.07691400
v 0.05330300 -0.01932500 0.07616800
v 0.06000000 -0.01932500 0.07750000
v 0.06669700 -0.01932500 0.07616800
v 0.07237400 -0.01932500 0.07237400
v 0.07616800 -0.01932500 0.06669700
v 0.22790800 0.03070000 0.06708000
v 0.22650000 0.03070000 0.06000000
v 0.24500000 0.03070000 0.07850000
v 0.23792000 0.03070000 0.07709200
v 0.23191900 0.03070000 0.07308100
v 0.22790800 0.03070000 0.05292000
v 0.23191900 0.03070000 0.04691900
v 0.23792000 0.03070000 0.04290800
v 0.06408200 0.01732500 0.07957900
v 0.06000000 0.01732500 0.08000000
v 0.22650000 -0.03070000 0.06000000
v 0.22790800 -0.03070000 0.05292000
v 0.23191900 -0.03070000 0.04691900
v 0.22790800 -0.03070000 0.06708000
v 0.23191900 -0.03070000 0.07308100
v 0.23792000 -0.03070000 0.07709200
v 0.23792000 -0.03070000 0.04290800
v 0.24500000 -0.03070000 0.04150000
v 0.04843000 -0.01932500 0.04621100
v 0.04441200 -0.01932500 0.05100000
v 0.07237400 0.01932500 0.04762600
v 0.07616800 0.01932500 0.05330300
v 0.07750000 0.01932500 0.06000000
v 0.07616800 0.01932500 0.06669700
v 0.07237400 0.01932500 0.07237400
v 0.06367400 0.01932500 0.07762100
v 0.06669700 0.01932500 0.07616800
v 0.06000000 0.01932500 0.07800000
v 0.06000000 0.01932500 0.07750000
v 0.05384400 0.01932500 0.07691400
v 0.05330300 0.01932500 0.07616800
v 0.04843000 0.01932500 0.07378900
v 0.04762600 0.01932500 0.07237400
v 0.04464700 0.01932500 0.06939500
v 0.04333500 0.01932500 0.05319700
v 0.05319700 0.01932500 0.04333500
v 0.04441200 0.01932500 0.05100000
v 0.04843000 0.01932500 0.04621100
v 0.03589200 0.01932500 0.06064000
v 0.03315200 0.02036300 0.05790000
v 0.05790000 0.02036300 0.03315200
v 0.06064000 0.01932500 0.03589200
v 0.03880200 0.03595700 0.01405400
v 0.01405400 0.03595700 0.03880200
v 0.03783000 0.03632500 0.01308100
v 0.01308100 0.03632500 0.03783000
v 0.00669700 0.03632500 -0.01616800
v 0.01237400 0.03632500 -0.01237400
v -0.01616800 0.03632500 0.00669700
v -0.01237400 0.03632500 0.01237400
v -0.01616800 0.03632500 -0.00669700
v -0.01237400 0.03632500 -0.01237400
v -0.00669700 0.03632500 -0.01616800
v -0.01750000 0.03632500 0.00000000
v -0.00000000 0.03632500 -0.01750000
v 0.01308100 0.04132500 0.03783000
v 0.01582200 0.04028700 0.04057000
v 0.03783000 0.04132500 0.01308100
v 0.04057000 0.04028700 0.01582200
v 0.05966800 0.02469300 0.03491900
v 0.03491900 0.02469300 0.05966800
v 0.06064000 0.02432500 0.03589200
v 0.03589200 0.02432500 0.06064000
v 0.07237400 0.02432500 0.04762600
v 0.04762600 0.02432500 0.07237400
v 0.05330300 0.02432500 0.07616800
v 0.06000000 0.02432500 0.07750000
v 0.06669700 0.02432500 0.07616800
v 0.07750000 0.02432500 0.06000000
v 0.07616800 0.02432500 0.05330300
v 0.07616800 0.02432500 0.06669700
v 0.07237400 0.02432500 0.07237400
v -0.01237400 0.04132500 0.01237400
v 0.01237400 0.04132500 -0.01237400
v -0.00669700 0.04132500 -0.01616800
v -0.01237400 0.04132500 -0.01237400
v 0.00000000 0.04132500 -0.01750000
v -0.01616800 0.04132500 -0.00669700
v -0.01616800 0.04132500 0.00669700
v -0.01750000 0.04132500 0.00000000
v 0.00669700 0.04132500 -0.01616800
v 0.05384400 0.01932500 0.04308600
v 0.04227300 0.01932500 0.05687400
v 0.04227300 0.01932500 0.06312600
v 0.04441200 0.01932500 0.06900000
v 0.05316000 0.01732500 0.07879400
v 0.05316000 -0.01732500 0.07879400
v 0.04714400 0.01732500 0.07532100
v 0.04714400 -0.01732500 0.07532100
v 0.04267900 0.01732500 0.07000000
v 0.04267900 -0.01732500 0.07000000
v 0.04030400 0.01732500 0.06347300
v 0.04030400 -0.01732500 0.06347300
v 0.04030400 0.01732500 0.05652700
v 0.04030400 -0.01732500 0.05652700
v 0.04267900 0.01732500 0.05000000
v 0.04267900 -0.01732500 0.05000000
v 0.04714400 0.01732500 0.04467900
v 0.04714400 -0.01732500 0.04467900
v 0.05316000 0.01732500 0.04120600
v 0.05316000 -0.01732500 0.04120600
v 0.06000000 -0.01732500 0.04000000
v 0.06408200 -0.01732500 0.04042100
vn -0.49749684 0.28913023 -0.81786344
vn 0.41228826 0.72796943 -0.54779458
vn 0.28133874 0.67841449 -0.67867687
vn -0.84979356 0.30461188 -0.43018891
vn -0.67869196 0.67841325 0.28130532
vn -0.54776420 0.72798758 0.41229658
vn 0.33913067 0.62388503 -0.70410075
vn -0.70415184 0.62382765 0.33913014
vn 0.45950010 0.66939580 -0.58375415
vn -0.58373032 0.66936747 0.45957165
vn -0.68939939 0.66570831 -0.28558872
vn -0.74619971 0.66572216 0.00000000
vn -0.68939939 0.66570831 0.28558872
vn 0.28558872 0.66570831 -0.68939939
vn 0.00000000 0.66572216 -0.74619971
vn -0.28558872 0.66570831 -0.68939939
vn -0.56263966 0.68570815 0.46178018
vn 0.46178018 0.68570815 -0.56263966
vn -0.52763364 0.66573679 -0.52763364
vn -0.28130755 -0.67838302 0.67872125
vn -0.41228858 -0.72793206 0.54784400
vn 0.67872134 -0.67839087 -0.28128840
vn 0.54782608 -0.72794370 -0.41229184
vn 0.70445938 -0.62352997 -0.33903888
vn -0.33905729 -0.62362121 0.70436974
vn 0.58391040 -0.66941375 -0.45927538
vn -0.45916448 -0.66945767 0.58394727
vn 0.52763364 -0.66573679 0.52763364
vn 0.28558872 -0.66570831 0.68939939
vn 0.56264027 -0.68571743 -0.46176567
vn -0.46178695 -0.68570608 0.56263664
vn -0.28558872 -0.66570831 0.68939939
vn -0.00000000 -0.66572216 0.74619971
vn 0.68939939 -0.66570831 -0.28558872
vn 0.74619971 -0.66572216 -0.00000000
vn 0.68939939 -0.66570831 0.28558872
vn 0.46178018 -0.68570815 -0.56263966
vn -0.56263966 -0.68570815 0.46178018
vn -0.68939939 -0.66570831 0.28558872
vn -0.74619971 -0.66572216 0.00000000
vn -0.68939939 -0.66570831 -0.28558872
vn -0.52763364 -0.66573679 -0.52763364
vn 0.28558872 -0.66570831 -0.68939939
vn 0.00000000 -0.66572216 -0.74619971
vn -0.28558872 -0.66570831 -0.68939939
vn -0.03491038 0.41493825 -0.90917958
vn -0.24154624 0.40499030 -0.88183801
vn 0.18658509 0.40579798 -0.89471448
vn 0.29279269 0.38687427 -0.87441451
vn 0.48699167 -0.42419588 -0.76347689
vn 0.52847022 -0.72982107 -0.43368241
vn 0.60709578 -0.75378085 -0.25149385
vn 0.65714607 -0.75376325 -0.00000000
vn -0.70149059 -0.35996044 0.61509303
vn -0.43370827 -0.72983783 0.52842585
vn -0.82776811 0.40438993 0.38893283
vn -0.89174818 0.42430420 0.15732492
vn -0.90092414 0.41548360 -0.12533587
vn 0.78665996 0.37262601 0.49225600
vn 0.34582240 0.91387480 0.21269630
vn 0.48085045 0.29491684 0.82571600
vn 0.14013777 0.70593747 0.69427206
vn 0.90490113 0.36553972 0.21802442
vn 0.41334957 0.90511386 0.09955419
vn 0.91376565 0.36552258 -0.17727260
vn 0.41777967 0.90493669 -0.08093044
vn 0.75794808 0.36553566 -0.54027621
vn 0.34609452 0.90513981 -0.24686132
vn 0.50688030 0.36938025 -0.77886494
vn 0.22875325 0.90964917 -0.34671363
vn 0.26438199 0.37218932 -0.88970628
vn 0.11558783 0.91238467 -0.39267503
vn 0.03142459 0.37287343 -0.92734994
vn 0.01506987 0.91312936 -0.40739129
vn -0.05081884 0.92002297 -0.38855525
vn -0.12112075 0.37879646 -0.91752003
vn -0.11248148 0.92481672 -0.36340329
vn -0.18163577 0.39240016 -0.90168207
vn -0.32218073 0.33845109 -0.88410997
vn -0.45619733 0.81442613 -0.35860016
vn -0.25529562 0.38288144 -0.88782090
vn -0.28091287 0.89132450 -0.35584913
vn -0.44423002 0.80709875 -0.38891040
vn -0.29833980 0.31514649 -0.90093066
vn -0.21048776 0.90619106 -0.36675968
vn -0.20507676 0.35427765 -0.91237650
vn -0.04906607 0.92755177 -0.37045949
vn -0.12008032 0.38628349 -0.91453036
vn -0.04060683 0.38626194 -0.92149487
vn -0.01598266 0.92753083 -0.37340477
vn 0.02390303 0.92938373 -0.36834022
vn 0.08774229 0.39758160 -0.91336201
vn 0.48701642 0.42416777 -0.76347672
vn 0.24132044 0.39442577 -0.88667511
vn 0.29282587 -0.38686285 -0.87440845
vn 0.18931348 0.37411094 -0.90785539
vn 0.18654658 -0.40578877 -0.89472669
vn -0.03254408 0.37114295 -0.92800528
vn -0.03486784 -0.41492885 -0.90918551
vn 0.09639883 0.39040673 0.91558170
vn 0.03553120 0.93217854 0.36025090
vn 0.23323513 0.38420581 0.89330133
vn 0.09642057 0.92721467 0.36190610
vn -0.01597171 0.92752632 0.37341643
vn -0.04059158 0.38627606 0.92148962
vn -0.12009443 0.38629761 0.91452254
vn -0.04907888 0.92754726 0.37046908
vn -0.15478016 0.92182969 0.35534929
vn -0.20993207 0.34871052 0.91341639
vn -0.29133780 0.31170193 0.90441373
vn -0.46661163 0.80785427 0.36006258
vn -0.36653293 0.87089055 0.32741910
vn -0.45397734 0.81450852 0.36122077
vn -0.32018505 0.34281283 0.88315395
vn -0.28083289 0.88942537 0.36063195
vn -0.25623789 0.38893609 0.88491291
vn -0.11502994 0.92375994 0.36528850
vn -0.18517003 0.39551830 0.89959843
vn -0.04894362 0.91992736 0.38902207
vn -0.12111758 0.37880717 0.91751603
vn -0.02826405 0.38475174 0.92258725
vn 0.02957293 0.91621684 0.39958998
vn 0.50686741 0.36935337 0.77888608
vn 0.22810361 0.90968095 0.34705809
vn 0.32729099 0.38047139 0.86494054
vn 0.11234834 0.91527256 0.38685137
vn 0.21902357 0.37606294 0.90033624
vn 0.09435093 0.37540808 0.92204483
vn 0.75797403 0.36554404 0.54023413
vn 0.34620707 0.90513114 0.24673523
vn 0.91375600 0.36551851 0.17733073
vn 0.41773237 0.90494098 0.08112634
vn 0.90489134 0.36553130 -0.21807917
vn 0.41328693 0.90512268 -0.09973386
vn 0.78663695 0.37268456 -0.49224845
vn 0.34593072 0.91383185 -0.21270468
vn 0.14015994 0.70593596 -0.69426912
vn 0.48086149 0.29498787 -0.82568419
vn 0.34593072 -0.91383185 0.21270468
vn 0.78663695 -0.37268456 0.49224845
vn 0.14015994 -0.70593596 0.69426912
vn 0.48086149 -0.29498787 0.82568419
vn 0.22810361 -0.90968095 -0.34705809
vn 0.50686741 -0.36935337 -0.77888608
vn 0.75797403 -0.36554404 -0.54023413
vn 0.34620707 -0.90513114 -0.24673523
vn 0.91375600 -0.36551851 -0.17733073
vn 0.41773237 -0.90494098 -0.08112634
vn 0.90489134 -0.36553130 0.21807917
vn 0.41328693 -0.90512268 0.09973386
vn -0.12111758 -0.37880717 -0.91751603
vn -0.02826405 -0.38475174 -0.92258725
vn -0.04894362 -0.91992736 -0.38902207
vn 0.02957293 -0.91621684 -0.39958998
vn 0.32729099 -0.38047139 -0.86494054
vn 0.11234834 -0.91527256 -0.38685137
vn 0.21902357 -0.37606294 -0.90033624
vn 0.09435093 -0.37540808 -0.92204483
vn -0.18517003 -0.39551830 -0.89959843
vn -0.11502994 -0.92375994 -0.36528850
vn -0.25623789 -0.38893609 -0.88491291
vn -0.28083289 -0.88942537 -0.36063195
vn -0.32018505 -0.34281283 -0.88315395
vn -0.45397734 -0.81450852 -0.36122077
vn -0.29133780 -0.31170193 -0.90441373
vn -0.42960166 -0.81984562 -0.37854402
vn -0.22032863 -0.90915224 -0.35340840
vn -0.21022004 -0.34763300 -0.91376082
vn -0.12009443 -0.38629761 -0.91452254
vn -0.04907888 -0.92754726 -0.37046908
vn -0.04059158 -0.38627606 -0.92148962
vn -0.01597171 -0.92752632 -0.37341643
vn 0.08774229 -0.39758160 -0.91336201
vn 0.02390303 -0.92938373 -0.36834022
vn 0.24130783 -0.39443432 -0.88667474
vn 0.09641883 -0.92722248 0.36188655
vn 0.23323530 -0.38418605 0.89330979
vn 0.18931348 -0.37411094 0.90785539
vn 0.08238461 -0.91491990 0.39513839
vn -0.03254408 -0.37114295 0.92800528
vn -0.01574822 -0.91166257 0.41063774
vn 0.09641361 -0.39039579 0.91558481
vn 0.03553997 -0.93218156 0.36024220
vn -0.04060683 -0.38626194 0.92149487
vn -0.01598266 -0.92753083 0.37340477
vn -0.12008032 -0.38628349 0.91453036
vn -0.04906607 -0.92755177 0.37045949
vn -0.20528525 -0.35398353 0.91244376
vn -0.15586068 -0.92120137 0.35650453
vn -0.49000821 -0.78531637 0.37837833
vn -0.29864601 -0.31574787 0.90061859
vn -0.34759491 -0.86267619 0.36737932
vn -0.32218073 -0.33845109 0.88410997
vn -0.45619733 -0.81442613 0.35860016
vn -0.11248148 -0.92481672 0.36340329
vn -0.18163577 -0.39240016 0.90168207
vn -0.28091287 -0.89132450 0.35584913
vn -0.25529562 -0.38288144 0.88782090
vn -0.12112075 -0.37879646 0.91752003
vn -0.05081884 -0.92002297 0.38855525
vn 0.22875325 -0.90964917 0.34671363
vn 0.50688030 -0.36938025 0.77886494
vn 0.26438199 -0.37218932 0.88970628
vn 0.11558783 -0.91238467 0.39267503
vn 0.03142459 -0.37287343 0.92734994
vn 0.01506987 -0.91312936 0.40739129
vn 0.34582240 -0.91387480 -0.21269630
vn 0.78665996 -0.37262601 -0.49225600
vn 0.90490113 -0.36553972 -0.21802442
vn 0.41334957 -0.90511386 -0.09955419
vn 0.91376565 -0.36552258 0.17727260
vn 0.41777967 -0.90493669 0.08093044
vn 0.75794808 -0.36553566 0.54027621
vn 0.34609452 -0.90513981 0.24686132
vn 0.48085045 -0.29491684 -0.82571600
vn 0.14013777 -0.70593747 -0.69427206
vn -0.28558872 0.66570831 0.68939939
vn 0.00000000 0.66572216 0.74619971
vn -0.00000000 0.66572216 -0.74619971
vn -0.28558872 0.66570831 -0.68939939
vn -0.52763364 0.66573679 -0.52763364
vn 0.74619971 0.66572216 -0.00000000
vn 0.68939939 0.66570831 -0.28558872
vn 0.52763364 0.66573679 -0.52763364
vn 0.28558872 0.66570831 -0.68939939
vn 0.68939939 0.66570831 0.28558872
vn 0.52763364 0.66573679 0.52763364
vn 0.28558872 0.66570831 0.68939939
vn -0.52763364 0.66573679 0.52763364
vn -0.68939939 0.66570831 0.28558872
vn -0.74619971 0.66572216 -0.00000000
vn -0.68939939 0.66570831 -0.28558872
vn 0.00000000 0.75376325 -0.65714607
vn -0.25149385 0.75378085 -0.60709578
vn -0.46468751 0.75374467 -0.46468751
vn -0.60709578 0.75378085 -0.25149385
vn -0.65714607 0.75376325 -0.00000000
vn -0.60709578 0.75378085 0.25149385
vn -0.46468751 0.75374467 0.46468751
vn -0.25149385 0.75378085 0.60709578
vn 0.00000000 0.75376325 0.65714607
vn 0.53103710 0.75811037 0.37850795
vn 0.51196401 0.02596938 0.85861426
vn 0.45890081 0.68432457 0.56666563
vn 0.64015142 0.75814088 0.12421178
vn 0.51196401 0.02596938 -0.85861426
vn 0.53103710 0.75811037 -0.37850795
vn 0.45890081 0.68432457 -0.56666563
vn 0.64015142 0.75814088 -0.12421178
vn 0.59799563 0.67353160 -0.43446106
vn 0.63383563 0.75823897 0.15272871
vn 0.70297793 0.67353644 -0.22840906
vn 0.57839058 0.73183830 0.36038457
vn 0.73915898 0.67353099 0.00000000
vn 0.25065786 0.82018816 0.51425870
vn 0.70297793 0.67353644 0.22840906
vn 0.63383563 0.75823897 -0.15272871
vn 0.59799563 0.67353160 0.43446106
vn 0.57839058 0.73183830 -0.36038457
vn -0.03982899 0.72026109 0.69255874
vn 0.25149385 0.75378085 -0.60709578
vn -0.08110019 0.70711909 0.70242818
vn 0.03003007 0.67382121 0.73828393
vn 0.28560160 0.66570069 0.68940142
vn 0.52762699 0.66574734 0.52762699
vn 0.68940142 0.66570069 0.28560160
vn 0.74619551 0.66572687 0.00000000
vn 0.68940142 0.66570069 -0.28560160
vn 0.52762699 0.66574734 -0.52762699
vn 0.28560160 0.66570069 -0.68940142
vn 0.03003007 0.67382121 -0.73828393
vn 0.25149385 0.75378085 0.60709578
vn 0.46468751 0.75374467 -0.46468751
vn 0.60709578 0.75378085 -0.25149385
vn 0.65714607 0.75376325 -0.00000000
vn 0.60709578 0.75378085 0.25149385
vn 0.25065786 0.82018816 -0.51425870
vn 0.46468751 0.75374467 0.46468751
vn -0.03982899 0.72026109 -0.69255874
vn -0.08110019 0.70711909 -0.70242818
vn -0.04131472 0.69440940 0.71839312
vn -0.08110301 0.70709447 0.70245264
vn 0.02716863 0.74372268 0.66793596
vn -0.08110301 0.70709447 -0.70245264
vn -0.04131472 0.69440940 -0.71839312
vn 0.52763364 -0.66573679 -0.52763364
vn 0.68939939 -0.66570831 -0.28558872
vn 0.74619971 -0.66572216 -0.00000000
vn 0.52763364 -0.66573679 0.52763364
vn 0.28558872 -0.66570831 0.68939939
vn 0.00000000 -0.66572216 -0.74619971
vn -0.00000000 -0.66572216 0.74619971
vn -0.28558872 -0.66570831 0.68939939
vn -0.74619971 -0.66572216 -0.00000000
vn -0.68939939 -0.66570831 -0.28558872
vn -0.52763364 -0.66573679 -0.52763364
vn -0.28558872 -0.66570831 -0.68939939
vn 0.28558872 -0.66570831 -0.68939939
vn -0.52763364 -0.66573679 0.52763364
vn -0.68939939 -0.66570831 0.28558872
vn 0.68939939 -0.66570831 0.28558872
vn 0.00000000 -0.75376325 0.65714607
vn -0.25149385 -0.75378085 0.60709578
vn -0.46468751 -0.75374467 0.46468751
vn -0.60709578 -0.75378085 0.25149385
vn -0.65714607 -0.75376325 -0.00000000
vn -0.60709578 -0.75378085 -0.25149385
vn -0.46468751 -0.75374467 -0.46468751
vn -0.25149385 -0.75378085 -0.60709578
vn 0.00000000 -0.75376325 -0.65714607
vn 0.51196401 -0.02596938 -0.85861426
vn 0.45890081 -0.68432457 -0.56666563
vn 0.53103710 -0.75811037 -0.37850795
vn 0.64015142 -0.75814088 -0.12421178
vn 0.63383563 -0.75823897 0.15272871
vn 0.59799563 -0.67353160 -0.43446106
vn 0.57839058 -0.73183830 0.36038457
vn 0.70297793 -0.67353644 -0.22840906
vn 0.25065786 -0.82018816 0.51425870
vn 0.73915898 -0.67353099 0.00000000
vn 0.70297793 -0.67353644 0.22840906
vn 0.51196401 -0.02596938 0.85861426
vn 0.53103710 -0.75811037 0.37850795
vn 0.45890081 -0.68432457 0.56666563
vn 0.64015142 -0.75814088 0.12421178
vn 0.59799563 -0.67353160 0.43446106
vn 0.63383563 -0.75823897 -0.15272871
vn 0.57839058 -0.73183830 -0.36038457
vn 0.25065786 -0.82018816 -0.51425870
vn 0.25149385 -0.75378085 -0.60709578
vn -0.03982899 -0.72026109 0.69255874
vn 0.46468751 -0.75374467 -0.46468751
vn 0.60709578 -0.75378085 -0.25149385
vn 0.25149385 -0.75378085 0.60709578
vn 0.46468751 -0.75374467 0.46468751
vn 0.60709578 -0.75378085 0.25149385
vn 0.65714607 -0.75376325 -0.00000000
vn -0.03982899 -0.72026109 -0.69255874
vn -0.08110019 -0.70711909 -0.70242818
vn 0.03003007 -0.67382121 -0.73828393
vn 0.28560160 -0.66570069 -0.68940142
vn 0.52762699 -0.66574734 -0.52762699
vn 0.68940142 -0.66570069 -0.28560160
vn 0.74619551 -0.66572687 0.00000000
vn 0.68940142 -0.66570069 0.28560160
vn 0.52762699 -0.66574734 0.52762699
vn 0.28560160 -0.66570069 0.68940142
vn 0.03003007 -0.67382121 0.73828393
vn -0.08110019 -0.70711909 0.70242818
vn -0.04131472 -0.69440940 -0.71839312
vn -0.08110301 -0.70709447 -0.70245264
vn 0.02716863 -0.74372268 -0.66793596
vn -0.08110301 -0.70709447 0.70245264
vn -0.04131472 -0.69440940 0.71839312
vn -0.26551701 -0.90912054 0.32093699
vn -0.14286914 -0.90858868 0.39249844
vn -0.25149385 -0.75378085 0.60709578
vn -0.00000000 -0.75376325 0.65714607
vn 0.25149385 -0.75378085 0.60709578
vn 0.46468751 -0.75374467 0.46468751
vn 0.60709578 -0.75378085 0.25149385
vn 0.60708176 0.75379054 -0.25149864
vn 0.65715293 0.75375727 0.00000000
vn 0.02716863 0.74372268 -0.66793596
vn 0.25149864 0.75379054 -0.60708176
vn 0.46469838 0.75373127 -0.46469838
vn 0.60708176 0.75379054 0.25149864
vn 0.46469838 0.75373127 0.46469838
vn 0.25149864 0.75379054 0.60708176
vn 0.18932611 0.37411858 0.90784961
vn -0.03255771 0.37114959 0.92800214
vn 0.65715293 -0.75375727 0.00000000
vn 0.60708176 -0.75379054 0.25149864
vn 0.46469838 -0.75373127 0.46469838
vn 0.60708176 -0.75379054 -0.25149864
vn 0.46469838 -0.75373127 -0.46469838
vn 0.25149864 -0.75379054 -0.60708176
vn 0.25149864 -0.75379054 0.60708176
vn 0.02716863 -0.74372268 0.66793596
vn -0.27064371 -0.90941249 -0.31578616
vn -0.34091040 -0.91316201 -0.22341719
vn 0.52847022 0.72982107 -0.43368241
vn 0.60709578 0.75378085 -0.25149385
vn 0.65714607 0.75376325 -0.00000000
vn 0.60709578 0.75378085 0.25149385
vn 0.46468751 0.75374467 0.46468751
vn 0.08240369 0.91491623 0.39514292
vn 0.25149385 0.75378085 0.60709578
vn -0.01576781 0.91165902 0.41064488
vn -0.00000000 0.75376325 0.65714607
vn -0.14284362 0.90858734 0.39251082
vn -0.25149385 0.75378085 0.60709578
vn -0.26802800 0.90855414 0.32045339
vn -0.43370827 0.72983783 0.52842585
vn -0.70060350 0.35792556 0.61728764
vn -0.85535133 -0.33411470 -0.39590589
vn -0.50243072 -0.29261898 -0.81359542
vn -0.34091079 0.91316539 -0.22340278
vn -0.26927149 0.90855076 -0.31941882
vn -0.54779198 -0.72796953 0.41229153
vn -0.67867687 -0.67841449 0.28133874
vn 0.28130532 -0.67841325 -0.67869196
vn 0.41227536 -0.72799277 -0.54777327
vn 0.33913014 -0.62382765 -0.70415184
vn -0.70410075 -0.62388503 0.33913067
vn 0.45957165 -0.66936747 -0.58373032
vn -0.58375415 -0.66939580 0.45950010
vn 0.28558872 -0.66570831 -0.68939939
vn 0.46178018 -0.68570815 -0.56263966
vn -0.68939939 -0.66570831 0.28558872
vn -0.56263966 -0.68570815 0.46178018
vn -0.68939939 -0.66570831 -0.28558872
vn -0.52763364 -0.66573679 -0.52763364
vn -0.28558872 -0.66570831 -0.68939939
vn -0.74619971 -0.66572216 0.00000000
vn 0.00000000 -0.66572216 -0.74619971
vn -0.41229184 0.72794370 0.54782608
vn -0.28128840 0.67839087 0.67872134
vn 0.54784400 0.72793206 -0.41228858
vn 0.67872125 0.67838302 -0.28130755
vn 0.70436974 0.62362121 -0.33905729
vn -0.33903888 0.62352997 0.70445938
vn 0.58393228 0.66946548 -0.45917215
vn -0.45927538 0.66941375 0.58391040
vn 0.56264391 0.68571848 -0.46175967
vn -0.46178695 0.68570608 0.56263664
vn -0.28558872 0.66570831 0.68939939
vn -0.00000000 0.66572216 0.74619971
vn 0.28558872 0.66570831 0.68939939
vn 0.74619971 0.66572216 -0.00000000
vn 0.68939939 0.66570831 -0.28558872
vn 0.68939939 0.66570831 0.28558872
vn 0.52763364 0.66573679 0.52763364
vn -0.56263966 0.68570815 0.46178018
vn 0.46178018 0.68570815 -0.56263966
vn -0.28558872 0.66570831 -0.68939939
vn -0.52763364 0.66573679 -0.52763364
vn 0.00000000 0.66572216 -0.74619971
vn -0.68939939 0.66570831 -0.28558872
vn -0.68939939 0.66570831 0.28558872
vn -0.74619971 0.66572216 0.00000000
vn 0.28558872 0.66570831 -0.68939939
vn -0.24158249 -0.40497878 -0.88183337
vn -0.89338592 -0.42351591 -0.14998622
vn -0.89177806 -0.42427435 0.15723599
vn -0.82774052 -0.40436046 0.38902216
vn -0.31791289 0.36854099 0.87356106
vn -0.31793140 -0.36853825 0.87355548
vn -0.59753503 0.36850612 0.71214825
vn -0.59667295 -0.36734944 0.71346744
vn -0.80672495 0.36579286 0.46410176
vn -0.80770680 -0.36490987 0.46308802
vn -0.91554400 0.36841739 0.16139334
vn -0.91553019 -0.36843976 0.16142062
vn -0.91554400 0.36841739 -0.16139334
vn -0.91895245 -0.36261044 -0.15504859
vn -0.80475930 0.36209577 -0.47037127
vn -0.80358587 -0.36065882 -0.47347120
vn -0.59753503 0.36850612 -0.71214825
vn -0.59971542 -0.36675027 -0.71122125
vn -0.31644434 0.36468355 -0.87571050
vn -0.31481486 -0.36348918 -0.87679372
vn -0.03255771 -0.37114959 -0.92800214
vn 0.18932611 -0.37411858 -0.90784961
f 1//1 2//2 3//3
f 1//1 3//3 4//4
f 4//4 3//3 5//5
f 4//4 5//5 6//6
f 3//3 7//7 5//5
f 5//5 7//7 8//8
f 9//9 10//10 7//7
f 7//7 10//10 8//8
f 11//11 12//12 13//13
f 14//14 15//15 16//16
f 10//10 9//9 17//17
f 17//17 9//9 18//18
f 17//17 18//18 13//13
f 13//13 18//18 14//14
f 13//13 14//14 11//11
f 11//11 14//14 16//16
f 11//11 16//16 19//19
f 20//20 21//21 22//22
f 22//22 21//21 23//23
f 22//22 24//24 20//20
f 20//20 24//24 25//25
f 26//26 27//27 24//24
f 24//24 27//27 25//25
f 28//28 29//29 30//30
f 27//27 26//26 31//31
f 31//31 26//26 30//30
f 31//31 30//30 32//32
f 32//32 30//30 29//29
f 32//32 29//29 33//33
f 34//34 35//35 30//30
f 30//30 35//35 36//36
f 30//30 36//36 28//28
f 23//23 21//21 37//37
f 37//37 21//21 38//38
f 39//39 40//40 38//38
f 38//38 40//40 41//41
f 38//38 41//41 42//42
f 43//43 37//37 44//44
f 44//44 37//37 38//38
f 44//44 38//38 45//45
f 45//45 38//38 42//42
f 46//46 2//2 47//47
f 47//47 2//2 1//1
f 46//46 48//48 2//2
f 2//2 48//48 49//49
f 2//2 49//49 50//50
f 38//38 17//17 13//13
f 38//38 13//13 39//39
f 39//39 13//13 12//12
f 39//39 12//12 40//40
f 40//40 12//12 11//11
f 40//40 11//11 41//41
f 41//41 11//11 19//19
f 41//41 19//19 42//42
f 42//42 19//19 16//16
f 42//42 16//16 45//45
f 45//45 16//16 15//15
f 45//45 15//15 44//44
f 44//44 15//15 14//14
f 44//44 14//14 43//43
f 43//43 14//14 18//18
f 43//43 18//18 37//37
f 37//37 18//18 23//23
f 23//23 18//18 9//9
f 23//23 9//9 22//22
f 22//22 9//9 7//7
f 22//22 7//7 24//24
f 24//24 7//7 3//3
f 24//24 3//3 26//26
f 26//26 3//3 2//2
f 26//26 2//2 30//30
f 30//30 2//2 50//50
f 30//30 50//50 51//51
f 30//30 51//51 52//52
f 30//30 52//52 34//34
f 34//34 52//52 53//53
f 34//34 53//53 35//35
f 17//17 38//38 10//10
f 10//10 38//38 21//21
f 10//10 21//21 8//8
f 8//8 21//21 20//20
f 8//8 20//20 5//5
f 5//5 20//20 25//25
f 5//5 25//25 6//6
f 6//6 25//25 27//27
f 6//6 27//27 54//54
f 54//54 27//27 31//31
f 54//54 31//31 55//55
f 6//6 54//54 56//56
f 56//56 57//57 6//6
f 6//6 57//57 58//58
f 6//6 58//58 4//4
f 59//59 60//60 61//61
f 61//61 60//60 62//62
f 60//60 59//59 63//63
f 60//60 63//63 64//64
f 64//64 63//63 65//65
f 64//64 65//65 66//66
f 66//66 65//65 67//67
f 66//66 67//67 68//68
f 68//68 67//67 69//69
f 68//68 69//69 70//70
f 70//70 69//69 71//71
f 70//70 71//71 72//72
f 72//72 71//71 73//73
f 72//72 73//73 74//74
f 75//75 76//76 77//77
f 77//77 76//76 78//78
f 79//79 80//80 81//81
f 81//81 80//80 82//82
f 81//81 82//82 78//78
f 78//78 82//82 77//77
f 80//80 79//79 83//83
f 83//83 79//79 84//84
f 83//83 84//84 85//85
f 85//85 84//84 86//86
f 85//85 86//86 87//87
f 87//87 86//86 88//88
f 89//89 90//90 88//88
f 88//88 90//90 87//87
f 90//90 89//89 91//91
f 91//91 89//89 92//92
f 91//91 92//92 93//93
f 93//93 92//92 94//94
f 93//93 94//94 95//95
f 95//95 94//94 96//96
f 95//95 96//96 97//97
f 97//97 96//96 98//98
f 97//97 98//98 99//99
f 100//100 101//101 102//102
f 102//102 101//101 103//103
f 101//101 100//100 104//104
f 104//104 100//100 105//105
f 106//106 107//107 105//105
f 105//105 107//107 104//104
f 107//107 106//106 108//108
f 108//108 106//106 109//109
f 110//110 111//111 109//109
f 109//109 111//111 112//112
f 109//109 112//112 108//108
f 111//111 110//110 113//113
f 113//113 110//110 114//114
f 113//113 114//114 115//115
f 115//115 114//114 116//116
f 115//115 116//116 117//117
f 117//117 116//116 118//118
f 117//117 118//118 119//119
f 119//119 118//118 120//120
f 120//120 121//121 119//119
f 119//119 121//121 122//122
f 123//123 124//124 125//125
f 125//125 124//124 126//126
f 125//125 126//126 127//127
f 127//127 126//126 122//122
f 127//127 122//122 128//128
f 128//128 122//122 121//121
f 124//124 123//123 129//129
f 124//124 129//129 130//130
f 130//130 129//129 131//131
f 130//130 131//131 132//132
f 132//132 131//131 133//133
f 132//132 133//133 134//134
f 134//134 133//133 135//135
f 134//134 135//135 136//136
f 136//136 135//135 137//137
f 137//137 135//135 138//138
f 139//139 140//140 141//141
f 141//141 140//140 142//142
f 143//143 144//144 145//145
f 143//143 145//145 146//146
f 146//146 145//145 147//147
f 146//146 147//147 148//148
f 148//148 147//147 149//149
f 148//148 149//149 150//150
f 150//150 149//149 140//140
f 150//150 140//140 139//139
f 151//151 152//152 153//153
f 153//153 152//152 154//154
f 144//144 143//143 155//155
f 155//155 143//143 156//156
f 155//155 156//156 157//157
f 157//157 156//156 154//154
f 157//157 154//154 158//158
f 158//158 154//154 152//152
f 151//151 153//153 159//159
f 159//159 153//153 160//160
f 159//159 160//160 161//161
f 161//161 160//160 162//162
f 161//161 162//162 163//163
f 163//163 162//162 164//164
f 163//163 164//164 165//165
f 165//165 164//164 166//166
f 167//167 168//168 166//166
f 166//166 168//168 165//165
f 168//168 167//167 169//169
f 169//169 167//167 170//170
f 169//169 170//170 171//171
f 171//171 170//170 172//172
f 171//171 172//172 173//173
f 173//173 172//172 174//174
f 49//49 175//175 50//50
f 50//50 175//175 173//173
f 50//50 173//173 174//174
f 176//176 177//177 178//178
f 176//176 178//178 179//179
f 179//179 178//178 180//180
f 179//179 180//180 181//181
f 177//177 176//176 182//182
f 182//182 176//176 183//183
f 182//182 183//183 184//184
f 184//184 183//183 185//185
f 184//184 185//185 186//186
f 186//186 185//185 187//187
f 186//186 187//187 188//188
f 188//188 187//187 189//189
f 190//190 191//191 192//192
f 192//192 191//191 188//188
f 192//192 188//188 189//189
f 191//191 190//190 193//193
f 193//193 190//190 194//194
f 195//195 196//196 197//197
f 197//197 196//196 198//198
f 197//197 198//198 194//194
f 194//194 198//198 193//193
f 196//196 195//195 199//199
f 199//199 195//195 200//200
f 201//201 202//202 203//203
f 201//201 203//203 204//204
f 204//204 203//203 205//205
f 204//204 205//205 206//206
f 207//207 208//208 209//209
f 207//207 209//209 210//210
f 210//210 209//209 211//211
f 210//210 211//211 212//212
f 212//212 211//211 213//213
f 212//212 213//213 214//214
f 214//214 213//213 202//202
f 214//214 202//202 201//201
f 208//208 207//207 215//215
f 215//215 207//207 216//216
f 217//217 218//218 219//219
f 219//219 220//220 221//221
f 222//222 223//223 219//219
f 219//219 223//223 224//224
f 219//219 224//224 225//225
f 226//226 222//222 227//227
f 227//227 222//222 219//219
f 227//227 219//219 228//228
f 228//228 219//219 218//218
f 229//229 217//217 230//230
f 230//230 217//217 219//219
f 230//230 219//219 231//231
f 231//231 219//219 221//221
f 231//231 221//221 232//232
f 219//219 233//233 234//234
f 219//219 234//234 220//220
f 220//220 234//234 235//235
f 220//220 235//235 221//221
f 221//221 235//235 236//236
f 221//221 236//236 232//232
f 232//232 236//236 237//237
f 232//232 237//237 231//231
f 231//231 237//237 238//238
f 231//231 238//238 230//230
f 230//230 238//238 239//239
f 230//230 239//239 229//229
f 229//229 239//239 240//240
f 229//229 240//240 217//217
f 217//217 240//240 241//241
f 217//217 241//241 218//218
f 242//242 243//243 244//244
f 242//242 244//244 245//245
f 246//246 247//247 248//248
f 248//248 247//247 249//249
f 248//248 249//249 250//250
f 250//250 249//249 251//251
f 250//250 251//251 252//252
f 252//252 251//251 253//253
f 252//252 253//253 254//254
f 254//254 253//253 255//255
f 254//254 255//255 256//256
f 245//245 244//244 257//257
f 257//257 244//244 258//258
f 257//257 258//258 259//259
f 255//255 260//260 261//261
f 261//261 260//260 262//262
f 261//261 262//262 233//233
f 233//233 262//262 263//263
f 233//233 263//263 234//234
f 234//234 263//263 264//264
f 234//234 264//264 235//235
f 235//235 264//264 265//265
f 235//235 265//265 236//236
f 236//236 265//265 266//266
f 236//236 266//266 237//237
f 237//237 266//266 267//267
f 237//237 267//267 238//238
f 238//238 267//267 268//268
f 238//238 268//268 239//239
f 239//239 268//268 269//269
f 239//239 269//269 240//240
f 240//240 269//269 270//270
f 240//240 270//270 241//241
f 241//241 270//270 271//271
f 241//241 271//271 272//272
f 261//261 273//273 255//255
f 255//255 273//273 274//274
f 255//255 274//274 256//256
f 256//256 274//274 275//275
f 256//256 275//275 276//276
f 258//258 256//256 259//259
f 259//259 256//256 276//276
f 259//259 276//276 277//277
f 277//277 276//276 278//278
f 277//277 278//278 279//279
f 279//279 278//278 272//272
f 279//279 272//272 280//280
f 280//280 272//272 271//271
f 246//246 69//69 67//67
f 246//246 67//67 247//247
f 247//247 67//67 65//65
f 247//247 65//65 249//249
f 249//249 65//65 63//63
f 249//249 63//63 251//251
f 251//251 63//63 59//59
f 251//251 59//59 253//253
f 61//61 255//255 59//59
f 59//59 255//255 253//253
f 255//255 61//61 260//260
f 260//260 61//61 62//62
f 260//260 62//62 281//281
f 281//281 282//282 260//260
f 260//260 282//282 262//262
f 262//262 282//282 263//263
f 263//263 282//282 283//283
f 284//284 285//285 280//280
f 280//280 285//285 279//279
f 138//138 277//277 137//137
f 137//137 277//277 279//279
f 137//137 279//279 285//285
f 135//135 259//259 138//138
f 138//138 259//259 277//277
f 259//259 135//135 133//133
f 259//259 133//133 257//257
f 257//257 133//133 131//131
f 257//257 131//131 245//245
f 245//245 131//131 129//129
f 245//245 129//129 242//242
f 242//242 129//129 123//123
f 242//242 123//123 243//243
f 286//286 287//287 288//288
f 289//289 290//290 291//291
f 291//291 290//290 292//292
f 291//291 292//292 293//293
f 294//294 295//295 291//291
f 291//291 295//295 296//296
f 291//291 296//296 297//297
f 286//286 288//288 298//298
f 293//293 299//299 291//291
f 291//291 299//299 300//300
f 291//291 300//300 294//294
f 298//298 288//288 291//291
f 291//291 288//288 301//301
f 291//291 301//301 289//289
f 292//292 302//302 303//303
f 292//292 303//303 293//293
f 293//293 303//303 304//304
f 293//293 304//304 299//299
f 299//299 304//304 305//305
f 299//299 305//305 300//300
f 300//300 305//305 306//306
f 300//300 306//306 294//294
f 294//294 306//306 307//307
f 294//294 307//307 295//295
f 295//295 307//307 308//308
f 295//295 308//308 296//296
f 296//296 308//308 309//309
f 296//296 309//309 297//297
f 297//297 309//309 310//310
f 297//297 310//310 291//291
f 311//311 312//312 313//313
f 313//313 312//312 314//314
f 314//314 312//312 315//315
f 315//315 312//312 316//316
f 315//315 316//316 317//317
f 317//317 316//316 318//318
f 317//317 318//318 319//319
f 319//319 318//318 320//320
f 319//319 320//320 321//321
f 322//322 323//323 324//324
f 324//324 323//323 325//325
f 324//324 325//325 326//326
f 326//326 325//325 327//327
f 326//326 327//327 321//321
f 321//321 327//327 328//328
f 321//321 328//328 329//329
f 330//330 331//331 332//332
f 332//332 331//331 319//319
f 332//332 319//319 333//333
f 333//333 319//319 321//321
f 334//334 335//335 329//329
f 329//329 335//335 336//336
f 329//329 336//336 321//321
f 321//321 336//336 337//337
f 321//321 337//337 333//333
f 329//329 338//338 334//334
f 334//334 338//338 339//339
f 334//334 339//339 302//302
f 302//302 339//339 340//340
f 302//302 340//340 303//303
f 303//303 340//340 341//341
f 303//303 341//341 304//304
f 304//304 341//341 342//342
f 304//304 342//342 305//305
f 305//305 342//342 343//343
f 305//305 343//343 306//306
f 306//306 343//343 344//344
f 306//306 344//344 307//307
f 307//307 344//344 345//345
f 307//307 345//345 308//308
f 308//308 345//345 346//346
f 308//308 346//346 309//309
f 309//309 346//346 347//347
f 309//309 347//347 310//310
f 310//310 347//347 348//348
f 310//310 348//348 330//330
f 330//330 348//348 349//349
f 330//330 349//349 331//331
f 215//215 329//329 208//208
f 208//208 329//329 328//328
f 329//329 215//215 338//338
f 338//338 215//215 216//216
f 338//338 216//216 350//350
f 350//350 351//351 338//338
f 338//338 351//351 339//339
f 339//339 351//351 340//340
f 340//340 351//351 352//352
f 353//353 354//354 349//349
f 349//349 354//354 331//331
f 142//142 319//319 141//141
f 141//141 319//319 331//331
f 141//141 331//331 354//354
f 140//140 317//317 142//142
f 142//142 317//317 319//319
f 317//317 140//140 149//149
f 317//317 149//149 315//315
f 315//315 149//149 147//147
f 315//315 147//147 314//314
f 314//314 147//147 145//145
f 314//314 145//145 313//313
f 313//313 145//145 144//144
f 313//313 144//144 311//311
f 322//322 202//202 213//213
f 322//322 213//213 323//323
f 323//323 213//213 211//211
f 323//323 211//211 325//325
f 325//325 211//211 209//209
f 325//325 209//209 327//327
f 327//327 209//209 208//208
f 327//327 208//208 328//328
f 182//182 100//100 177//177
f 177//177 100//100 102//102
f 175//175 94//94 173//173
f 173//173 94//94 92//92
f 170//170 167//167 189//189
f 51//51 50//50 174//174
f 51//51 189//189 52//52
f 52//52 189//189 187//187
f 52//52 187//187 53//53
f 53//53 187//187 185//185
f 355//355 54//54 55//55
f 51//51 174//174 189//189
f 189//189 174//174 172//172
f 189//189 172//172 170//170
f 355//355 55//55 356//356
f 356//356 55//55 357//357
f 356//356 357//357 181//181
f 181//181 357//357 358//358
f 181//181 358//358 179//179
f 179//179 358//358 359//359
f 179//179 359//359 176//176
f 176//176 359//359 183//183
f 183//183 359//359 360//360
f 183//183 360//360 185//185
f 185//185 360//360 361//361
f 185//185 361//361 53//53
f 190//190 192//192 166//166
f 166//166 192//192 189//189
f 166//166 189//189 167//167
f 164//164 194//194 166//166
f 166//166 194//194 190//190
f 194//194 164//164 162//162
f 194//194 162//162 197//197
f 197//197 162//162 160//160
f 197//197 160//160 195//195
f 117//117 362//362 363//363
f 117//117 363//363 77//77
f 136//136 137//137 285//285
f 126//126 284//284 122//122
f 122//122 284//284 364//364
f 122//122 364//364 119//119
f 119//119 364//364 365//365
f 119//119 365//365 117//117
f 117//117 365//365 366//366
f 117//117 366//366 362//362
f 363//363 367//367 77//77
f 77//77 367//367 368//368
f 77//77 368//368 75//75
f 75//75 368//368 369//369
f 75//75 369//369 74//74
f 74//74 369//369 283//283
f 74//74 283//283 72//72
f 72//72 283//283 282//282
f 72//72 282//282 281//281
f 124//124 130//130 132//132
f 281//281 62//62 72//72
f 72//72 62//62 60//60
f 72//72 60//60 70//70
f 132//132 134//134 124//124
f 124//124 134//134 136//136
f 124//124 136//136 126//126
f 126//126 136//136 285//285
f 126//126 285//285 284//284
f 64//64 66//66 60//60
f 60//60 66//66 68//68
f 60//60 68//68 70//70
f 117//117 77//77 82//82
f 117//117 82//82 115//115
f 115//115 82//82 80//80
f 115//115 80//80 113//113
f 83//83 111//111 80//80
f 80//80 111//111 113//113
f 111//111 83//83 112//112
f 112//112 83//83 85//85
f 112//112 85//85 108//108
f 177//177 102//102 370//370
f 177//177 370//370 178//178
f 178//178 370//370 371//371
f 178//178 371//371 180//180
f 184//184 105//105 182//182
f 182//182 105//105 100//100
f 186//186 106//106 184//184
f 184//184 106//106 105//105
f 199//199 120//120 196//196
f 196//196 120//120 118//118
f 118//118 116//116 196//196
f 196//196 116//116 114//114
f 196//196 114//114 198//198
f 198//198 114//114 110//110
f 198//198 110//110 193//193
f 106//106 186//186 109//109
f 109//109 186//186 188//188
f 109//109 188//188 110//110
f 110//110 188//188 191//191
f 110//110 191//191 193//193
f 76//76 151//151 78//78
f 78//78 151//151 159//159
f 165//165 81//81 163//163
f 163//163 81//81 78//78
f 163//163 78//78 161//161
f 161//161 78//78 159//159
f 168//168 169//169 88//88
f 88//88 86//86 168//168
f 168//168 86//86 84//84
f 168//168 84//84 165//165
f 165//165 84//84 79//79
f 165//165 79//79 81//81
f 171//171 89//89 169//169
f 169//169 89//89 88//88
f 173//173 92//92 171//171
f 171//171 92//92 89//89
f 372//372 195//195 373//373
f 373//373 195//195 160//160
f 373//373 160//160 374//374
f 372//372 375//375 195//195
f 195//195 375//375 376//376
f 195//195 376//376 200//200
f 200//200 376//376 377//377
f 200//200 377//377 206//206
f 206//206 377//377 352//352
f 206//206 352//352 204//204
f 204//204 352//352 351//351
f 204//204 351//351 350//350
f 374//374 160//160 378//378
f 378//378 160//160 153//153
f 378//378 153//153 379//379
f 379//379 153//153 154//154
f 379//379 154//154 353//353
f 353//353 154//154 156//156
f 353//353 156//156 354//354
f 354//354 156//156 139//139
f 354//354 139//139 141//141
f 148//148 150//150 146//146
f 146//146 150//150 139//139
f 146//146 139//139 143//143
f 143//143 139//139 156//156
f 212//212 214//214 210//210
f 210//210 214//214 201//201
f 210//210 201//201 207//207
f 207//207 201//201 204//204
f 207//207 204//204 216//216
f 216//216 204//204 350//350
f 76//76 73//73 151//151
f 151//151 73//73 152//152
f 380//380 1//1 381//381
f 381//381 1//1 4//4
f 93//93 382//382 91//91
f 91//91 382//382 90//90
f 382//382 383//383 90//90
f 90//90 383//383 384//384
f 90//90 384//384 87//87
f 87//87 384//384 385//385
f 87//87 385//385 85//85
f 85//85 385//385 386//386
f 107//107 108//108 85//85
f 387//387 103//103 388//388
f 388//388 103//103 386//386
f 386//386 103//103 101//101
f 386//386 101//101 85//85
f 85//85 101//101 104//104
f 85//85 104//104 107//107
f 387//387 388//388 389//389
f 389//389 388//388 390//390
f 389//389 390//390 391//391
f 391//391 390//390 392//392
f 391//391 392//392 393//393
f 393//393 392//392 394//394
f 393//393 394//394 395//395
f 396//396 397//397 398//398
f 398//398 397//397 399//399
f 396//396 400//400 401//401
f 396//396 401//401 397//397
f 397//397 401//401 402//402
f 397//397 402//402 403//403
f 404//404 402//402 405//405
f 405//405 402//402 401//401
f 404//404 405//405 406//406
f 406//406 405//405 407//407
f 408//408 409//409 410//410
f 406//406 407//407 409//409
f 409//409 407//407 411//411
f 409//409 411//411 410//410
f 412//412 413//413 414//414
f 410//410 415//415 408//408
f 408//408 415//415 412//412
f 408//408 412//412 416//416
f 416//416 412//412 414//414
f 417//417 418//418 419//419
f 419//419 418//418 420//420
f 421//421 420//420 422//422
f 422//422 420//420 418//418
f 421//421 422//422 423//423
f 423//423 422//422 424//424
f 423//423 424//424 425//425
f 425//425 424//424 426//426
f 426//426 427//427 425//425
f 425//425 427//427 428//428
f 425//425 428//428 429//429
f 430//430 431//431 432//432
f 432//432 431//431 425//425
f 432//432 425//425 433//433
f 433//433 425//425 429//429
f 417//417 419//419 434//434
f 434//434 419//419 435//435
f 436//436 437//437 438//438
f 438//438 437//437 439//439
f 440//440 434//434 441//441
f 441//441 434//434 435//435
f 441//441 435//435 439//439
f 439//439 435//435 442//442
f 439//439 442//442 438//438
f 435//435 409//409 408//408
f 435//435 408//408 442//442
f 442//442 408//408 416//416
f 442//442 416//416 438//438
f 438//438 416//416 414//414
f 438//438 414//414 436//436
f 436//436 414//414 413//413
f 436//436 413//413 437//437
f 437//437 413//413 412//412
f 437//437 412//412 439//439
f 439//439 412//412 415//415
f 439//439 415//415 441//441
f 441//441 415//415 410//410
f 441//441 410//410 440//440
f 440//440 410//410 411//411
f 440//440 411//411 434//434
f 409//409 435//435 406//406
f 406//406 435//435 419//419
f 406//406 419//419 404//404
f 404//404 419//419 420//420
f 404//404 420//420 402//402
f 402//402 420//420 421//421
f 402//402 421//421 403//403
f 403//403 421//421 423//423
f 403//403 423//423 93//93
f 93//93 423//423 425//425
f 93//93 425//425 382//382
f 426//426 394//394 392//392
f 426//426 392//392 427//427
f 427//427 392//392 390//390
f 427//427 390//390 428//428
f 428//428 390//390 388//388
f 428//428 388//388 429//429
f 429//429 388//388 386//386
f 429//429 386//386 433//433
f 433//433 386//386 385//385
f 433//433 385//385 432//432
f 432//432 385//385 384//384
f 432//432 384//384 430//430
f 434//434 411//411 417//417
f 417//417 411//411 407//407
f 417//417 407//407 418//418
f 418//418 407//407 405//405
f 418//418 405//405 422//422
f 422//422 405//405 401//401
f 422//422 401//401 424//424
f 424//424 401//401 400//400
f 424//424 400//400 426//426
f 426//426 400//400 395//395
f 426//426 395//395 394//394
f 397//397 403//403 443//443
f 443//443 403//403 99//99
f 93//93 95//95 403//403
f 403//403 95//95 97//97
f 403//403 97//97 99//99
f 400//400 396//396 444//444
f 444//444 445//445 400//400
f 400//400 445//445 446//446
f 400//400 446//446 395//395
f 430//430 384//384 383//383
f 430//430 383//383 431//431
f 431//431 383//383 382//382
f 431//431 382//382 425//425
f 121//121 120//120 205//205
f 205//205 120//120 199//199
f 128//128 121//121 205//205
f 311//311 144//144 155//155
f 71//71 69//69 246//246
f 246//246 248//248 312//312
f 312//312 248//248 250//250
f 312//312 250//250 316//316
f 316//316 250//250 252//252
f 316//316 252//252 318//318
f 318//318 252//252 254//254
f 318//318 254//254 320//320
f 320//320 254//254 256//256
f 320//320 256//256 321//321
f 321//321 256//256 258//258
f 321//321 258//258 326//326
f 326//326 258//258 244//244
f 326//326 244//244 324//324
f 203//203 202//202 322//322
f 324//324 244//244 322//322
f 322//322 244//244 243//243
f 322//322 243//243 203//203
f 312//312 311//311 246//246
f 246//246 311//311 155//155
f 246//246 155//155 71//71
f 71//71 155//155 157//157
f 71//71 157//157 73//73
f 73//73 157//157 158//158
f 73//73 158//158 152//152
f 128//128 205//205 127//127
f 127//127 205//205 203//203
f 127//127 203//203 125//125
f 125//125 203//203 243//243
f 125//125 243//243 123//123
f 180//180 371//371 447//447
f 180//180 447//447 448//448
f 448//448 447//447 449//449
f 448//448 449//449 450//450
f 450//450 449//449 451//451
f 450//450 451//451 452//452
f 452//452 451//451 453//453
f 452//452 453//453 454//454
f 454//454 453//453 455//455
f 454//454 455//455 456//456
f 456//456 455//455 457//457
f 456//456 457//457 458//458
f 458//458 457//457 459//459
f 458//458 459//459 460//460
f 460//460 459//459 461//461
f 460//460 461//461 462//462
f 462//462 461//461 98//98
f 462//462 98//98 463//463
f 463//463 98//98 96//96
f 463//463 96//96 464//464
f 464//464 96//96 94//94
f 464//464 94//94 175//175
f 348//348 379//379 349//349
f 349//349 379//379 353//353
f 340//340 352//352 341//341
f 341//341 352//352 377//377
f 341//341 377//377 342//342
f 342//342 377//377 376//376
f 342//342 376//376 343//343
f 343//343 376//376 375//375
f 343//343 375//375 344//344
f 344//344 375//375 372//372
f 344//344 372//372 345//345
f 345//345 372//372 373//373
f 345//345 373//373 346//346
f 346//346 373//373 374//374
f 346//346 374//374 347//347
f 347//347 374//374 378//378
f 347//347 378//378 348//348
f 348//348 378//378 379//379
f 291//291 310//310 330//330
f 291//291 330//330 298//298
f 298//298 330//330 332//332
f 298//298 332//332 286//286
f 286//286 332//332 333//333
f 286//286 333//333 287//287
f 287//287 333//333 337//337
f 287//287 337//337 288//288
f 288//288 337//337 336//336
f 288//288 336//336 301//301
f 301//301 336//336 335//335
f 301//301 335//335 289//289
f 289//289 335//335 334//334
f 289//289 334//334 290//290
f 290//290 334//334 302//302
f 290//290 302//302 292//292
f 271//271 364//364 280//280
f 280//280 364//364 284//284
f 263//263 283//283 264//264
f 264//264 283//283 369//369
f 264//264 369//369 265//265
f 265//265 369//369 368//368
f 265//265 368//368 266//266
f 266//266 368//368 367//367
f 266//266 367//367 267//267
f 267//267 367//367 363//363
f 267//267 363//363 268//268
f 268//268 363//363 362//362
f 268//268 362//362 269//269
f 269//269 362//362 366//366
f 269//269 366//366 270//270
f 270//270 366//366 365//365
f 270//270 365//365 271//271
f 271//271 365//365 364//364
f 218//218 241//241 272//272
f 218//218 272//272 228//228
f 228//228 272//272 278//278
f 228//228 278//278 227//227
f 227//227 278//278 276//276
f 227//227 276//276 226//226
f 226//226 276//276 275//275
f 226//226 275//275 222//222
f 222//222 275//275 274//274
f 222//222 274//274 223//223
f 223//223 274//274 273//273
f 223//223 273//273 224//224
f 224//224 273//273 261//261
f 224//224 261//261 225//225
f 225//225 261//261 233//233
f 225//225 233//233 219//219
f 205//205 199//199 206//206
f 206//206 199//199 200//200
f 181//181 180//180 448//448
f 181//181 448//448 356//356
f 356//356 448//448 450//450
f 356//356 450//450 355//355
f 355//355 450//450 54//54
f 54//54 450//450 452//452
f 54//54 452//452 56//56
f 56//56 452//452 454//454
f 56//56 454//454 57//57
f 57//57 454//454 456//456
f 57//57 456//456 58//58
f 58//58 456//456 4//4
f 4//4 456//456 458//458
f 4//4 458//458 381//381
f 381//381 458//458 460//460
f 381//381 460//460 380//380
f 380//380 460//460 1//1
f 1//1 460//460 462//462
f 1//1 462//462 47//47
f 47//47 462//462 463//463
f 47//47 463//463 46//46
f 46//46 463//463 464//464
f 46//46 464//464 48//48
f 48//48 464//464 175//175
f 48//48 175//175 49//49
f 399//399 459//459 457//457
f 98//98 461//461 99//99
f 99//99 461//461 443//443
f 459//459 399//399 461//461
f 461//461 399//399 397//397
f 461//461 397//397 443//443
f 444//444 396//396 457//457
f 457//457 396//396 398//398
f 457//457 398//398 399//399
f 451//451 445//445 453//453
f 453//453 445//445 444//444
f 453//453 444//444 455//455
f 455//455 444//444 457//457
f 393//393 395//395 451//451
f 451//451 395//395 446//446
f 451//451 446//446 445//445
f 451//451 449//449 393//393
f 393//393 449//449 447//447
f 393//393 447//447 391//391
f 391//391 447//447 371//371
f 391//391 371//371 389//389
f 389//389 371//371 370//370
f 389//389 370//370 387//387
f 387//387 370//370 102//102
f 387//387 102//102 103//103
f 73//73 76//76 74//74
f 74//74 76//76 75//75
f 35//35 53//53 361//361
f 35//35 361//361 36//36
f 36//36 361//361 360//360
f 36//36 360//360 28//28
f 28//28 360//360 359//359
f 28//28 359//359 29//29
f 29//29 359//359 358//358
f 29//29 358//358 33//33
f 33//33 358//358 357//357
f 33//33 357//357 32//32
f 32//32 357//357 55//55
f 32//32 55//55 31//31

