# https://github.com/mikedh/trimesh

o tabletop_link.obj
v 0.36900000 -0.60960000 0.00000000
v 0.36900000 0.60960000 0.00000000
v 0.36900000 -0.60960000 0.02000000
v 0.36900000 0.60960000 0.02000000
v -0.38000000 -0.60960000 0.00000000
v -0.38000000 -0.60960000 0.02000000
v -0.38000000 0.60960000 0.00000000
v -0.38000000 0.60960000 0.02000000
vn 0.57735027 -0.57735027 -0.57735027
vn 0.57735027 0.57735027 -0.57735027
vn 0.57735027 -0.57735027 0.57735027
vn 0.57735027 0.57735027 0.57735027
vn -0.57735027 -0.57735027 -0.57735027
vn -0.57735027 -0.57735027 0.57735027
vn -0.57735027 0.57735027 -0.57735027
vn -0.57735027 0.57735027 0.57735027
f 1//1 2//2 3//3
f 3//3 2//2 4//4
f 5//5 1//1 6//6
f 6//6 1//1 3//3
f 7//7 5//5 8//8
f 8//8 5//5 6//6
f 2//2 7//7 4//4
f 4//4 7//7 8//8
f 4//4 8//8 3//3
f 3//3 8//8 6//6
f 7//7 2//2 5//5
f 5//5 2//2 1//1

